<svg width="100" height="100" viewBox="0 0 100 100" fill="none" xmlns="http://www.w3.org/2000/svg">
  <g clip-path="url(#clip0_89_53)">
    <path
      d="M6.27016 42.5412C0.865561 45.6063 0.865546 53.3937 6.27015 56.4588L66.8034 90.7891C72.1365 93.8137 78.75 89.9614 78.75 83.8304L78.75 15.1696C78.75 9.03856 72.1365 5.18628 66.8034 8.21085L6.27016 42.5412Z"
      fill="#35495E" />
    <path
      d="M93.7298 42.5412C99.1344 45.6063 99.1345 53.3937 93.7299 56.4588L33.1966 90.7891C27.8635 93.8137 21.25 89.9614 21.25 83.8304L21.25 15.1696C21.25 9.03856 27.8635 5.18628 33.1966 8.21085L93.7298 42.5412Z"
      fill="#409EFF" />
    <path
      d="M27.2725 46.0057C24.5347 47.5308 24.5347 51.4692 27.2725 52.9943L57.8033 70.0029C60.4695 71.4882 63.75 69.5605 63.75 66.5085L63.75 32.4915C63.75 29.4395 60.4695 27.5118 57.8033 28.9971L27.2725 46.0057Z"
      fill="white" />
    <path
      d="M58.5 46.9019C60.5 48.0566 60.5 50.9434 58.5 52.0981L47.25 58.5933C45.25 59.748 42.75 58.3046 42.75 55.9952L42.75 43.0048C42.75 40.6954 45.25 39.252 47.25 40.4067L58.5 46.9019Z"
      fill="#409EFF" />
  </g>
  <defs>
    <clipPath id="clip0_89_53">
      <rect width="100" height="100" fill="white" />
    </clipPath>
  </defs>
</svg>