<svg width="820" height="100" viewBox="0 0 820 100" fill="none" xmlns="http://www.w3.org/2000/svg">
  <path
    d="M8.352 85C7.328 85 6.816 84.488 6.816 83.464V16.072C6.816 15.048 7.328 14.536 8.352 14.536H34.368C45.76 14.536 54.56 17.544 60.768 23.56C66.976 29.576 70.08 38.312 70.08 49.768C70.08 61.096 66.976 69.8 60.768 75.88C54.56 81.96 45.76 85 34.368 85H8.352ZM32.64 31.048H24.48V68.488H32.64C38.912 68.488 43.68 66.952 46.944 63.88C50.208 60.744 51.84 56.04 51.84 49.768C51.84 43.496 50.208 38.824 46.944 35.752C43.68 32.616 38.912 31.048 32.64 31.048ZM81.432 85C80.408 85 79.896 84.488 79.896 83.464V79.048C79.896 78.344 80.152 77.736 80.664 77.224L98.616 57.16C101.816 53.576 104.28 50.6 106.008 48.232C107.8 45.8 109.048 43.688 109.752 41.896C110.52 40.04 110.904 38.28 110.904 36.616C110.904 34.568 110.232 32.968 108.888 31.816C107.544 30.6 105.752 29.992 103.512 29.992C99.224 29.992 96.12 32.52 94.2 37.576C93.944 38.472 93.336 38.824 92.376 38.632L79.512 35.08C78.488 34.888 78.136 34.28 78.456 33.256C80.248 27.048 83.448 22.152 88.056 18.568C92.664 14.984 98.2 13.192 104.664 13.192C109.528 13.192 113.784 14.088 117.432 15.88C121.08 17.672 123.928 20.168 125.976 23.368C128.024 26.568 129.048 30.312 129.048 34.6C129.048 37.928 128.504 41.128 127.416 44.2C126.328 47.208 124.408 50.44 121.656 53.896C118.968 57.288 115.192 61.256 110.328 65.8L107.736 68.2H129.336C130.36 68.2 130.872 68.68 130.872 69.64V83.464C130.872 84.488 130.36 85 129.336 85H81.432ZM143.352 85C142.328 85 141.816 84.488 141.816 83.464V16.072C141.816 15.048 142.328 14.536 143.352 14.536H188.184C189.208 14.536 189.72 15.048 189.72 16.072V29.032C189.72 29.992 189.208 30.472 188.184 30.472H159.768V44.008H183.576C184.6 44.008 185.112 44.52 185.112 45.544V58.504C185.112 59.464 184.6 59.944 183.576 59.944H159.768V83.464C159.768 84.488 159.256 85 158.232 85H143.352ZM201.008 85C199.984 85 199.472 84.488 199.472 83.464V16.072C199.472 15.048 199.984 14.536 201.008 14.536H224.528C234.768 14.536 242.256 16.68 246.992 20.968C251.728 25.256 254.096 31.56 254.096 39.88C254.096 44.488 253.296 48.552 251.696 52.072C250.096 55.528 247.664 58.344 244.4 60.52L256.112 83.176C256.432 83.688 256.464 84.136 256.208 84.52C255.952 84.84 255.536 85 254.96 85H238.544C237.712 85 237.136 84.616 236.816 83.848L227.888 65.128C226.8 65.192 225.68 65.224 224.528 65.224H217.136V83.464C217.136 84.488 216.624 85 215.6 85H201.008ZM224.24 29.512H217.136V50.248H224.24C227.952 50.248 230.8 49.448 232.784 47.848C234.832 46.248 235.856 43.592 235.856 39.88C235.856 36.168 234.832 33.512 232.784 31.912C230.8 30.312 227.952 29.512 224.24 29.512ZM261.813 85C261.237 85 260.821 84.84 260.565 84.52C260.373 84.136 260.373 83.72 260.565 83.272L288.309 15.688C288.629 14.92 289.205 14.536 290.037 14.536H302.133C303.029 14.536 303.605 14.92 303.861 15.688L331.605 83.272C331.797 83.72 331.765 84.136 331.509 84.52C331.317 84.84 330.965 85 330.453 85H314.325C313.429 85 312.853 84.584 312.597 83.752L308.757 72.904H283.125L279.285 83.752C279.029 84.584 278.453 85 277.557 85H261.813ZM288.213 58.312H303.573L295.797 36.616L288.213 58.312ZM341.352 85C340.328 85 339.816 84.488 339.816 83.464V16.072C339.816 15.048 340.328 14.536 341.352 14.536H356.904C357.736 14.536 358.312 14.888 358.632 15.592L379.848 50.92L400.488 15.592C400.872 14.888 401.448 14.536 402.216 14.536H417.48C418.504 14.536 419.016 15.048 419.016 16.072V83.464C419.016 84.488 418.504 85 417.48 85H403.368C402.344 85 401.832 84.488 401.832 83.464V43.432L385.608 70.504C385.288 71.208 384.712 71.56 383.88 71.56H374.952C374.184 71.56 373.608 71.208 373.224 70.504L357 44.104V83.464C357 84.488 356.488 85 355.464 85H341.352ZM434.165 85C433.141 85 432.629 84.488 432.629 83.464V16.072C432.629 15.048 433.141 14.536 434.165 14.536H480.533C481.557 14.536 482.069 15.048 482.069 16.072V28.456C482.069 29.48 481.557 29.992 480.533 29.992H450.389V41.512H476.981C478.005 41.512 478.517 42.024 478.517 43.048V54.952C478.517 55.976 478.005 56.488 476.981 56.488H450.389V69.544H481.685C482.709 69.544 483.221 70.056 483.221 71.08V83.464C483.221 84.488 482.709 85 481.685 85H434.165ZM514.496 85C513.6 85 513.056 84.616 512.864 83.848L488.096 16.264C487.904 15.752 487.904 15.336 488.096 15.016C488.352 14.696 488.768 14.536 489.344 14.536H506.624C507.584 14.536 508.16 14.952 508.352 15.784L520.928 55.336L533.216 15.784C533.472 14.952 534.048 14.536 534.944 14.536H546.848C547.68 14.536 548.224 14.952 548.48 15.784L561.728 55.432L573.344 15.784C573.6 14.952 574.176 14.536 575.072 14.536H592.064C592.576 14.536 592.96 14.696 593.216 15.016C593.472 15.336 593.504 15.752 593.312 16.264L568.544 83.848C568.288 84.616 567.712 85 566.816 85H554.816C553.984 85 553.44 84.584 553.184 83.752L540.704 43.432L528.128 83.752C527.936 84.584 527.392 85 526.496 85H514.496ZM632.09 86.344C626.842 86.344 622.01 85.48 617.594 83.752C613.178 81.96 609.338 79.464 606.074 76.264C602.81 73 600.25 69.128 598.394 64.648C596.602 60.168 595.706 55.208 595.706 49.768C595.706 44.328 596.602 39.368 598.394 34.888C600.25 30.408 602.81 26.568 606.074 23.368C609.338 20.104 613.178 17.608 617.594 15.88C622.01 14.088 626.842 13.192 632.09 13.192C637.338 13.192 642.17 14.088 646.586 15.88C651.002 17.608 654.842 20.104 658.106 23.368C661.37 26.568 663.898 30.408 665.69 34.888C667.546 39.368 668.474 44.328 668.474 49.768C668.474 55.208 667.546 60.168 665.69 64.648C663.898 69.128 661.37 73 658.106 76.264C654.842 79.464 651.002 81.96 646.586 83.752C642.17 85.48 637.338 86.344 632.09 86.344ZM632.09 68.968C635.674 68.968 638.778 68.168 641.402 66.568C644.09 64.904 646.17 62.632 647.642 59.752C649.178 56.872 649.946 53.544 649.946 49.768C649.946 45.992 649.178 42.664 647.642 39.784C646.17 36.904 644.09 34.664 641.402 33.064C638.778 31.4 635.674 30.568 632.09 30.568C628.57 30.568 625.466 31.4 622.778 33.064C620.09 34.664 617.978 36.904 616.442 39.784C614.97 42.664 614.234 45.992 614.234 49.768C614.234 53.544 614.97 56.872 616.442 59.752C617.978 62.632 620.09 64.904 622.778 66.568C625.466 68.168 628.57 68.968 632.09 68.968ZM681.758 85C680.734 85 680.222 84.488 680.222 83.464V16.072C680.222 15.048 680.734 14.536 681.758 14.536H705.278C715.518 14.536 723.006 16.68 727.742 20.968C732.478 25.256 734.846 31.56 734.846 39.88C734.846 44.488 734.046 48.552 732.446 52.072C730.846 55.528 728.414 58.344 725.15 60.52L736.862 83.176C737.182 83.688 737.214 84.136 736.958 84.52C736.702 84.84 736.286 85 735.71 85H719.294C718.462 85 717.886 84.616 717.566 83.848L708.638 65.128C707.55 65.192 706.43 65.224 705.278 65.224H697.886V83.464C697.886 84.488 697.374 85 696.35 85H681.758ZM704.99 29.512H697.886V50.248H704.99C708.702 50.248 711.55 49.448 713.534 47.848C715.582 46.248 716.606 43.592 716.606 39.88C716.606 36.168 715.582 33.512 713.534 31.912C711.55 30.312 708.702 29.512 704.99 29.512ZM748.227 85C747.203 85 746.691 84.488 746.691 83.464V16.072C746.691 15.048 747.203 14.536 748.227 14.536H763.107C764.131 14.536 764.643 15.048 764.643 16.072V43.336L787.491 15.4C788.003 14.824 788.611 14.536 789.315 14.536H806.307C806.947 14.536 807.331 14.728 807.459 15.112C807.651 15.432 807.555 15.848 807.171 16.36L785.763 41.032L809.859 83.176C810.179 83.688 810.243 84.136 810.051 84.52C809.859 84.84 809.443 85 808.803 85H791.619C790.851 85 790.275 84.648 789.891 83.944L773.667 54.856L764.643 65.224V83.464C764.643 84.488 764.131 85 763.107 85H748.227Z"
    fill="black" />
</svg>