<svg width="340" height="100" viewBox="0 0 340 100" fill="none" xmlns="http://www.w3.org/2000/svg">
  <path
    d="M4.176 46C3.664 46 3.408 45.744 3.408 45.232V11.536C3.408 11.024 3.664 10.768 4.176 10.768H17.184C22.88 10.768 27.28 12.272 30.384 15.28C33.488 18.288 35.04 22.656 35.04 28.384C35.04 34.048 33.488 38.4 30.384 41.44C27.28 44.48 22.88 46 17.184 46H4.176ZM16.32 19.024H12.24V37.744H16.32C19.456 37.744 21.84 36.976 23.472 35.44C25.104 33.872 25.92 31.52 25.92 28.384C25.92 25.248 25.104 22.912 23.472 21.376C21.84 19.808 19.456 19.024 16.32 19.024ZM40.716 46C40.204 46 39.948 45.744 39.948 45.232V43.024C39.948 42.672 40.076 42.368 40.332 42.112L49.308 32.08C50.908 30.288 52.14 28.8 53.004 27.616C53.9 26.4 54.524 25.344 54.876 24.448C55.26 23.52 55.452 22.64 55.452 21.808C55.452 20.784 55.116 19.984 54.444 19.408C53.772 18.8 52.876 18.496 51.756 18.496C49.612 18.496 48.06 19.76 47.1 22.288C46.972 22.736 46.668 22.912 46.188 22.816L39.756 21.04C39.244 20.944 39.068 20.64 39.228 20.128C40.124 17.024 41.724 14.576 44.028 12.784C46.332 10.992 49.1 10.096 52.332 10.096C54.764 10.096 56.892 10.544 58.716 11.44C60.54 12.336 61.964 13.584 62.988 15.184C64.012 16.784 64.524 18.656 64.524 20.8C64.524 22.464 64.252 24.064 63.708 25.6C63.164 27.104 62.204 28.72 60.828 30.448C59.484 32.144 57.596 34.128 55.164 36.4L53.868 37.6H64.668C65.18 37.6 65.436 37.84 65.436 38.32V45.232C65.436 45.744 65.18 46 64.668 46H40.716ZM4.176 89C3.664 89 3.408 88.744 3.408 88.232V54.536C3.408 54.024 3.664 53.768 4.176 53.768H26.592C27.104 53.768 27.36 54.024 27.36 54.536V61.016C27.36 61.496 27.104 61.736 26.592 61.736H12.384V68.504H24.288C24.8 68.504 25.056 68.76 25.056 69.272V75.752C25.056 76.232 24.8 76.472 24.288 76.472H12.384V88.232C12.384 88.744 12.128 89 11.616 89H4.176ZM33.0041 89C32.4921 89 32.2361 88.744 32.2361 88.232V54.536C32.2361 54.024 32.4921 53.768 33.0041 53.768H44.7641C49.8841 53.768 53.6281 54.84 55.9961 56.984C58.3641 59.128 59.5481 62.28 59.5481 66.44C59.5481 68.744 59.1481 70.776 58.3481 72.536C57.5481 74.264 56.3321 75.672 54.7001 76.76L60.5561 88.088C60.7161 88.344 60.7321 88.568 60.6041 88.76C60.4761 88.92 60.2681 89 59.9801 89H51.7721C51.3561 89 51.0681 88.808 50.9081 88.424L46.4441 79.064C45.9001 79.096 45.3401 79.112 44.7641 79.112H41.0681V88.232C41.0681 88.744 40.8121 89 40.3001 89H33.0041ZM44.6201 61.256H41.0681V71.624H44.6201C46.4761 71.624 47.9001 71.224 48.8921 70.424C49.9161 69.624 50.4281 68.296 50.4281 66.44C50.4281 64.584 49.9161 63.256 48.8921 62.456C47.9001 61.656 46.4761 61.256 44.6201 61.256ZM63.4065 89C63.1185 89 62.9105 88.92 62.7825 88.76C62.6865 88.568 62.6865 88.36 62.7825 88.136L76.6545 54.344C76.8145 53.96 77.1025 53.768 77.5185 53.768H83.5665C84.0145 53.768 84.3025 53.96 84.4305 54.344L98.3025 88.136C98.3985 88.36 98.3825 88.568 98.2545 88.76C98.1585 88.92 97.9825 89 97.7265 89H89.6625C89.2145 89 88.9265 88.792 88.7985 88.376L86.8785 82.952H74.0625L72.1425 88.376C72.0145 88.792 71.7265 89 71.2785 89H63.4065ZM76.6065 75.656H84.2865L80.3985 64.808L76.6065 75.656ZM103.176 89C102.664 89 102.408 88.744 102.408 88.232V54.536C102.408 54.024 102.664 53.768 103.176 53.768H110.952C111.368 53.768 111.656 53.944 111.816 54.296L122.424 71.96L132.744 54.296C132.936 53.944 133.224 53.768 133.608 53.768H141.24C141.752 53.768 142.008 54.024 142.008 54.536V88.232C142.008 88.744 141.752 89 141.24 89H134.184C133.672 89 133.416 88.744 133.416 88.232V68.216L125.304 81.752C125.144 82.104 124.856 82.28 124.44 82.28H119.976C119.592 82.28 119.304 82.104 119.112 81.752L111 68.552V88.232C111 88.744 110.744 89 110.232 89H103.176ZM149.582 89C149.07 89 148.814 88.744 148.814 88.232V54.536C148.814 54.024 149.07 53.768 149.582 53.768H172.766C173.278 53.768 173.534 54.024 173.534 54.536V60.728C173.534 61.24 173.278 61.496 172.766 61.496H157.694V67.256H170.99C171.502 67.256 171.758 67.512 171.758 68.024V73.976C171.758 74.488 171.502 74.744 170.99 74.744H157.694V81.272H173.342C173.854 81.272 174.11 81.528 174.11 82.04V88.232C174.11 88.744 173.854 89 173.342 89H149.582ZM189.748 89C189.3 89 189.028 88.808 188.932 88.424L176.548 54.632C176.452 54.376 176.452 54.168 176.548 54.008C176.676 53.848 176.884 53.768 177.172 53.768H185.812C186.292 53.768 186.58 53.976 186.676 54.392L192.964 74.168L199.108 54.392C199.236 53.976 199.524 53.768 199.972 53.768H205.924C206.34 53.768 206.612 53.976 206.74 54.392L213.364 74.216L219.172 54.392C219.3 53.976 219.588 53.768 220.036 53.768H228.532C228.788 53.768 228.98 53.848 229.108 54.008C229.236 54.168 229.252 54.376 229.156 54.632L216.772 88.424C216.644 88.808 216.356 89 215.908 89H209.908C209.492 89 209.22 88.792 209.092 88.376L202.852 68.216L196.564 88.376C196.468 88.792 196.196 89 195.748 89H189.748ZM248.545 89.672C245.921 89.672 243.505 89.24 241.297 88.376C239.089 87.48 237.169 86.232 235.537 84.632C233.905 83 232.625 81.064 231.697 78.824C230.801 76.584 230.353 74.104 230.353 71.384C230.353 68.664 230.801 66.184 231.697 63.944C232.625 61.704 233.905 59.784 235.537 58.184C237.169 56.552 239.089 55.304 241.297 54.44C243.505 53.544 245.921 53.096 248.545 53.096C251.169 53.096 253.585 53.544 255.793 54.44C258.001 55.304 259.921 56.552 261.553 58.184C263.185 59.784 264.449 61.704 265.345 63.944C266.273 66.184 266.737 68.664 266.737 71.384C266.737 74.104 266.273 76.584 265.345 78.824C264.449 81.064 263.185 83 261.553 84.632C259.921 86.232 258.001 87.48 255.793 88.376C253.585 89.24 251.169 89.672 248.545 89.672ZM248.545 80.984C250.337 80.984 251.889 80.584 253.201 79.784C254.545 78.952 255.585 77.816 256.321 76.376C257.089 74.936 257.473 73.272 257.473 71.384C257.473 69.496 257.089 67.832 256.321 66.392C255.585 64.952 254.545 63.832 253.201 63.032C251.889 62.2 250.337 61.784 248.545 61.784C246.785 61.784 245.233 62.2 243.889 63.032C242.545 63.832 241.489 64.952 240.721 66.392C239.985 67.832 239.617 69.496 239.617 71.384C239.617 73.272 239.985 74.936 240.721 76.376C241.489 77.816 242.545 78.952 243.889 79.784C245.233 80.584 246.785 80.984 248.545 80.984ZM273.379 89C272.867 89 272.611 88.744 272.611 88.232V54.536C272.611 54.024 272.867 53.768 273.379 53.768H285.139C290.259 53.768 294.003 54.84 296.371 56.984C298.739 59.128 299.923 62.28 299.923 66.44C299.923 68.744 299.523 70.776 298.723 72.536C297.923 74.264 296.707 75.672 295.075 76.76L300.931 88.088C301.091 88.344 301.107 88.568 300.979 88.76C300.851 88.92 300.643 89 300.355 89H292.147C291.731 89 291.443 88.808 291.283 88.424L286.819 79.064C286.275 79.096 285.715 79.112 285.139 79.112H281.443V88.232C281.443 88.744 281.187 89 280.675 89H273.379ZM284.995 61.256H281.443V71.624H284.995C286.851 71.624 288.275 71.224 289.267 70.424C290.291 69.624 290.803 68.296 290.803 66.44C290.803 64.584 290.291 63.256 289.267 62.456C288.275 61.656 286.851 61.256 284.995 61.256ZM306.614 89C306.102 89 305.846 88.744 305.846 88.232V54.536C305.846 54.024 306.102 53.768 306.614 53.768H314.054C314.566 53.768 314.822 54.024 314.822 54.536V68.168L326.246 54.2C326.502 53.912 326.806 53.768 327.158 53.768H335.654C335.974 53.768 336.166 53.864 336.23 54.056C336.326 54.216 336.278 54.424 336.086 54.68L325.382 67.016L337.43 88.088C337.59 88.344 337.622 88.568 337.526 88.76C337.43 88.92 337.222 89 336.902 89H328.31C327.926 89 327.638 88.824 327.446 88.472L319.334 73.928L314.822 79.112V88.232C314.822 88.744 314.566 89 314.054 89H306.614Z"
    fill="black" />
</svg>