<?xml version="1.0" standalone="no"?><!DOCTYPE svg PUBLIC "-//W3C//DTD SVG 1.1//EN" "http://www.w3.org/Graphics/SVG/1.1/DTD/svg11.dtd"><svg class="icon" width="200px" height="122.20px" viewBox="0 0 1676 1024" version="1.1" xmlns="http://www.w3.org/2000/svg"><path d="M1675.600645 308.178344l-10.019185 1.276955-23.829944 33.397283a75.792188 75.792188 0 0 0-13.575014-9.82273L1210.160387 91.705011c-42.964623-24.792572-117.990638-21.610007-167.575781 6.954493L59.407874 666.275804a120.387384 120.387384 0 0 0-14.871614 10.058476l-23.771008-11.964086-19.841915 2.750365s-0.235746 36.697721 12.219476 63.926329C21.177807 748.492057 41.255468 759.513161 47.365206 763.029698l418.055406 241.344487c50.056634 31.786356 117.872765 21.610007 167.575781-6.934848l983.137442-567.6163c10.097767-5.893638 39.290922-27.975136 49.447625-49.761952 14.616223-31.079119 10.019185-71.882741 10.019185-71.882741z" fill="#28282B" /><path d="M457.071292 950.25094L29.645 703.484307c-43.907605-25.36229-38.406876-69.643159 12.298059-98.914896L1047.103062 24.222853c50.704934-29.271737 127.400813-32.454301 171.328064-7.111657L1645.896708 263.897475c43.907605 25.342644 38.406876 69.643159-12.298059 98.914896L628.399355 943.158929c-50.704934 29.291382-120.151638 39.585604-171.328063 7.092011z" fill="#3F3F3F" /><path d="M484.457064 933.454071L60.566956 688.730566C31.432737 671.87476 35.027857 642.406569 68.759113 622.937917L1078.928708 39.703476c33.731256-19.468652 84.750518-21.610007 113.943673-4.71491L1616.821426 279.712071c29.2128 16.875451 25.539099 46.323997-8.172512 65.792649L598.400737 928.73916c-33.731256 19.468652-84.730873 21.590361-113.943673 4.714911z" fill="#F2F2F4" /><path d="M1480.914128 257.709155l-251.736935-145.37641c-16.659351-9.60663-14.576932-26.423145 4.67562-37.52283l33.967001-19.645461 312.087791 180.188167-33.967002 19.64546c-19.252552 11.119331-48.347479 12.317704-65.026475 2.711074z" fill="#3F3F3F" /><path d="M534.356534 851.375336l-19.016806-10.962167c-33.927711-19.645461-29.664646-53.828563 9.508403-76.460134 39.192694-22.611925 98.46305-25.067608 132.410406-5.481083l19.016806 10.981812c33.927711 19.645461 29.664646 53.808917-9.508403 76.440488-39.231985 22.631571-98.502341 25.087253-132.410406 5.481084z" fill="#F75B57" /><path d="M234.606093 665.509631l-19.016806-10.981813c-33.927711-19.645461-29.664646-53.828563 9.508403-76.440488 39.290922-22.631571 98.46305-25.087253 132.410406-5.500729l19.016806 10.981813c33.927711 19.645461 29.664646 53.828563-9.508403 76.440488-39.192694 22.631571-98.46305 25.087253-132.410406 5.500729z" fill="#8CD86C" /><path d="M776.781521 334.42468l-19.016806-10.981813c-33.947356-19.645461-29.684291-53.828563 9.508403-76.440488 39.173049-22.631571 98.46305-25.087253 132.39076-5.500729l19.016807 10.981813c33.947356 19.645461 29.684291 53.828563-9.508404 76.440488-39.173049 22.729798-98.46305 25.087253-132.39076 5.500729zM944.809147 431.433965l-18.99716-11.021103c-33.947356-19.645461-29.684291-53.808917 9.488757-76.440488 39.290922-22.611925 98.46305-25.067608 132.410406-5.481084l19.016806 10.981813c33.927711 19.645461 29.684291 53.808917-9.508403 76.440488-39.192694 22.651216-98.46305 25.106899-132.410406 5.520374zM1112.856419 528.462896l-19.016806-10.962167c-33.927711-19.645461-29.684291-53.828563 9.508403-76.440488 39.290922-22.631571 98.46305-25.087253 132.410406-5.500729l18.997161 10.981813c33.947356 19.645461 29.684291 53.808917-9.508403 76.440488-39.173049 22.611925-98.46305 25.126544-132.390761 5.481083zM603.940757 434.164684l-19.016806-10.981812c-33.927711-19.645461-29.684291-53.808917 9.508403-76.440488 39.192694-22.59228 98.46305-25.028317 132.449696-5.441793l19.016807 10.981812c33.947356 19.645461 29.684291 53.808917-9.508403 76.440489-39.231985 22.611925-98.521986 25.087253-132.449697 5.441792zM772.06661 531.232906l-18.99716-10.981812c-33.947356-19.645461-29.684291-53.828563 9.488757-76.440489 39.192694-22.631571 98.482695-25.087253 132.410406-5.500729l19.016806 10.981813c33.927711 19.645461 29.684291 53.828563-9.508403 76.440488-39.290922 22.631571-98.561277 25.087253-132.410406 5.500729zM940.015655 628.242192l-19.016806-10.981813c-33.927711-19.645461-29.684291-53.808917 9.508403-76.440488 39.290922-22.611925 98.46305-25.087253 132.410406-5.481084l18.997161 10.981813c33.947356 19.645461 29.684291 53.808917-9.488758 76.440488-39.192694 22.611925-98.482695 25.067608-132.410406 5.481084z" fill="#D9D9E2" /><path d="M1231.927557 390.198143a2.750365 2.750365 0 0 0 0-5.481084 2.750365 2.750365 0 0 0 0 5.481084z" fill="#FF9124" /><path d="M388.646151 850.49129l-187.574859-108.305426c-3.437956-1.964546-3.005756-5.461438 0.962627-7.858184a14.871614 14.871614 0 0 1 13.437495-0.550073l187.594506 108.28578c3.437956 1.964546 3.005756 5.461438-0.982273 7.759957a14.950196 14.950196 0 0 1-13.437496 0.667946z" fill="#C5C5D1" /><path d="M1296.600414 121.91973a17.543397 10.137058 0 1 0 35.086793 0 17.543397 10.137058 0 1 0-35.086793 0Z" fill="#76767C" /><path d="M1454.196301 209.695649L1343.74952 145.946128c-2.868237-1.669864-2.514619-4.557747 0.805464-6.483002a12.435577 12.435577 0 0 1 11.197913-0.451845l110.446781 63.74952c2.868237 1.669864 2.494974 4.557747-0.805464 6.483002a12.435577 12.435577 0 0 1-11.197913 0.451846z" fill="#76767C" /></svg>