<?xml version="1.0" standalone="no"?><!DOCTYPE svg PUBLIC "-//W3C//DTD SVG 1.1//EN" "http://www.w3.org/Graphics/SVG/1.1/DTD/svg11.dtd"><svg class="icon" width="200px" height="200.00px" viewBox="0 0 1024 1024" version="1.1" xmlns="http://www.w3.org/2000/svg"><path d="M1000.753657 699.259799v-12.695082l-2.665967 2.031213-1.396459 1.142558a32.372459 32.372459 0 0 0-9.013508-7.363148L640.467226 481.919993c-15.741902-9.140459-39.608656-10.156066-53.319345-2.158164L58.016858 785.205505a23.105049 23.105049 0 0 0-5.078033 3.935476l-4.189377-3.681574v12.695082c-0.253902 6.093639 4.189377 12.695082 13.075935 17.773115l347.210496 200.582298c15.741902 9.013508 39.608656 10.029115 53.319345 2.158164l529.131023-305.570627c6.347541-3.681574 9.394361-8.632656 9.140459-13.964591zM604.794046 9.282085l-10.917771-7.236196c-4.443279-2.919869-10.283017-2.792918-16.757508 0.888655L47.987743 308.505171C34.277055 316.376122 23.232333 337.576909 23.232333 355.730877V756.64157c0 9.26741 2.919869 15.995803 7.61705 19.296525v0.126951l0.634754 0.380852 11.679475 7.61705 3.300722-7.997902 1.523409-0.761705L577.118767 469.732714c13.710689-7.870951 24.75541-29.071738 24.75541-47.225705V21.596315a38.212197 38.212197 0 0 0-0.634754-6.728393z" fill="#C5C5D1" /><path d="M588.925193 477.603665L59.667219 783.301243c-13.583738 7.617049-24.501509-0.634754-24.501509-19.042623V363.474877c0-18.153967 11.044721-39.354755 24.62846-47.225706L588.925193 10.805495c13.583738-7.870951 24.75541 0.507803 24.75541 18.661771V430.37796c0 18.280918-11.171672 39.354755-24.75541 47.225705z" fill="#232323" /><path d="M591.083357 438.12196L57.509055 746.231603V355.730877L591.083357 47.748184V437.995009z" fill="#333333" /><path d="M991.486247 700.021504L462.228273 1005.592131c-13.583738 7.870951-37.450492 6.855344-53.319345-2.158164l-347.083545-200.582298c-15.741902-9.013508-17.519213-22.851148-3.808525-30.722098l529.131023-305.443676c13.710689-7.870951 37.577443-6.982295 53.319345 2.158164l347.210497 200.582297c15.741902 8.886557 17.392263 22.851148 3.808524 30.595148z" fill="#EAEAEF" /><path d="M811.977786 778.731013l-213.531282 123.142297c-6.22059 3.681574-17.01141 3.173771-24.120656-0.888656L460.704863 835.35108c-7.109246-4.062426-7.870951-10.283017-1.777311-13.964591l213.531281-123.142296c6.347541-3.681574 17.01141-3.173771 24.120656 0.888655l113.747936 65.633575c7.109246 4.189377 7.870951 10.283017 1.650361 13.96459z" fill="#D5D5E2" /><path d="M777.193261 623.977962L330.453321 881.81508c-6.347541 3.681574-17.265312 3.173771-24.501509-1.015606L123.523482 775.430292c-7.236197-4.189377-7.997902-10.409967-1.650361-14.091541l446.486039-257.837118c6.347541-3.681574 17.265312-3.173771 24.501508 1.015606l182.428331 105.369182c7.236197 4.189377 7.997902 10.536918 1.777311 14.091541z" fill="#D0D0DD" /><path d="M604.920996 521.6556L154.626433 781.650882a9.26741 9.26741 0 0 1-8.378754-0.380852l-15.995803-9.26741c-2.539016-1.269508-2.792918-3.554623-0.634755-4.824131l450.294564-259.995282a9.26741 9.26741 0 0 1 8.378754 0.380852l15.995803 9.26741c2.539016 1.269508 2.792918 3.554623 0.634754 4.824131z" fill="#333333" /><path d="M757.135031 824.179407l-82.01023 47.352657c-6.347541 3.681574-6.347541 9.648262 0 13.329836l0.761704 0.380852 105.115281-60.682492-0.761705-0.380853c-6.347541-3.808525-16.630558-3.808525-22.978099 0z" fill="#C5C5D1" /><path d="M648.845981 620.169437h-0.126951v0.253902h0.126951l-0.126951 0.126951v2.539016l23.358951 13.583738 63.34846-36.561836v-2.665968h-0.126951v-0.380852l-23.358951-13.583738-63.221509 36.561837z m-340.228202 159.577183L285.131878 793.457309v0.253901h0.12695v2.539017l23.358951 13.583737 23.358952-13.456787v-2.665967l-0.126951-0.126951v-0.253901l-23.232001-13.583738z m13.583738 67.918689l-23.358951 13.456787v3.04682l23.358951 13.583738 23.358951-13.583738v-3.04682l-23.358951-13.583738z m29.833443-17.138361l-23.485902 13.456787v0.253902l0.126951 0.126951v2.665967l23.232001 13.456787 23.485901-13.456787v-2.665967l-0.12695-0.126951v-0.253902L352.03496 830.399998z m31.102952-18.027016l-23.358952 13.456787v3.04682l23.358952 13.583737 23.358951-13.583737v-3.04682L383.137912 812.499932z m30.595148-17.646164L390.120207 808.310555v0.253901l0.126951 0.126951v2.539017l23.358951 13.583737L437.092011 811.230424v-2.539017h-0.126951v-0.380852L413.86001 794.726817z m242.222167-139.899805L632.596275 668.41075v0.253901l0.126951 0.126951v2.665967l23.232001 13.583738 23.485901-13.583738v-2.665967h-0.12695v-0.380852l-23.358951-13.583738z m29.325639-16.88446L661.794964 651.52629v0.253902l0.126951 0.126951v2.539016l23.358951 13.583738 23.358951-13.583738v-2.539016h-0.12695v-0.380853l-23.232001-13.583738zM715.114309 620.804192l-23.358951 13.456787v3.046819l23.358951 13.583738 23.358951-13.583738v-3.046819L715.114309 620.804192z m-89.246427 51.542033l-205.660331 118.699018v3.04682l23.358952 13.583738 205.66033-118.825969v-3.04682l-23.358951-13.583738zM371.077584 743.692587l-23.358952 13.456787v0.253901l0.126951 0.126951h-0.126951v2.665967l23.358952 13.456787 23.358951-13.456787v-3.046819L371.077584 743.565636z m31.229902-18.027017l-23.358952 13.456787v0.253902l0.126951 0.126951v2.665967l23.232001 13.456787 23.485902-13.456787v-2.665967l-0.126951-0.126951v-0.253902l-23.358951-13.583738z m31.356852-18.027017L410.305387 721.09534v2.919869l23.358951 13.583738 23.358952-13.456787v-2.665967l-0.126951-0.126951h0.126951v-0.253902l-23.358952-13.456787z m31.229903-18.153967l-23.358952 13.583738v2.792918l23.358952 13.583738 23.358951-13.456787v-3.04682L465.021191 689.357635z m31.229902-17.900066l-23.358952 13.329836v0.253902l0.126951 0.126951v2.665967l23.232001 13.583738 23.358951-13.583738v-3.04682l-23.358951-13.583738z m31.356852-18.153967l-23.485902 13.456787v0.253901l0.126951 0.126951v2.665967l23.232001 13.583738 23.485902-13.583738v-2.665967h-0.126951v-0.380852l-23.232001-13.583738z m31.229902-18.027017L535.351946 648.733372v3.173771l23.358951 13.456787 23.358952-13.456787v-2.665967h-0.126951l0.126951-0.126951v-0.253902l-23.358952-13.583738z m31.229902-18.027017L566.581848 630.833306v2.919869l23.358951 13.583738 23.358952-13.456787v-3.17377l-23.358952-13.456787zM359.905911 786.855866l-23.358951 13.583738v2.919869l23.358951 13.583737 23.358951-13.456787v-3.17377l-23.358951-13.583738z m31.229902-18.027017l-23.358951 13.583738v0.126951l0.126951 0.126951-0.126951 0.126951v2.539016l23.358951 13.583738 23.358951-13.583738v-3.04682l-23.358951-13.583738z m31.229902-18.027016L399.006764 764.25862v0.253901l0.126951 0.126951v2.665967l23.232 13.583738 23.485902-13.583738v-2.665967h-0.126951v-0.380852l-23.358951-13.583738z m31.229902-18.027017l-23.358951 13.456787h0.126951v3.04682l23.358951 13.456787 23.358951-13.456787v-2.665968h-0.12695l0.12695-0.253901v-0.126951l-23.358951-13.583738z m31.356853-18.027017l-23.358951 13.456787v2.919869l23.358951 13.583738 23.358951-13.456787v-3.17377L484.95247 714.747799z m31.229902-18.027016L492.950372 710.17757v0.253901h0.126951l-0.126951 0.126951v2.539017l23.358951 13.583738 23.358951-13.456788v-3.17377l-23.358951-13.456787z m31.356853-18.153968l-23.485902 13.583738v0.253902h0.126951v2.665967l23.232 13.583738 23.485902-13.456787v-2.665967l-0.126951-0.126951v-0.253902L547.539225 678.566815z m31.229902-18.027016L555.410176 674.123537v2.919868l23.358951 13.583738 23.358951-13.583738v-2.665967h-0.126951l0.126951-0.126951v-0.253901l-23.358951-13.583738z m31.229902-18.153968l-23.358951 13.583738v2.919869l23.358951 13.583738 23.358951-13.583738v-2.919869L609.999029 642.385831z m31.229902-17.900066l-23.358951 13.456787v0.253902l0.126951 0.126951v2.665967l23.232 13.456787 23.485902-13.456787v-2.665967l-0.126951-0.126951v-0.253902l-23.358951-13.583737zM621.170702 599.222552l-23.358952 13.583738v0.253902h0.126951v2.665967l23.232001 13.583738 23.485901-13.456787V613.187142l-0.12695-0.12695v-0.380853L621.170702 599.222552z m12.695082-7.236197l-4.824132 2.792918v0.126951l0.253902 0.126951-0.253902 0.126951v2.539016l23.485902 13.583738 4.697181-2.665967 18.66177-10.917771 26.659673-15.361049v-3.173771l-23.358951-13.583738-26.659673 15.488001-18.788721 10.790819z m-8.886558-31.229902v2.919869l23.232 13.583738 23.358952-13.583738v-3.04682L648.338177 547.172715 624.979226 560.629502z m143.962231 55.985312L745.836408 603.031077l-23.485902 13.583737v0.253902h0.126951v2.665967l23.358951 13.583738 23.358951-13.456787v-2.539016l-0.126951-0.126951v-0.253902zM266.343156 797.900587v-2.919869l-23.358951-13.583737-41.005115 23.739803v3.04682l23.358951 13.583738 41.005115-23.739804z m35.419279 15.614951v-2.919869L278.403484 797.138882l-45.448394 26.27882v3.04682l23.358951 13.456787 45.448394-26.151869z m49.637771 8.124853V818.847473l-23.358951-13.583738-63.221509 36.561836v2.919869l23.358951 13.583738 63.221509-36.561836zM273.325451 793.838161l23.485902-13.456787v-2.539016h-0.126951v-0.380853l-23.232-13.583738-23.485902 13.456787v0.253902l0.126951 0.126951v2.792918l23.358951 13.456787z m31.356853-18.027017l23.358951-13.456787v-2.539016l-0.126951-0.126951h0.126951v-0.380852l-23.358951-13.583738-23.358951 13.583738v3.046819l23.358951 13.583738z m31.229902-18.027016l23.358951-13.456787V741.407472l-23.358951-13.583738L312.680206 741.407472v2.919869l23.358951 13.583738z m31.356853-18.027017l23.358951-13.583738v-2.412065l-0.126951-0.253902v-0.253902L367.269059 709.669766l-23.358951 13.456788v0.253901l0.126951 0.126951v2.665967l23.232 13.583738z m31.229902-18.027016l23.358951-13.583738v-2.539017h-0.126951v-0.380852l-23.232-13.583738-23.485902 13.456787v0.253902l0.126951 0.12695v2.792918l23.358951 13.583738z m31.229902-18.027017l23.358951-13.583738v-2.919869l-23.358951-13.583738-23.358951 13.456787v3.173771l23.358951 13.456787z m31.229902-18.153968l23.358951-13.456787V669.045504l-23.358951-13.456787-23.358951 13.456787v0.253901h0.126951l-0.126951 0.253902v2.539016l23.358951 13.583738z m31.229902-18.027016l23.485902-13.456787v-2.539017l-0.126951-0.12695v-0.380853l-23.358951-13.583738L468.829716 651.272389v0.253901h0.126951v2.539017l23.232 13.583738z m31.229902-18.027017l23.485902-13.583738V633.499274l-0.126951-0.126951 0.126951-0.126951v-0.253902L523.54552 619.534683l-23.485902 13.583738h0.126951v2.919869l23.358951 13.583738z m31.356853-18.027016l23.358951-13.583738v-2.919869l-23.358951-13.583738-23.358951 13.456787v3.173771l23.358951 13.583737z m31.229902-18.153968l23.358951-13.456787v-2.919869l-23.358951-13.583738-23.358951 13.456787v0.253902l0.126951 0.126951v2.792918l23.232 13.456787zM617.362177 595.414027l23.358951-13.583738v-2.539016l-0.126951-0.126951v-0.253901L617.362177 565.453634 593.876275 578.910421v0.253901l0.126951 0.126951v2.665967L617.362177 595.414027zM363.206633 778.22321v-3.04682L339.847682 761.719603 316.48873 775.17639v3.04682l23.358952 13.583738 23.358951-13.583738zM597.050045 567.99265l41.132067-23.739804v-2.539016h-0.126951l0.126951-0.126951v-0.253902L614.82316 527.74924l-41.132066 23.612852h0.126951v3.173771l23.358951 13.583738z m-30.341246 17.519213l23.358951-13.456787v-3.046819l-23.358951-13.583738-23.358951 13.583738v3.046819l23.358951 13.583738z m-31.229902 18.027017l23.358951-13.456787v-2.539017l-0.126951-0.12695h0.126951v-0.380853l-23.358951-13.456787-23.358951 13.456787v3.173771l23.358951 13.456787z m-31.229902 18.027017l23.358951-13.456788v-2.539016h-0.126951v-0.380852L504.375946 591.605503l-23.485902 13.456787v0.253901l0.126951 0.126951v2.665967l23.358951 13.456788z m-31.356853 18.153967l23.358951-13.583738V623.343208l-23.358951-13.583738-23.358951 13.456787v0.253902l0.126951 0.126951-0.126951 0.12695v2.539017l23.358951 13.583738zM441.66224 657.61993l23.358951-13.456787v-2.919869l-23.358951-13.583738-23.358951 13.583738v3.04682l23.358951 13.583737zM410.432338 675.773897l23.358951-13.456787v-2.539016l-0.126951-0.126951v-0.380853L410.432338 645.813503l-23.358951 13.583738v2.919869l23.358951 13.583738z m-31.356853 18.027017l23.485902-13.456787V677.932061l-0.126951-0.126951v-0.507803L379.202436 663.967471 355.843485 677.424258v0.253902h0.126951v2.665967l23.232 13.583738z m-31.229902 18.153967l23.358951-13.583738v-2.919868l-23.358951-13.583738-23.358951 13.456787v0.253901l0.126951 0.126951h-0.126951v2.792918l23.358951 13.456787zM316.48873 729.981898l23.485902-13.583738V713.478291l-23.358951-13.583738-23.358951 13.456787v3.173771L316.48873 729.981898z m-31.102951 18.027017l23.358951-13.583738v-2.412066l-0.126951-0.253902v-0.253901l-23.232-13.583738-23.485902 13.456787v0.253902l0.126951 0.12695v2.665968l23.358951 13.583738z m-31.356853 18.027016l23.485902-13.456787h-0.126951v-3.04682l-23.358951-13.583737-23.358951 13.583737v0.253902h0.126951v2.792918l23.232 13.583738z m-31.229902 18.027017l23.358951-13.456787v-3.04682L222.799024 754.102554l-23.358951 13.583738v2.919869l23.358951 13.583738z m-8.251803 4.316328v-2.919869L191.18827 771.875669 167.95627 785.586358v0.253901h0.12695l-0.12695 0.126951v2.412066l23.358951 13.583738 23.358951-13.456787z" fill="#262628" /><path d="M242.857254 781.523931l-40.878164 23.739804 23.358951 13.456787 41.005115-23.612853-23.358951-13.583738z m35.54623 15.741902l-45.448394 26.151869 23.358951 13.583738 45.448394-26.27882-23.358951-13.583738z m49.637771 7.997902l-63.221509 36.561836 23.358951 13.456788 63.221509-36.434886-23.358951-13.583738z m320.677775-185.094298l23.358951 13.456788 63.34846-36.561837-23.485902-13.456787-63.221509 36.561836zM273.325451 764.004718l-23.358951 13.456787 23.485902 13.456787 23.358951-13.456787-23.358951-13.456787z m31.356853-18.153967l-23.358951 13.583737 23.358951 13.456787 23.358951-13.456787-23.358951-13.583737z m31.229902-18.027017L312.680206 741.407472l23.358951 13.456787 23.358951-13.456787-23.358951-13.583738z m31.356853-18.027017l-23.485902 13.456787 23.358951 13.583738 23.485902-13.456787-23.485902-13.583738z m31.229902-18.027016L374.886108 705.226488l23.485902 13.583738 23.358951-13.583738-23.358951-13.456787z m31.229902-18.027017l-23.358951 13.456787 23.358951 13.583738 23.358951-13.583738-23.358951-13.456787z m31.229902-18.027017L437.599814 669.045504l23.358951 13.456787 23.358951-13.456787-23.358951-13.456787z m31.229902-18.153967L468.829716 651.272389l23.358951 13.456787L515.80152 651.272389l-23.358951-13.583738zM523.418569 619.534683l-23.358951 13.583738 23.485902 13.456787 23.358951-13.456787-23.358951-13.583738z m31.356853-18.027016l-23.358951 13.456787 23.358951 13.583738 23.358951-13.583738-23.358951-13.456787z m31.229902-18.027017L562.773324 596.937437l23.358951 13.583738 23.358951-13.583738-23.358951-13.456787z m31.356853-18.027016L593.876275 578.910421l23.485902 13.456787 23.358951-13.456787-23.358951-13.456787zM308.617779 779.74662L285.131878 793.457309l23.485901 13.456787 23.358952-13.456787-23.358952-13.583738z m13.583738 94.959214l23.358951-13.583738-23.358951-13.456787-23.358951 13.456787 23.358951 13.583738z m29.833443-17.265312l23.358951-13.456787-23.485901-13.456787-23.358952 13.456787 23.358952 13.456787z m31.102952-17.900065l23.358951-13.583738-23.358951-13.456787-23.358952 13.456787 23.358952 13.583738z m30.595148-17.646164l23.358951-13.583738-23.358951-13.456787-23.485902 13.456787 23.485902 13.583738z m242.222167-139.899806l23.485901-13.583737-23.485901-13.456787-23.358952 13.456787 23.358952 13.583737z m29.325639-16.884459l23.358951-13.583738-23.358951-13.456787-23.485902 13.456787 23.485902 13.583738z m29.833443-17.265311l23.358951-13.583738L715.114309 620.804192l-23.358951 13.456787 23.358951 13.583738z m30.468197-17.646165l23.485902-13.456787L745.582506 603.031077l-23.485902 13.583737 23.485902 13.456788zM443.566503 804.628981l205.66033-118.699018-23.358951-13.583738-205.660331 118.699018 23.358952 13.583738zM339.847682 761.719603L316.48873 775.17639l23.358952 13.583738 23.358951-13.583738-23.358951-13.456787z m31.229902-18.027016l-23.358952 13.456787 23.358952 13.583738 23.358951-13.583738-23.358951-13.456787z m31.229902-18.027017l-23.358952 13.456787 23.358952 13.456787 23.485902-13.456787-23.485902-13.456787z m31.356852-18.027017L410.305387 721.09534l23.358951 13.456787 23.358952-13.456787-23.358952-13.456787z m31.229903-18.153967l-23.358952 13.583738 23.358952 13.456787 23.358951-13.456787L465.021191 689.357635z m31.229902-17.900066l-23.358952 13.329836 23.358952 13.583738 23.358951-13.583738-23.358951-13.456787z m31.356852-18.153967l-23.485902 13.456787 23.358952 13.583738 23.485902-13.583738-23.358952-13.456787z m31.229902-18.027017L535.351946 648.733372l23.358951 13.456787 23.358952-13.456787-23.358952-13.456787z m31.229902-18.027017L566.581848 630.833306l23.358951 13.456788 23.358952-13.456788-23.358952-13.456787zM359.905911 786.855866l-23.358951 13.583738 23.358951 13.456787 23.358951-13.456787-23.358951-13.583738z m31.229902-18.027017l-23.358951 13.583738 23.358951 13.456787 23.358951-13.456787-23.358951-13.583738z m31.229902-18.027016L399.006764 764.25862l23.358951 13.583738L445.978568 764.25862l-23.358951-13.456787z m31.229902-18.027017l-23.358951 13.456787 23.485902 13.583738 23.358951-13.583738-23.358951-13.456787z m31.356853-18.027017l-23.358951 13.456787 23.358951 13.456787 23.358951-13.456787-23.358951-13.456787z m31.229902-18.027016L492.950372 710.17757l23.358951 13.456787 23.358951-13.456787-23.358951-13.456787z m31.356853-18.153968l-23.485902 13.583738 23.358951 13.456787 23.485902-13.456787-23.358951-13.583738z m31.229902-18.027016L555.410176 674.123537l23.358951 13.583737L602.128078 674.123537l-23.358951-13.456788z m31.229902-18.153968l-23.358951 13.583738 23.358951 13.583738 23.358951-13.583738-23.358951-13.456787z m31.229902-17.900066l-23.358951 13.456787 23.358951 13.456788 23.485902-13.456788-23.485902-13.456787zM621.170702 599.222552l-23.358952 13.583738 23.358952 13.456787 23.485901-13.456787L621.170702 599.222552z m54.588853-4.443279l26.913574-15.488-23.485902-13.583738-26.659673 15.488-18.788721 10.79082-4.697181 2.792918 23.485902 13.456787 4.697181-2.665967 18.66177-10.79082zM648.211226 547.172715L624.979226 560.629502l23.358951 13.583738 23.358951-13.583738-23.358951-13.456787zM614.82316 527.87619l-41.132066 23.612853 23.485902 13.583738 41.005116-23.739804-23.358952-13.456787z m-48.114361 27.675279l-23.358951 13.583738 23.358951 13.456787 23.358951-13.456787-23.358951-13.583738z m-31.229902 18.153968L511.992995 587.162224l23.358951 13.456787 23.358951-13.456787-23.358951-13.456787zM504.248995 591.605503l-23.485902 13.583738 23.485902 13.583737 23.358951-13.583737-23.358951-13.456787z m-31.356853 18.153967L449.533191 623.343208l23.358951 13.583738 23.358951-13.583738-23.358951-13.456787z m-31.229902 18.027017l-23.358951 13.583738 23.358951 13.456787 23.358951-13.456787-23.358951-13.583738zM410.432338 645.813503l-23.358951 13.583738L410.432338 672.854028l23.358951-13.456787-23.358951-13.583738zM379.075485 663.967471L355.843485 677.424258l23.358951 13.456787 23.485902-13.456787-23.485902-13.456787z m-31.229902 18.027016l-23.358951 13.456788 23.358951 13.583737 23.358951-13.583737-23.358951-13.456788zM316.48873 700.021504L293.383681 713.478291l23.358951 13.583738 23.358951-13.583738-23.358951-13.456787z m-31.102951 18.027017L261.899877 731.505308l23.485902 13.583738 23.358951-13.456787-23.358951-13.583738z m-31.356853 18.027016l-23.358951 13.583738 23.358951 13.456787 23.485902-13.456787-23.485902-13.583738zM222.799024 754.102554l-23.358951 13.583738 23.358951 13.456787 23.358951-13.456787-23.358951-13.583738z m-31.610754 17.900066L167.95627 785.586358l23.358951 13.456787 23.358951-13.456787-23.358951-13.583738z" fill="#464649" /><path d="M129.490171 739.884062l432.267546-249.585315-7.744-4.443278L121.61922 735.440783l7.870951 4.443279z" fill="#7D7D89" /></svg>