<?xml version="1.0" standalone="no"?><!DOCTYPE svg PUBLIC "-//W3C//DTD SVG 1.1//EN" "http://www.w3.org/Graphics/SVG/1.1/DTD/svg11.dtd"><svg class="icon" width="200px" height="141.53px" viewBox="0 0 1447 1024" version="1.1" xmlns="http://www.w3.org/2000/svg"><path d="M598.200767 1011.094488L11.885832 672.584025c-17.568695-10.144043-15.368135-27.873754 4.91995-39.57429l764.166661-441.203241c20.288085-11.718427 50.988575-12.988668 68.55727-2.844626l586.314935 338.510463c17.568695 10.144043 15.368135 27.873754-4.91995 39.592181l-764.166662 441.18535c-20.288085 11.718427-50.988575 12.988668-68.557269 2.844626z" fill="#8F95AB" /><path d="M598.200767 952.681261L11.885832 614.170798c-17.568695-10.144043-15.368135-27.873754 4.91995-39.592181l764.166661-441.18535C801.260529 121.65695 831.943127 120.404599 849.529713 130.602314l586.314935 338.45679c17.568695 10.144043 15.368135 27.873754-4.91995 39.57429L666.758036 949.836635c-20.288085 11.718427-50.988575 12.988668-68.557269 2.844626z" fill="#ADB8D0" /><path d="M598.200767 890.833015L11.885832 552.322552C-5.682863 542.089056-3.553866 524.448798 16.805782 512.730371L780.972443 71.562912c20.288085-11.718427 50.988575-12.988668 68.55727-2.844626l586.314935 338.492572c17.568695 10.144043 15.368135 27.855863-4.91995 39.57429L666.758036 887.988389c-20.288085 11.700536-50.988575 12.988668-68.557269 2.844626z" fill="#C7CEE2" /><path d="M598.200767 828.966878L11.885832 490.456415C-5.682863 480.312372-3.553866 462.600551 16.805782 450.846343L780.972443 9.696775c20.288085-11.718427 50.988575-12.988668 68.55727-2.844626L1435.844648 345.291049c17.568695 10.144043 15.368135 27.855863-4.91995 39.57429L666.758036 826.122252c-20.288085 11.718427-50.988575 12.952887-68.557269 2.844626z" fill="#F5F8FC" /><path d="M221.887196 447.107181a82.154223 47.42832 0 1 0 164.308445 0 82.154223 47.42832 0 1 0-164.308445 0Z" fill="#EAEAEF" /><path d="M273.162023 433.885933l13.203357-7.62145 57.572362 33.223082-14.724069 8.480205-41.488598-23.955685-6.601679 8.945364-17.031973-4.758933z" fill="#959BB3" /><path d="M417.719104 551.553251a82.154223 47.42832 0 1 0 164.308445 0 82.154223 47.42832 0 1 0-164.308445 0Z" fill="#EAEAEF" /><path d="M492.484456 566.814042a23.257946 23.257946 0 0 1 0.894536-5.689252 74.139176 74.139176 0 0 1 3.220331-7.62145c0.73352-1.502821 1.395477-3.023533 1.985871-4.544245a10.984907 10.984907 0 0 0 0.590394-3.989632 7.013165 7.013165 0 0 0-3.739162-5.045186 11.289049 11.289049 0 0 0-5.957612-1.306023 16.370016 16.370016 0 0 0-7.263636 2.164778 8.802238 8.802238 0 0 0-3.578145 3.578146 4.705261 4.705261 0 0 0 0.805082 4.526354l-16.888847 7.156291a17.568695 17.568695 0 0 1-4.18643-6.136519 10.591311 10.591311 0 0 1 0.143126-6.279646 18.159089 18.159089 0 0 1 4.419009-6.100738 44.72682 44.72682 0 0 1 6.154411-4.41901 65.569518 65.569518 0 0 1 9.10638-4.150649 45.728701 45.728701 0 0 1 11.664755-2.415248 37.570529 37.570529 0 0 1 10.734437 0.769301 32.829486 32.829486 0 0 1 9.249506 3.470802 28.625165 28.625165 0 0 1 5.367218 4.150648 11.754208 11.754208 0 0 1 3.166659 6.154411 16.781503 16.781503 0 0 1-0.357814 4.114867 54.960316 54.960316 0 0 1-3.238222 7.871921 27.641175 27.641175 0 0 0-1.46704 3.828615 11.951006 11.951006 0 0 0-0.590394 3.578146l25.047019-14.455708 13.131795 7.585668-46.998943 27.140235L495.597443 576.081439a16.853066 16.853066 0 0 1-3.112987-9.267397z" fill="#959BB3" /><path d="M615.071724 664.497416a82.154223 47.42832 0 1 0 164.308445 0 82.154223 47.42832 0 1 0-164.308445 0Z" fill="#EAEAEF" /><path d="M698.156264 676.269515a17.014082 17.014082 0 0 0 7.782467 0.50094 21.951923 21.951923 0 0 0 7.782466-2.7015 15.189228 15.189228 0 0 0 3.023533-2.075324 6.422771 6.422771 0 0 0 1.681729-2.164778c0.339924-1.395477-0.357815-2.594156-2.128997-3.578146a10.555529 10.555529 0 0 0-6.834258-0.805083 18.534794 18.534794 0 0 0-4.257993 1.288133 31.308774 31.308774 0 0 0-4.329556 2.075324l-5.868159 3.381348-12.52351-7.156291 5.868159-3.381348a11.199596 11.199596 0 0 0 4.776824-4.275884c0.644066-1.288132 0.196798-2.433139-1.323913-3.578145a9.410523 9.410523 0 0 0-5.277765-0.930318 17.711821 17.711821 0 0 0-7.048947 2.290013 10.949125 10.949125 0 0 0-3.900179 3.578146 3.721271 3.721271 0 0 0 0.518831 4.025413l-17.103535 7.335199c-3.470801-3.578146-4.597917-7.317308-3.381348-11.360612a17.890728 17.890728 0 0 1 4.329556-6.494335 42.937747 42.937747 0 0 1 6.691132-4.866278 63.029034 63.029034 0 0 1 10.573421-4.66948 46.068624 46.068624 0 0 1 10.734436-2.111106A30.271112 30.271112 0 0 1 704.918959 644.066205a11.646864 11.646864 0 0 1 5.796596 6.047066 6.780586 6.780586 0 0 1-1.610166 6.190192 44.887836 44.887836 0 0 1 6.673242-1.484931 32.346436 32.346436 0 0 1 6.172301 0 25.047019 25.047019 0 0 1 4.472682 0.876646 28.7504 28.7504 0 0 1 5.65347 2.415248 17.085645 17.085645 0 0 1 5.88605 5.259874 7.943483 7.943483 0 0 1 1.091334 6.15441 15.564933 15.564933 0 0 1-4.544245 6.87004 51.883111 51.883111 0 0 1-7.567778 5.456672 54.298359 54.298359 0 0 1-11.002798 4.580026 57.250329 57.250329 0 0 1-11.396393 2.254232 45.299323 45.299323 0 0 1-19.089407-2.379467z" fill="#959BB3" /><path d="M430.958243 358.941674L754.58362 172.108802a9.732556 9.732556 0 0 0 0-16.870956 9.696775 9.696775 0 0 0-9.750447 0L421.207796 342.070718a9.732556 9.732556 0 0 0 0 16.870956 9.696775 9.696775 0 0 0 9.750447 0zM474.915761 385.1337l217.569142-126.022288a9.750447 9.750447 0 0 0 0-16.870956 9.732556 9.732556 0 0 0-9.750447 0L465.183205 368.262743a9.732556 9.732556 0 0 0 0 16.853066 9.786228 9.786228 0 0 0 9.732556 0.017891zM584.353344 471.188101L907.978721 284.355229a9.750447 9.750447 0 0 0 0-16.888847 9.786228 9.786228 0 0 0-9.750447 0L574.620788 454.317144a9.732556 9.732556 0 0 0 0 16.870957 9.660993 9.660993 0 0 0 9.732556 0zM628.328753 497.362236l217.551251-126.022288a9.750447 9.750447 0 0 0 0-16.870956 9.768337 9.768337 0 0 0-9.768337 0l-217.551252 126.004397a9.732556 9.732556 0 0 0 0 16.870956 9.82201 9.82201 0 0 0 9.768338 0.017891zM761.149517 585.313054l323.625377-186.850762a9.732556 9.732556 0 0 0 0-16.870956 9.786228 9.786228 0 0 0-9.750447 0L751.434852 568.442098a9.732556 9.732556 0 0 0 0 16.870956 9.786228 9.786228 0 0 0 9.714665 0zM805.107035 611.487189l217.569142-126.022287a9.750447 9.750447 0 0 0 0-16.870957 9.696775 9.696775 0 0 0-9.750446 0l-217.604924 126.022288a9.750447 9.750447 0 0 0 0 16.870956 9.696775 9.696775 0 0 0 9.786228 0z" fill="#C7CEE2" /><path d="M1277.529596 598.391176L1034.108353 457.823727c-10.734437-6.15441-20.592228-7.979265-29.090324-6.064957l-1.359695 0.429378c-0.572503 0.161017-1.145007 0.322033-1.789073 0.518831l-20.967933 6.422771c-15.779622 4.257993-26.263589 21.719344-26.263589 48.483873v260.900485c0 41.649615 25.333271 90.026143 56.552591 108.059997l243.474916 140.567449c10.466076 6.047066 20.252304 7.889811 28.625165 6.136519l0.304142-0.089453a28.625165 28.625165 0 0 0 4.061195-1.21657l20.574338-6.208082c15.511261-4.490573 25.780539-21.86247 25.780538-48.304966V706.451173c0.071563-41.649615-25.243817-90.026143-56.481028-108.059997z" fill="#FF7D08" /><path d="M1011.261893 876.645667l243.474916 140.56745c31.237211 18.033854 56.552591-1.109225 56.552591-42.75884V713.446447c0-41.631724-25.31538-90.008252-56.552591-108.042105l-243.474916-140.56745c-31.21932-18.033854-56.552591 1.109225-56.552591 42.740949v260.936267c0 41.649615 25.333271 90.026143 56.552591 108.131559z" fill="#FFA608" /><path d="M1243.429869 766.903942c-0.25047-50.720214-35.781456-112.103301-79.595848-137.490244l-86.233309-49.933021c-13.400155-7.746685-24.277718-1.46704-24.277718 14.00844v232.25743c0 16.45947 11.55741 36.479194 25.816321 44.726819 14.312582 8.229735 25.81632 1.556493 25.81632-14.902976V663.746005c0-11.450066 2.629937-15.278682 12.52351-9.535758l33.008393 19.071516C1173.15509 686.288322 1191.546758 718.080146 1191.546758 744.254281v0.912427c0 26.174135-18.337996 36.819118-41.005548 23.758887-15.225009-8.766457-28.893526-16.620486-28.911417-16.584705s-0.304142 52.008346-0.232579 51.525296l33.741913 19.393549c49.020594 28.01688 88.541212 4.705261 88.254961-52.062018z" fill="#FFFFFF" /></svg>