<?xml version="1.0" standalone="no"?><!DOCTYPE svg PUBLIC "-//W3C//DTD SVG 1.1//EN" "http://www.w3.org/Graphics/SVG/1.1/DTD/svg11.dtd"><svg class="icon" width="200px" height="181.72px" viewBox="0 0 1127 1024" version="1.1" xmlns="http://www.w3.org/2000/svg"><path d="M219.055333 1023.492418l-102.135174-58.040702v-130.332468l114.130455-10.562555-11.995281 198.935725z" fill="#AEB9D3" /><path d="M755.139252 46.174183L685.28617 5.143308a37.296638 37.296638 0 0 0-37.799617 0L69.381044 345.202683A140.727363 140.727363 0 0 0 0.000457 466.862578l1.158376 444.953311a30.361628 30.361628 0 0 0 13.839537 25.408049l66.24078 43.012306" fill="#C7CFE3" /><path d="M120.852538 391.47673l592.14319-341.873147c32.205883-18.594973 58.574164-3.383675 58.574164 33.821512v444.953311c0 41.731996-29.569055 92.974864-65.707318 113.810379L325.442964 861.899057l-99.422137 159.429028a5.624217 5.624217 0 0 1-10.410137-3.048356v-92.974864L124.983061 977.55369c-32.221125 18.594973-58.574164 3.383675-58.574164-33.821511V485.777629c0-34.614085 24.493542-77.001477 54.443641-94.300899z" fill="#EEF2FB" /><path d="M694.781799 177.314466L279.031741 417.342032c-11.690446 6.752109-21.155592 23.167507-21.155592 36.656483 0 13.504218 9.465146 18.976017 21.155592 12.193425L694.781799 226.194857c11.690446-6.752109 21.170834-23.167507 21.170834-36.671725 0-13.488976-9.480388-18.960775-21.170834-12.208666zM129.037375 637.982053c0 13.488976 9.480388 18.960775 21.170833 12.193425l544.908911-314.590359c11.690446-6.736867 21.170834-23.152265 21.170833-36.580274 0-13.488976-9.480388-18.960775-21.170833-12.193425L150.208208 601.32557c-11.690446 6.736867-21.170834 23.152265-21.170833 36.656483zM150.208208 869.29132l544.908911-314.6056c11.690446-6.752109 21.170834-23.167507 21.170833-36.671725 0-13.488976-9.480388-18.960775-21.170833-12.193425L150.208208 820.410929c-11.690446 6.752109-21.170834 23.152265-21.170833 36.580274 0 13.580427 9.480388 19.052226 21.170833 12.300117zM497.080659 512.374536L150.208208 712.651538c-11.690446 6.752109-21.170834 23.167507-21.170833 36.656483 0 13.504218 9.480388 18.976017 21.170833 12.193425l346.872451-200.277002C508.771105 554.502819 518.221009 538.041695 518.221009 524.598445c0-13.504218-9.449904-18.960775-21.14035-12.223909zM545.656215 508.823201c0 13.488976 9.480388 18.960775 21.170834 12.193425L695.025668 446.956813c11.690446-6.752109 21.155592-23.167507 21.155592-36.656484 0-13.504218-9.465146-18.976017-21.155592-12.193424l-128.320554 74.090297C555.060394 478.903585 545.656215 495.364709 545.656215 508.823201z" fill="#D7DEED" /><path d="M208.294636 458.190005l-58.086428 33.531918c-11.690446 6.752109-21.170834 23.167507-21.170833 36.656483 0 13.504218 9.480388 18.976017 21.170833 12.193425l58.086428-33.531918c11.690446-6.752109 21.170834-23.167507 21.170833-36.671725 0-13.458493-9.480388-18.930292-21.170833-12.178183z" fill="#F9D641" /><path d="M978.644728 1007.107504l64.472733-36.641242v-82.275133l-72.047898-6.660658 7.575165 125.577033z" fill="#33E281" /><path d="M640.155257 390.10497l36.580274-21.460428a38.729365 38.729365 0 0 1 39.064684-0.121934l370.070442 214.314682a84.287049 84.287049 0 0 1 42.02159 73.00813l-0.274352 262.158632a38.805574 38.805574 0 0 1-17.406114 32.312576l-44.58221 29.431879" fill="#33E281" /><path d="M1040.648292 608.153888L666.79789 392.269303c-20.332536-11.736171-36.976561-2.133849-36.976561 21.338493v280.906022c0 26.353039 18.671182 58.680857 41.488128 71.849756l240.164742 138.700206 62.765654 100.595755a3.551335 3.551335 0 0 0 6.569208-1.889981v-58.650373l57.156678 32.998455c20.347778 11.736171 36.991802 2.133849 36.991802-21.338493V667.596833c0.060967-21.780505-15.409441-48.575556-34.309249-59.442945z" fill="#37D187" /><path d="M842.550866 723.36651c17.482323 10.090059 31.641937 1.905223 31.641937-18.290137V629.644799c0-20.180118-14.159614-44.719385-31.641937-54.870412-17.482323-10.090059-31.657179-1.920464-31.657179 18.290138v75.446815c-0.030484 20.225843 14.174856 44.810836 31.657179 54.85517z" fill="#BEF4D9" /><path d="M890.836828 687.731226c-3.155049-1.829014-5.715668-0.350561-5.715668 3.292225v22.451143c0 27.069403-19.006501 38.028243-42.44836 24.493542-23.441859-13.534701-42.478843-46.441707-42.478844-73.51111v-22.435901a12.620195 12.620195 0 0 0-5.715667-9.907158c-3.155049-1.829014-5.715668-0.350561-5.715668 3.292225v23.685728c0 32.00774 20.88124 70.371303 47.767741 89.408287v34.705535l-14.357757-8.276287c-3.139807-1.829014-5.685184-0.350561-5.685185 3.276983a12.574469 12.574469 0 0 0 5.685185 9.861432l40.939423 23.640002c3.139807 1.813772 5.685184 0.335319 5.685184-3.292225a12.589711 12.589711 0 0 0-5.685184-9.861432l-14.357757-8.291529v-34.705535c26.886502 12.010523 47.782983-2.255784 47.782983-34.23304v-23.685727a12.589711 12.589711 0 0 0-5.700426-9.907158z" fill="#BEF4D9" /></svg>