<?xml version="1.0" standalone="no"?><!DOCTYPE svg PUBLIC "-//W3C//DTD SVG 1.1//EN" "http://www.w3.org/Graphics/SVG/1.1/DTD/svg11.dtd"><svg class="icon" width="200px" height="119.21px" viewBox="0 0 1718 1024" version="1.1" xmlns="http://www.w3.org/2000/svg"><path d="M1717.835319 592.889478v-28.617941l-16.91514 5.651694c-1.278122-0.878709-2.616155-1.717476-3.99413-2.536273l-905.868656-523.031307c-25.422637-14.678427-63.906078-16.276079-85.873792-3.554776L16.036432 438.636182c-3.99413-5.072545-9.206469-11.642889-9.605883-11.98239s-6.430549 0.978562-6.430549 0.978562v32.632041h0.119824c-0.239648 9.985325 6.869903 20.390033 21.009123 28.558029l905.96851 523.031307c25.422637 14.678427 63.906078 16.276079 85.873792 3.574746l690.165672-398.454396c11.003828-6.370637 15.816754-15.097811 14.698398-24.084603z" fill="#F7B64D" /><path d="M1703.136921 584.761423L1012.99122 983.21582c-21.967714 12.701333-60.471126 11.103681-85.873793-3.574746L21.188859 456.629737c-25.422637-14.678427-28.178586-36.885789-6.17093-49.607093L705.16363 8.588218c21.967714-12.721304 60.471126-11.123652 85.873792 3.554776L1696.965991 535.214242c25.422637 14.638486 28.178586 36.825877 6.17093 49.547181z" fill="#FFD782" /><path d="M1649.435845 565.669483L978.302202 953.140022 98.674979 445.306379 769.808622 57.815869l879.627223 507.853614z" fill="#FDFEFF" /><path d="M340.799132 461.862047a115.110823 66.462321 0 1 0 230.221646 0 115.110823 66.462321 0 1 0-230.221646 0Z" fill="#48E065" /><path d="M572.099193 595.40578a115.110823 66.462321 0 1 0 230.221646 0 115.110823 66.462321 0 1 0-230.221646 0Z" fill="#48E065" /><path d="M803.419225 728.949512a115.110823 66.462321 0 1 0 230.221646 0 115.110823 66.462321 0 1 0-230.221646 0Z" fill="#48E065" /><path d="M794.891758 255.325591l-213.286536 123.178966c-6.15096 3.554776-16.895169 3.095451-23.964779-0.998533-7.089581-4.093983-7.868436-10.304855-1.717476-13.83966l213.346448-123.178965c6.130989-3.554776 16.875199-3.095451 23.964779 0.998532 7.089581 4.153895 7.848465 10.284884 1.657564 13.83966zM935.485129 243.443055l-293.908047 169.75052c-6.15096 3.534805-16.895169 3.095451-23.964779-0.998533-7.089581-4.093983-7.868436-10.304855-1.717476-13.83966l293.908047-169.75052c6.130989-3.554776 16.875199-3.115421 23.96478 0.998533 7.089581 4.054042 7.848465 10.284884 1.717475 13.83966zM1026.251731 388.869324L812.865342 512.048289c-6.15096 3.554776-16.895169 3.115421-23.964779-0.998532-7.109551-4.093983-7.868436-10.284884-1.717476-13.83966L1000.589446 374.031131c6.15096-3.534805 16.895169-3.095451 23.96478 0.998533 7.089581 4.093983 7.848465 10.404708 1.697505 13.83966zM1166.785191 376.986787l-293.888077 169.75052c-6.15096 3.554776-16.895169 3.095451-23.964779-0.998532-7.109551-4.093983-7.868436-10.284884-1.717476-13.83966l293.888077-169.75052c6.15096-3.554776 16.895169-3.095451 23.964779 0.998532 7.109551 4.093983 7.868436 10.304855 1.717476 13.83966zM1261.865452 524.909387L1048.519005 648.068382c-6.15096 3.554776-16.895169 3.115421-23.964779-0.978562-7.089581-4.113954-7.868436-10.304855-1.717476-13.85963L1236.243109 510.071195c6.130989-3.554776 16.875199-3.115421 23.96478 0.978562 7.029669 4.193836 7.788553 10.304855 1.657563 13.85963zM1402.398912 513.00688L1108.430953 682.697488c-6.15096 3.554776-16.895169 3.095451-23.964779-0.998532-7.089581-4.093983-7.868436-10.284884-1.717476-13.83966l293.908047-169.75052c6.130989-3.534805 16.875199-3.095451 23.964779 0.998532 7.149492 4.153895 7.908377 10.364767 1.777388 13.899572z" fill="#EAEAEF" /><path d="M467.892345 419.983595v59.472594c0 1.118356-1.577681 1.997065-3.494864 1.997065h-51.484334c-5.691635 0-10.304855 2.676067-10.304855 5.991195 0 3.295157 4.61322 5.991195 10.304855 5.991195h65.284053c5.691635 0 10.304855-2.656096 10.304855-5.991195V419.983595c0-3.275186-4.61322-5.991195-10.304855-5.991194-5.691635 0.039941-10.304855 2.716008-10.304855 5.991194zM699.212377 553.547298V613.099775c0 1.118356-1.557711 1.997065-3.494864 1.997065h-51.464364c-5.691635 0-10.324826 2.656096-10.324825 5.991195 0 3.275186 4.633191 5.991195 10.324825 5.991194h65.264083c5.691635 0 10.304855-2.676067 10.304855-5.991194v-67.540737c0-3.295157-4.61322-5.991195-10.304855-5.991194-5.691635 0.039941-10.304855 2.696038-10.304855 5.991194zM929.114492 686.272234v59.472594c0 1.118356-1.557711 1.997065-3.494863 1.997065h-51.484334c-5.691635 0-10.304855 2.676067-10.304856 5.991195 0 3.295157 4.61322 5.991195 10.304856 5.991195h65.284052c5.691635 0 10.304855-2.656096 10.304856-5.991195v-67.460854c0-3.275186-4.61322-5.991195-10.304856-5.991195-5.691635 0.039941-10.304855 2.716008-10.304855 5.991195z" fill="#FDFEFF" /><path d="M548.813416 101.611503c-16.136285-17.53423-48.049382-20.849358-71.295218-7.429082l-91.385692 52.762456a43.935429 43.935429 0 0 0-12.242008-30.495182c-21.608243-23.465513-64.365403-27.958909-95.479675-9.985324s-38.842913 51.564217-17.23467 75.029729a65.903143 65.903143 0 0 0 32.91163 18.552734l-91.385691 52.782426C179.456256 266.249536 173.804562 291.332672 189.781081 308.866902l14.538633 15.776813L563.352049 117.388316zM301.876336 132.006831c12.461685-7.189434 29.556561-5.412046 38.203853 3.99413s5.551841 22.826452-6.889874 29.955974-29.556561 5.392075-38.203853-3.99413-5.551841-22.76654 6.889874-29.955974z" fill="#D0D0DD" /><path d="M550.610775 94.76157C534.47449 77.247311 502.541421 73.892241 479.355498 87.332489l-91.445604 52.762455a43.775663 43.775663 0 0 0-12.222037-30.475211c-21.608243-23.465513-64.365403-27.958909-95.499646-9.985324s-38.842913 51.564217-17.23467 75.029729a65.643525 65.643525 0 0 0 32.91163 18.532763l-91.365721 52.762456c-23.245836 13.420276-29.017354 38.503412-12.881069 56.037642l14.538633 15.776813L565.22929 110.558354zM303.613783 125.156898c12.441715-7.189434 29.556561-5.392075 38.183882 3.99413s5.571811 22.826452-6.889875 29.955974-29.53659 5.412046-38.183881-3.994129-5.511899-22.76654 6.889874-29.955975z" fill="#EAEAEF" /><path d="M568.883919 114.612396L209.911496 321.867795l-16.795316-18.233203L552.088603 96.379193l16.795316 18.233203z" fill="#D0D0DD" /></svg>