<?xml version="1.0" standalone="no"?><!DOCTYPE svg PUBLIC "-//W3C//DTD SVG 1.1//EN" "http://www.w3.org/Graphics/SVG/1.1/DTD/svg11.dtd"><svg class="icon" width="200px" height="141.53px" viewBox="0 0 1447 1024" version="1.1" xmlns="http://www.w3.org/2000/svg"><path d="M598.200767 1011.094488L11.885832 672.584025c-17.568695-10.144043-15.368135-27.873754 4.91995-39.57429l764.166661-441.203241c20.288085-11.718427 50.988575-12.988668 68.55727-2.844626l586.314935 338.510463c17.568695 10.144043 15.368135 27.873754-4.91995 39.592181l-764.166662 441.18535c-20.288085 11.718427-50.988575 12.988668-68.557269 2.844626z" fill="#8F95AB" /><path d="M598.200767 952.681261L11.885832 614.170798c-17.568695-10.144043-15.368135-27.873754 4.91995-39.592181l764.166661-441.18535C801.260529 121.65695 831.943127 120.404599 849.529713 130.602314l586.314935 338.45679c17.568695 10.144043 15.368135 27.873754-4.91995 39.57429L666.758036 949.836635c-20.288085 11.718427-50.988575 12.988668-68.557269 2.844626z" fill="#ADB8D0" /><path d="M598.200767 890.833015L11.885832 552.322552C-5.682863 542.089056-3.553866 524.448798 16.805782 512.730371L780.972443 71.562912c20.288085-11.718427 50.988575-12.988668 68.55727-2.844626l586.314935 338.492572c17.568695 10.144043 15.368135 27.855863-4.91995 39.57429L666.758036 887.988389c-20.288085 11.700536-50.988575 12.988668-68.557269 2.844626z" fill="#C7CEE2" /><path d="M598.200767 828.966878L11.885832 490.456415C-5.682863 480.312372-3.553866 462.600551 16.805782 450.846343L780.972443 9.696775c20.288085-11.718427 50.988575-12.988668 68.55727-2.844626L1435.844648 345.291049c17.568695 10.144043 15.368135 27.855863-4.91995 39.57429L666.758036 826.122252c-20.288085 11.718427-50.988575 12.952887-68.557269 2.844626z" fill="#F5F8FC" /><path d="M877.439248 416.156222L544.6896 224.027695l211.951453-122.372579 332.76754 192.128527-211.969345 122.372579z" fill="#D7DEED" /><path d="M1230.154949 421.541331l-118.526072-68.432034a14.813523 14.813523 0 0 1 0-25.655304 14.813523 14.813523 0 0 1 14.813522 0l118.526073 68.432034a14.813523 14.813523 0 0 1 0 25.655304 14.813523 14.813523 0 0 1-14.813523 0zM1166.338723 459.254985l-118.526073-68.432034a14.813523 14.813523 0 0 1 0-25.655304 14.813523 14.813523 0 0 1 14.813523 0l118.526072 68.432035a14.813523 14.813523 0 0 1 0 25.655303 14.813523 14.813523 0 0 1-14.813522 0zM980.883437 569.300853l-491.995017-284.068978a14.813523 14.813523 0 0 1 0-25.655304 14.813523 14.813523 0 0 1 14.813522 0l491.995018 284.051087a14.831413 14.831413 0 0 1 0 25.673195 14.813523 14.813523 0 0 1-14.813523 0zM462.642722 355.631889l-47.839807-27.641174a14.795632 14.795632 0 0 1 0-25.655304 14.813523 14.813523 0 0 1 14.813523 0l47.839806 27.623284a14.831413 14.831413 0 0 1 0 25.673194 14.885086 14.885086 0 0 1-14.813522 0zM905.527691 610.073822L511.699098 382.611107a14.831413 14.831413 0 0 1 0-25.673195 14.885086 14.885086 0 0 1 14.813522 0l393.828594 227.409043a14.813523 14.813523 0 0 1 0 25.655304 14.813523 14.813523 0 0 1-14.813523 0.071563zM832.730319 654.800641l-491.995017-284.068977a14.831413 14.831413 0 0 1 0-25.673195 14.885086 14.885086 0 0 1 14.813523 0l491.995017 284.068978a14.831413 14.831413 0 0 1 0 25.673194 14.831413 14.831413 0 0 1-14.813523 0zM658.653537 637.231947L268.92192 412.220262a14.831413 14.831413 0 0 1 0-25.673195 14.813523 14.813523 0 0 1 14.813523 0l389.731616 225.011685a14.831413 14.831413 0 0 1 0 25.673195 14.885086 14.885086 0 0 1-14.813522 0zM722.255074 673.94372l37.248496 21.468874a14.813523 14.813523 0 0 0 14.813523 0 14.813523 14.813523 0 0 0 0-25.655304l-37.266387-21.468874a14.813523 14.813523 0 0 0-14.813522 0 14.813523 14.813523 0 0 0 0.01789 25.655304zM679.87194 737.634712L192.564293 456.303015a14.831413 14.831413 0 0 1 0-25.673194 14.831413 14.831413 0 0 1 14.831414 0L694.685463 712.050971a14.813523 14.813523 0 0 1 0 25.655304 14.813523 14.813523 0 0 1-14.813523-0.071563zM1043.500985 467.287922l-64.066697-36.980134a14.831413 14.831413 0 0 1 0-25.673195 14.885086 14.885086 0 0 1 14.813523 0l64.066696 36.998025a14.813523 14.813523 0 0 1 0 25.655304 14.813523 14.813523 0 0 1-14.813522 0z" fill="#C7CEE2" /><path d="M1277.529596 598.391176L1034.108353 457.823727c-10.734437-6.15441-20.592228-7.979265-29.090324-6.064957l-1.359695 0.429378c-0.572503 0.161017-1.145007 0.322033-1.789073 0.518831l-20.967933 6.422771c-15.779622 4.257993-26.263589 21.719344-26.263589 48.483873v260.900485c0 41.649615 25.333271 90.026143 56.552591 108.059997l243.474916 140.567449c10.466076 6.047066 20.252304 7.889811 28.625165 6.136519l0.304142-0.089453a28.625165 28.625165 0 0 0 4.061195-1.21657l20.574338-6.208082c15.511261-4.490573 25.780539-21.86247 25.780538-48.304966V706.451173c0.071563-41.649615-25.243817-90.026143-56.481028-108.059997z" fill="#0B75D6" /><path d="M1011.261893 876.645667l243.474916 140.56745c31.237211 18.033854 56.552591-1.109225 56.552591-42.75884V713.446447c0-41.631724-25.31538-90.008252-56.552591-108.042105l-243.474916-140.56745c-31.21932-18.033854-56.552591 1.109225-56.552591 42.740949v260.936267c0 41.649615 25.333271 90.026143 56.552591 108.131559z" fill="#088AFF" /><path d="M1084.202391 855.82086c-27.247579-15.72595-50.594979-50.720214-55.461257-83.156103l-29.108214-192.557905c-2.128997-16.727831 8.730675-24.402953 22.900132-16.208999 11.539519 6.655351 21.307857 21.665671 22.935913 35.208952l25.744757 178.907279c1.162897 8.945364 5.063076 20.449102 12.630854 24.796549 0 0 11.700536 10.287169 15.350245-4.741043L1114.616628 705.431401c1.628056-11.664755 11.414284-15.403917 22.935913-8.748566 14.169457 8.193953 25.047019 28.410476 22.900132 42.669386L1139.663647 836.749344c-4.902059 26.836092-28.249459 34.797466-55.461256 19.071516zM1157.769064 835.192851c2.20056 7.800357 5.778705 14.312582 12.29093 18.105417 7.514106 4.311665 13.918986 1.950089 15.081884-5.599798l23.776777-154.218075c1.628056-11.664755 11.396394-15.403917 22.935913-8.730675 14.169457 8.176063 25.047019 28.392585 22.900132 42.651495l-29.090324 158.959118c-4.902059 26.836092-28.26735 34.797466-55.461256 19.071516a109.652271 109.652271 0 0 1-31.93495-29.412357c6.959493-4.365338 19.500893-40.826641 19.500894-40.826641z" fill="#FFFFFF" /></svg>