<?xml version="1.0" standalone="no"?><!DOCTYPE svg PUBLIC "-//W3C//DTD SVG 1.1//EN" "http://www.w3.org/Graphics/SVG/1.1/DTD/svg11.dtd"><svg class="icon" width="200px" height="142.92px" viewBox="0 0 1433 1024" version="1.1" xmlns="http://www.w3.org/2000/svg"><path d="M584.162179 1015.456103L14.816006 686.738325c-21.927688-12.659454-19.178496-34.768227 6.140411-49.386686L760.456184 210.38728c25.318907-14.601997 63.610051-16.198833 85.521277-3.539379l569.362635 328.717779c21.927688 12.659454 19.178496 34.768227-6.140411 49.386686L669.683456 1011.900262c-25.318907 14.618459-63.610051 16.215295-85.521277 3.555841z" fill="#C8CFE3" /><path d="M587.158304 964.028102L17.795669 635.310323c-21.927688-12.659454-19.178496-34.768227 6.140411-49.386686L763.452309 158.975741c25.318907-14.618459 63.610051-16.198833 85.603589-3.555842L1418.336222 484.15414c21.927688 12.642991 19.178496 34.751764-6.140412 49.386686L672.679581 960.488722c-25.318907 14.618459-63.577127 16.198833-85.521277 3.53938z" fill="#D6DDEC" /><path d="M584.162179 903.776345L14.816006 574.976255c-21.927688-12.659454-19.178496-34.768227 6.140411-49.386685L760.456184 98.641673c25.318907-14.618459 63.610051-16.198833 85.521277-3.555841l569.362635 328.734241c21.927688 12.642991 19.178496 34.751764-6.140411 49.386686L669.683456 900.154655c-25.318907 14.618459-63.610051 16.198833-85.521277 3.62169z" fill="#FFFFFF" /><path d="M1358.742955 449.813932l-724.667299 417.547964L69.503529 541.393309l724.667299-417.531502 564.572127 325.952125z" fill="#EEF2FB" /><path d="M1050.487726 166.169735l-72.664277 41.945758-72.664277-41.945758 72.664277-41.962221 72.664277 41.962221z" fill="#FFA1FF" /><path d="M1050.487726 384.195489l-72.664277 41.96222V208.115493l72.664277-41.962221v218.042217z" fill="#FC7AF6" /><path d="M905.159172 384.195489V166.153272l72.664277 41.962221v218.042216l-72.664277-41.96222z" fill="#EF5EE1" /><path d="M892.549105 41.945758l-72.647814 41.962221-72.664277-41.962221L819.901291 0l72.647814 41.945758z" fill="#FFAD40" /><path d="M892.549105 505.192869l-72.647814 41.96222V83.891516l72.664277-41.945758-0.016463 463.247111z" fill="#F99E32" /><path d="M747.237014 505.192869V41.945758l72.664277 41.945758v463.263573l-72.664277-41.96222z" fill="#F28522" /><path d="M733.425205 224.79173l-72.664277 41.945759-72.664277-41.945759 72.664277-41.96222 72.664277 41.96222z" fill="#3BB9FF" /><path d="M733.425205 608.460428l-72.664277 41.96222V266.721026l72.664277-41.945758v383.68516z" fill="#32ABFC" /><path d="M588.096651 608.460428l0.016463-383.68516 72.647814 41.945758V650.422648l-72.664277-41.96222z" fill="#2194F4" /><path d="M575.206726 383.405302l-72.664276 41.945758-72.664277-41.945758 72.664277-41.96222 72.664276 41.96222z" fill="#18EFC6" /><path d="M575.206726 695.973635l-72.664276 41.96222V425.35106l72.664276-41.945758v312.568333z" fill="#09D1AF" /><path d="M429.878173 695.973635V383.405302l72.664277 41.945758v312.584795l-72.664277-41.96222z" fill="#11C18F" /></svg>