<?xml version="1.0" standalone="no"?><!DOCTYPE svg PUBLIC "-//W3C//DTD SVG 1.1//EN" "http://www.w3.org/Graphics/SVG/1.1/DTD/svg11.dtd"><svg class="icon" width="200px" height="141.53px" viewBox="0 0 1447 1024" version="1.1" xmlns="http://www.w3.org/2000/svg"><path d="M703.894913 1016.865091L12.34846 617.617603c-18.297302-10.566296-15.990328-29.004482 5.124654-41.208554L672.74195 198.135658c21.132592-12.204072 53.078026-13.524859 71.375329-2.958563l691.493621 399.247488c18.279692 10.566296 15.990328 29.004482-5.124653 41.208554l-655.216006 378.273391c-21.114981 12.204072-53.078026 13.524859-71.375328 2.958563z" fill="#F5F8FC" /><path d="M538.673267 864.780873L90.081177 605.800962c-13.454417-7.748617-11.763809-21.308697 3.768645-30.272438l584.66837-337.557931c15.532455-8.963741 39.007242-9.932318 52.461659-2.166091L1179.53672 494.854855c13.454417 7.766227 11.763809 21.326307-3.768645 30.290048l-584.66837 337.557932c-15.514844 8.858078-38.989632 9.844266-52.426438 2.078038z" fill="#4BCAF7" /><path d="M968.404519 498.376954l-181.493742 104.800044v-418.24921L968.404519 498.376954z" fill="#5EB735" /><path d="M605.417035 498.376954l181.493742-316.143572v420.943616" fill="#368420" /><path d="M868.341697 629.434243l-294.975759 170.293469V119.9979l294.975759 509.436343z" fill="#5FBF2C" /><path d="M278.40779 629.434243L573.365938 115.630498v684.097214" fill="#388E24" /><path d="M699.069638 66.44439m-66.444391 0a66.44439 66.44439 0 1 0 132.888781 0 66.44439 66.44439 0 1 0-132.888781 0Z" fill="#F96726" /><path d="M752.112443 106.455431A66.42678 66.42678 0 0 0 701.852096 0a59.206478 59.206478 0 1 0 50.260347 106.384989z" fill="#FF761A" /><path d="M438.08213 498.641111l-16.307316-7.308354c-4.772444-2.113259-11.05939-1.44406-17.927482 2.5183a44.325611 44.325611 0 0 0-7.308355 5.388811c-0.123273-9.685771-2.254143-17.610493-5.917126-23.650892l2.83529-4.050413-13.771406-6.163673q-0.739641-0.36982-1.532113-0.686809c-9.157456-3.751035-21.044539-2.359806-34.058693 5.142264-24.020713 13.859458-44.255169 44.184727-50.489284 73.206819a36.594605 36.594605 0 0 0-9.368782 3.891919C265.358414 557.812368 250.090117 584.245718 250.090117 605.977067c0 12.13363 4.772444 20.252067 12.327345 23.140188l15.479623 6.903313 0.598757-7.572512a40.697849 40.697849 0 0 0 5.159874-2.412638l120.103563-69.350121h0.176105c14.98653-8.646752 27.13777-29.691291 27.13777-47.002406a33.900199 33.900199 0 0 0-0.36982-4.966159l5.476863-0.35221z" fill="#EDF0F2" /><path d="M420.9119 501.45879a43.462697 43.462697 0 0 0-7.308355 5.406422c-0.405041-32.84357-23.738945-46.033829-52.479269-29.444745-23.950271 13.91229-44.114285 44.184727-50.418842 73.20682a36.594605 36.594605 0 0 0-9.368782 3.891919c-18.825617 10.865674-34.076304 37.299024-34.076305 59.030373s14.916088 30.325269 33.459937 20.02313l120.103563-69.350121h0.176105c14.98653-8.664363 27.13777-29.708902 27.13777-47.020017s-12.168851-24.390533-27.225822-15.743781z" fill="#FFFDFD" /><path d="M942.974967 339.389423l-7.50207-3.363605a9.175067 9.175067 0 0 0-8.259322 1.162293 19.917468 19.917468 0 0 0-3.363604 2.483079 21.396749 21.396749 0 0 0-2.712016-10.883284l1.285566-1.866713-6.322167-2.88812a6.198894 6.198894 0 0 0-0.704419-0.316989c-4.226518-1.761049-9.685771-1.07424-15.673339 2.377416-11.05939 6.374998-20.35773 20.322509-23.245851 33.688874a16.641916 16.641916 0 0 0-4.29696 1.761049c-8.664363 5.00138-15.690949 17.170231-15.69095 27.172991 0 5.582526 2.201312 9.315951 5.652969 10.566295l7.044197 3.1875 0.281768-3.522099a20.35773 20.35773 0 0 0 2.377416-1.109461l55.279338-31.910213a27.578032 27.578032 0 0 0 12.48584-21.643296 13.20787 13.20787 0 0 0-0.176105-2.271754l2.535911-0.176105z" fill="#EDF0F2" /><path d="M935.138297 340.692599a19.917468 19.917468 0 0 0-3.363604 2.48308c-0.193715-15.109803-10.918506-21.132592-24.143986-13.54247-11.05939 6.374998-20.35773 20.322509-23.22824 33.688874a16.483422 16.483422 0 0 0-4.314571 1.761049c-8.664363 5.00138-15.690949 17.170231-15.690949 27.172991s6.868092 13.947511 15.391571 9.210288l55.279337-31.910214a27.578032 27.578032 0 0 0 12.48584-21.643296c0.035221-8.030385-5.547305-11.200274-12.415398-7.220302z" fill="#FFFDFD" /></svg>