<?xml version="1.0" standalone="no"?><!DOCTYPE svg PUBLIC "-//W3C//DTD SVG 1.1//EN" "http://www.w3.org/Graphics/SVG/1.1/DTD/svg11.dtd"><svg class="icon" width="200px" height="200.00px" viewBox="0 0 1024 1024" version="1.1" xmlns="http://www.w3.org/2000/svg"><path d="M879.042554 586.051132L825.78324 28.049671a56.870709 56.870709 0 0 0-0.981738-6.369613l2.582907-0.338933 3.798393-14.09496L809.467682 0.596056A16.210373 16.210373 0 0 0 796.786893 2.337473L149.505665 376.040906C132.313554 386.255661 126.060815 408.566837 128.176228 430.76114l53.259313 558.04821c1.250548 13.124909 6.299489 22.498174 13.089847 26.319941v0.303872l18.96859 7.655223 13.218408-16.093499-0.245435-1.799854 631.246165-364.423667c13.896275-8.029218 23.44485-32.525931 21.329438-54.720234z" fill="#C5C5D1" /><path d="M704.187915 902.147553a12.236669 12.236669 0 0 0-6.042366-8.917458l-78.165084-45.124909a18.010226 18.010226 0 0 1-8.531775-19.693206l43.628926-89.607013-148.137327 9.279766-86.229364 168.298028c-5.738495 23.643535-1.273923 40.905771 19.552958 52.359387l52.394449 30.772826 24.847333 14.679328a26.880935 26.880935 0 0 0 27.184807 0.105187l165.247626-96.105187a11.991234 11.991234 0 0 0 5.960555-10.355003v-11.102995z" fill="#DADAE5" /><path d="M708.558989 907.476991l-163.132213 94.188458a26.471877 26.471877 0 0 1-26.483565 0l-73.992695-42.717312a32.724617 32.724617 0 0 1-15.520818-35.845142l90.46019-171.149744L665.491056 731.628926l-43.628926 89.595325a18.010226 18.010226 0 0 0 8.531775 19.693207l78.165084 45.124909a12.376917 12.376917 0 0 1 0 21.434624z" fill="#EAEAEF" /><path d="M874.379296 648.239591L227.121443 1021.943024c-11.839299 3.833455-26.880935-3.506209-28.996347-25.712199L144.842408 438.276114c-2.115413-22.20599 3.938641-45.078159 21.329437-54.708546L813.453072 9.805698c10.191381-6.813733 25.712199-3.938641 27.336742 9.279766 0.596056 4.791819 1.051863 10.097882 1.659606 16.362308l53.259313 558.04821c2.115413 22.217677-7.433163 46.71439-21.329437 54.743609z" fill="#232323" /><path d="M630.393905 840.917458a18.010226 18.010226 0 0 1-8.531775-19.693207L665.491056 731.628926 519.889888 751.953251l-90.46019 171.149744a32.724617 32.724617 0 0 0 15.520818 35.845142l3.611395 2.080351 195.178963-112.432432z" fill="#C5C5D1" /><path d="M198.37053 999.070855c1.975164 20.65157 15.672754 30.387144 30.609204 21.796932l643.529584-371.541271c14.948137-8.625274 25.466764-32.362308 23.468225-53.013879l-9.349891-97.472608L189.067389 901.598247z" fill="#DDDDE8" /><path d="M853.926411 477.557341L219.022101 844.154858 176.772283 421.025566 811.664906 54.42805l42.261505 423.129291z" fill="#333333" /></svg>