<?xml version="1.0" standalone="no"?><!DOCTYPE svg PUBLIC "-//W3C//DTD SVG 1.1//EN" "http://www.w3.org/Graphics/SVG/1.1/DTD/svg11.dtd"><svg class="icon" width="200px" height="133.94px" viewBox="0 0 1529 1024" version="1.1" xmlns="http://www.w3.org/2000/svg"><path d="M1160.575353 264.080157l-0.258119-16.243041a8.49948 8.49948 0 0 0-12.68469-7.374819l-71.793868 40.911811a4.461766 4.461766 0 0 0 3.890217 8.020117z" fill="#633E25" /><path d="M1156.740446 251.985452a14.380898 14.380898 0 0 0-0.774356-4.812069 1.843705 1.843705 0 0 0-2.562749-0.977164l-152.087217 87.797227c-20.92605 12.094704-57.505155 10.564429-81.676126-3.392417-23.267556-13.422172-26.54935-33.481681-8.112302-45.742318-19.690768 12.186889-16.74084 32.762636 6.987642 46.4798 24.170971 13.956846 60.731639 15.468684 81.676126 3.37398l79.611177-45.963563a1.843705 1.843705 0 0 1 1.843705 0 3.779595 3.779595 0 0 0 3.392417 0.165933l70.669209-22.124458a1.843705 1.843705 0 0 0 1.235282-1.714646z" fill="#6D4429" /><path d="M1520.44811 661.361686v-16.814589l-15.634618 5.457367 15.634618 11.357222z" fill="#3F2C21" /><path d="M1529.426952 631.03274l-4.019276 1.401216c-4.553951-8.536354-12.905934-16.777714-25.129698-23.80223L741.464358 170.530571c-35.251637-20.280754-88.497835-22.566948-119.103336-4.94113L22.124459 512.187523l886.379561 511.812477 600.328749-346.616519c13.717164-7.927931 20.465124-18.437049 20.594183-29.499278z" fill="#3F2C21" /><path d="M1508.832769 660.052655L908.50402 1006.669174 22.124459 494.83826l600.328748-346.616519c30.531753-17.625819 83.851698-15.413373 119.103336 4.941129L1500.277978 591.282463c35.251637 20.354502 39.086544 51.144374 8.554791 68.770192z" fill="#664327" /><path d="M1497.862725 537.188161v104.114015L885.273339 995.514759V838.523288l612.589386-301.335127z" fill="#FAFAFC" /><path d="M899.598926 937.677737L1497.862725 592.019945v-54.831784L899.598926 831.480336v106.197401z" fill="#E2E2ED" /><path d="M1529.371641 509.366655v-15.063069l-2.138697 1.179971h-2.120261c-4.627699-8.333546-12.905934-16.390536-24.834705-23.267556L741.464358 34.188594c-35.251637-20.280754-88.497835-22.548511-119.103336-4.922692L22.124459 375.863984l886.379561 511.79404 600.328749-346.616519c14.583706-8.407294 21.294791-19.819828 20.538872-31.67485z" fill="#3F2C21" /><path d="M1508.832769 523.710679L908.50402 870.235012 22.124459 358.514721l600.328748-346.616519c30.531753-17.625819 83.851698-15.413373 119.103336 4.941129l758.721435 438.101155c35.251637 20.354502 39.086544 51.144374 8.554791 68.770193z" fill="#593923" /><path d="M449.292444 244.463137l38.017195 4.443328h0.092185L464.613632 235.650227l9.753199-5.531115 38.127817 21.9954-10.251 5.918292-38.017194-4.461765h-0.092186l22.861941 13.219364-9.753199 5.641737-38.201565-22.050711zM492.36139 232.681862a11.209726 11.209726 0 0 1-2.913054-5.899855 8.739161 8.739161 0 0 1 0.294993-3.152736 11.504718 11.504718 0 0 1 1.843705-3.097424 23.138496 23.138496 0 0 1 5.752359-4.646136 36.708164 36.708164 0 0 1 8.020117-3.300232 39.141855 39.141855 0 0 1 5.383618-1.032475 47.936327 47.936327 0 0 1 5.383618-0.18437 45.115459 45.115459 0 0 1 10.287873 1.696208 47.936327 47.936327 0 0 1 8.868221 3.798032 28.577426 28.577426 0 0 1 6.618901 5.143937 11.375659 11.375659 0 0 1 3.005239 5.918293 9.587265 9.587265 0 0 1-0.331867 3.06055 11.855022 11.855022 0 0 1-1.843705 3.134298 23.396615 23.396615 0 0 1-5.75236 4.646136 38.939047 38.939047 0 0 1-8.112301 3.355543 42.073346 42.073346 0 0 1-5.420492 1.050912 42.847702 42.847702 0 0 1-5.346745 0.165934 41.372738 41.372738 0 0 1-10.195688-1.714646 44.248917 44.248917 0 0 1-8.86822-3.853343 28.983041 28.983041 0 0 1-6.674212-5.088626z m21.589784 1.843705a22.880378 22.880378 0 0 0 5.531115 1.12466 17.146455 17.146455 0 0 0 5.236122-0.368741 15.081506 15.081506 0 0 0 3.68741-1.456527 9.513517 9.513517 0 0 0 2.507438-2.064949 3.68741 3.68741 0 0 0 0.62686-3.06055 8.001679 8.001679 0 0 0-1.954327-3.171173 26.770595 26.770595 0 0 0-4.093025-3.023676 33.186688 33.186688 0 0 0-5.236122-2.304631 24.170971 24.170971 0 0 0-5.531115-1.12466 15.800551 15.800551 0 0 0-8.86822 1.843705q-3.68741 2.194009-3.097424 5.143937a7.24576 7.24576 0 0 0 1.972764 3.171172 17.718004 17.718004 0 0 0 4.037714 3.005239 28.024314 28.024314 0 0 0 5.18081 2.286194zM551.783999 185.28021l8.573227 4.959566-11.818148 6.821708 29.499278 17.05427-9.771636 5.641737-29.499278-17.05427-11.818148 6.821708-8.573228-4.867381zM586.519399 165.2207l8.591665 4.959567-21.497599 12.352822 6.194848 3.576788 19.100783-11.06223 8.573227 4.94113-19.100782 11.062229 6.194848 3.576787 21.497599-12.408133 8.573228 4.941129-31.342983 18.04987-38.035632-21.940088zM606.929212 153.457863c2.120261-1.198408 4.388018-2.323068 6.803271-3.392417 1.272156-0.516237 2.599624-0.977164 3.963965-1.401215a36.874098 36.874098 0 0 1 3.68741-0.774357 20.280754 20.280754 0 0 1 6.43453 0.202808 21.811029 21.811029 0 0 1 5.531115 2.194009 8.222924 8.222924 0 0 1 3.68741 3.68741 3.927091 3.927091 0 0 1-0.848105 4.277395 23.212245 23.212245 0 0 1 8.038554-0.903415 15.43181 15.43181 0 0 1 6.489841 1.843704 13.938409 13.938409 0 0 1 4.240521 3.539914 4.00084 4.00084 0 0 1 0.571549 3.68741 8.130739 8.130739 0 0 1-1.198408 2.064949 18.437049 18.437049 0 0 1-2.175572 2.138698 42.405212 42.405212 0 0 1-5.291433 3.68741l-16.206166 9.347583-38.035632-21.958525z m10.232562 11.06223l3.576788-2.06495a36.98472 36.98472 0 0 0 3.24492-1.972764 7.817309 7.817309 0 0 0 1.75152-1.62246q0.829667-1.290593-0.94029-2.323069a5.531115 5.531115 0 0 0-4.000839-0.4978 14.159654 14.159654 0 0 0-2.820869 1.032475c-1.198408 0.589986-2.341505 1.179971-3.429291 1.843705l-3.576787 2.064949z m14.749639 8.536353l4.535514-2.618061a36.874098 36.874098 0 0 0 3.18961-1.954327 6.452967 6.452967 0 0 0 1.843705-1.604023c0.571549-0.866541 0.258119-1.659334-0.94029-2.359942a5.531115 5.531115 0 0 0-4.056151-0.516238 13.237801 13.237801 0 0 0-2.765557 1.032475q-1.843705 0.884978-3.429291 1.843705L625.735002 169.627155zM640.281833 147.281452a11.209726 11.209726 0 0 1-2.913053-5.899856 8.610102 8.610102 0 0 1 0.294992-3.134298 10.804111 10.804111 0 0 1 1.75152-3.115861 22.917252 22.917252 0 0 1 5.770796-4.646137 36.874098 36.874098 0 0 1 8.00168-3.263357 39.676529 39.676529 0 0 1 5.383618-1.032475 48.212883 48.212883 0 0 1 5.383618-0.184371 45.097022 45.097022 0 0 1 10.30631 1.696209 47.715082 47.715082 0 0 1 8.849784 3.798032 28.688048 28.688048 0 0 1 6.637337 5.143937 11.523156 11.523156 0 0 1 3.005239 5.918292 9.107902 9.107902 0 0 1-0.350303 3.06055 11.781274 11.781274 0 0 1-1.843705 3.134299 23.673171 23.673171 0 0 1-5.75236 4.646136 37.961884 37.961884 0 0 1-8.112301 3.355543 34.053229 34.053229 0 0 1-10.767237 1.216845 41.372738 41.372738 0 0 1-10.195688-1.714645 44.783592 44.783592 0 0 1-8.86822-3.834906 29.499278 29.499278 0 0 1-6.582027-5.143937z m21.589785 1.843705a23.80223 23.80223 0 0 0 5.531114 1.143097 16.593344 16.593344 0 0 0 5.236122-0.387178 14.93401 14.93401 0 0 0 3.68741-1.456527 9.31071 9.31071 0 0 0 2.525876-2.06495 3.68741 3.68741 0 0 0 0.626859-3.06055 8.204487 8.204487 0 0 0-2.028075-3.171172 26.770595 26.770595 0 0 0-4.093025-3.023676 35.251637 35.251637 0 0 0-5.254559-2.304631 23.820667 23.820667 0 0 0-5.531115-1.12466 15.800551 15.800551 0 0 0-8.86822 1.843705q-3.68741 2.175572-3.097424 5.143936A7.208886 7.208886 0 0 0 652.67153 143.815287a17.847063 17.847063 0 0 0 4.056151 3.005239 26.973403 26.973403 0 0 0 5.162374 2.304631zM680.880215 123.847963a11.191289 11.191289 0 0 1-2.913054-5.844545 8.646976 8.646976 0 0 1 0.294993-3.134298 10.804111 10.804111 0 0 1 1.75152-3.115861 24.11566 24.11566 0 0 1 5.844544-4.719885 38.865299 38.865299 0 0 1 8.001679-3.300232 39.639655 39.639655 0 0 1 5.383619-1.014037 48.212883 48.212883 0 0 1 5.383618-0.184371 44.119858 44.119858 0 0 1 10.30631 1.696209 46.092622 46.092622 0 0 1 8.849784 3.798032 28.688048 28.688048 0 0 1 6.637337 5.143936 11.449407 11.449407 0 0 1 3.005239 5.918293 9.107902 9.107902 0 0 1-0.350304 3.06055 12.076267 12.076267 0 0 1-1.843705 3.134299 24.207845 24.207845 0 0 1-5.752359 4.646136 39.953085 39.953085 0 0 1-8.112301 3.355543 33.905733 33.905733 0 0 1-10.767237 1.216845 41.372738 41.372738 0 0 1-10.232562-1.75152 44.820466 44.820466 0 0 1-8.86822-3.853343 28.983041 28.983041 0 0 1-6.618901-5.051751z m21.589784 1.843705a23.820667 23.820667 0 0 0 5.531115 1.12466 16.593344 16.593344 0 0 0 5.236122-0.387178 14.251839 14.251839 0 0 0 3.68741-1.456527 8.99728 8.99728 0 0 0 2.525875-2.06495 3.68741 3.68741 0 0 0 0.62686-3.042113 8.001679 8.001679 0 0 0-1.954327-3.171172 25.590624 25.590624 0 0 0-4.093025-3.023676 31.822346 31.822346 0 0 0-5.254559-2.304631 23.80223 23.80223 0 0 0-5.531115-1.143097 15.653054 15.653054 0 0 0-8.86822 1.843705q-3.68741 2.157135-3.097424 5.143936a7.37482 7.37482 0 0 0 1.954327 3.097424 18.787353 18.787353 0 0 0 4.05615 2.986802 26.99184 26.99184 0 0 0 5.162374 2.396817zM720.040507 88.135399l12.905934 7.467005-1.345905-14.159654 11.836586-6.821708L745.409886 92.19155l38.017195 3.466165-11.855023 6.858582-25.314068-2.212446 0.387178 3.18961 11.523156 6.655774-9.771636 5.641737-38.10938-22.013836z" fill="#775137" /><path d="M1156.500765 244.481574l-154.68684 89.235316c-20.944488 12.076267-57.505155 10.564429-81.694564-3.392417-24.170971-13.956846-26.789032-35.030393-5.862981-47.161971l146.50079-84.570743a16.372099 16.372099 0 0 1 16.390536 0z" fill="#633E25" /><path d="M999.398671 870.013768l-71.259194 41.133056 18.437049 10.61974a91.761192 91.761192 0 0 1 41.999598 52.545589l15.044632 48.747558L1074.879949 981.926654l-17.55207-52.1031A91.761192 91.761192 0 0 0 1015.881393 879.453537z" fill="#FFBE2E" /><path d="M908.50402 870.235012L22.124459 358.514721s-22.124459 7.891057-22.124459 80.606778c0 62.261914 22.124459 73.268832 22.124459 73.268832l0.165933-0.092185L908.50402 1024v-17.99456c-4.701447-8.315109-11.56003-26.014676-11.560029-58.519193 0-36.468483 6.655775-52.91433 11.560029-60.086342z" fill="#4C301D" /><path d="M898.769259 947.043758c-0.18437-37.29815 8.49948-54.85022 13.440608-61.764114l-3.37398-15.044632S886.822051 878.070758 886.822051 950.565234c0 62.059107 21.976962 73.047588 21.976962 73.047588l2.544313-18.529234c-4.664573-8.038553-12.37126-17.349263-12.574067-58.03983z" fill="#3F2C21" /><path d="M1076.354913 194.46186a16.372099 16.372099 0 0 0-16.390536 0l-146.50079 84.58918c-20.92605 12.076267-18.30799 33.186688 5.862981 47.143534 24.189408 13.956846 60.842261 15.487121 81.694564 3.392417l151.1838-87.262552a5.531115 5.531115 0 0 1 6.840146 0.977163s0-0.276556-0.884979-1.198408a8.444168 8.444168 0 0 0-1.714645-1.419653z" fill="#7F4E2D" /><path d="M986.713982 299.682098v-4.148336h-1.659335a16.796152 16.796152 0 0 0-5.531114-4.867381c-9.753199-5.641737-25.55375-5.641737-35.306949 0a16.796152 16.796152 0 0 0-5.531115 4.867381h-1.93589v4.68301h0.221245c-0.276556 3.890217 2.120261 7.835746 7.264197 10.804111 9.753199 5.6233 25.55375 5.6233 35.306949 0 5.346744-3.115861 7.743561-7.264197 7.172012-11.338785z" fill="#F2A814" /><path d="M936.878639 296.160622a24.963764 14.417772 0 1 0 49.927528 0 24.963764 14.417772 0 1 0-49.927528 0Z" fill="#FFBE2E" /></svg>