<?xml version="1.0" standalone="no"?><!DOCTYPE svg PUBLIC "-//W3C//DTD SVG 1.1//EN" "http://www.w3.org/Graphics/SVG/1.1/DTD/svg11.dtd"><svg class="icon" width="200px" height="200.00px" viewBox="0 0 1024 1024" version="1.1" xmlns="http://www.w3.org/2000/svg"><path d="M782.940445 602.104633L152.070509 966.264434C136.643266 975.213333 124.125788 965.756598 124.125788 945.182365V420.958053c0-20.587958 12.517478-44.483715 27.944721-53.405164L782.940445 3.351912c15.440969-8.907723 27.944722 0.549012 27.944721 21.13697v524.224313c-0.054901 20.574233-12.558654 44.483715-27.944721 53.391438z" fill="#E4EAF7" /><path d="M803.336248 420.985503l-3.376425 1.948994c-3.623481 2.099972-6.560696-0.123528-6.560696-4.954836V134.51093c0-4.831307 2.937215-10.458683 6.560696-12.544929l3.376425-1.962719c3.637206-2.086246 6.574421 0.137253 6.574422 4.96856v283.468732c0 4.831307-2.937215 10.444957-6.574422 12.544929z" fill="#E4EAF7" /><path d="M838.074996 637.227689L207.259962 1001.428667c-15.427243 8.907723-27.944722-0.549012-27.944722-21.123245V456.081109c0-20.587958 12.517478-44.483715 27.944722-53.405163L838.074996 38.433792c15.440969-8.907723 27.944722 0.549012 27.944722 21.13697v524.265489c0 20.574233-12.503753 44.483715-27.944722 53.391438z" fill="#EEF2FB" /><path d="M858.539427 456.10856l-3.390151 1.948993c-3.623481 2.099972-6.560696-0.123528-6.560696-4.954835V169.56536c0-4.831307 2.937215-10.458683 6.560696-12.544929l3.390151-1.962719c3.623481-2.086246 6.560696 0.137253 6.560696 4.96856v283.537358c0 4.831307-2.937215 10.444957-6.560696 12.54493z" fill="#EEF2FB" /><path d="M872.868645 669.399805l-608.483962 351.367817c-14.891956 8.592041-26.9565-0.535287-26.9565-20.382078V494.662942c0-19.860517 12.064543-42.91903 26.9565-51.511071l608.483962-351.367817c14.891956-8.592041 26.9565 0.535287 26.9565 20.382079v505.722601c0 19.846792-12.064543 42.91903-26.9565 51.511071z" fill="#F7F8FC" /><path d="M892.605634 494.690393l-3.266622 1.880367c-3.499953 2.01762-6.327366-0.123528-6.327366-4.790132V218.235292c0-4.666604 2.827413-10.088099 6.327366-12.105719l3.266622-1.880367c3.499953-2.01762 6.327366 0.123528 6.327366 4.790132v273.545336c0 4.666604-2.827413 10.156726-6.327366 12.105719zM899.825145 125.150271L237.428183 507.59218v-12.929238c0-19.860517 12.064543-42.91903 26.9565-51.511071l608.483962-351.367817c14.891956-8.592041 26.9565 0.535287 26.9565 20.382079z" fill="#D6DDEE" /><path d="M270.068467 474.672565a8.866547 15.358617 30 1 0 15.358616-26.601904 8.866547 15.358617 30 1 0-15.358616 26.601904Z" fill="#FF5450" /><path d="M306.283187 453.755164a8.866547 15.358617 30 1 0 15.358617-26.601904 8.866547 15.358617 30 1 0-15.358617 26.601904Z" fill="#FFD72E" /><path d="M341.517602 433.405977a8.866547 15.358617 30 1 0 15.358617-26.601904 8.866547 15.358617 30 1 0-15.358617 26.601904Z" fill="#44E257" /><path d="M564.859068 584.193109l-291.113727 168.08009V544.89756l291.113727-168.066364v207.361913z" fill="#D6DDEE" /><path d="M838.253425 272.463974l-224.916579 129.855114a12.105719 12.105719 0 0 1-18.158579-10.486133 12.105719 12.105719 0 0 1 6.05286-10.472408l224.930304-129.86884a12.105719 12.105719 0 0 1 18.144854 10.486134 12.119445 12.119445 0 0 1-6.05286 10.486133zM840.106341 491.039462L291.794118 807.61363a12.105719 12.105719 0 0 1-18.158579-10.486134 12.119445 12.119445 0 0 1 6.052859-10.486133l548.312224-316.560443a12.105719 12.105719 0 0 1 18.158579 10.472408 12.078269 12.078269 0 0 1-6.05286 10.486134zM698.378838 637.529646l-406.58472 234.702721a12.105719 12.105719 0 0 1-18.158579-10.472408 12.119445 12.119445 0 0 1 6.052859-10.486133l406.584721-234.702722a12.105719 12.105719 0 0 1 18.158579 10.486134 12.078269 12.078269 0 0 1-6.05286 10.472408zM840.106341 615.91229L291.794118 932.486458a12.105719 12.105719 0 0 1-18.158579-10.486133 12.078269 12.078269 0 0 1 6.052859-10.472408l548.312224-316.574168a12.105719 12.105719 0 0 1 18.158579 10.486133 12.078269 12.078269 0 0 1-6.05286 10.472408zM838.253425 334.33765L613.336846 464.192764a12.105719 12.105719 0 0 1-18.158579-10.486133 12.105719 12.105719 0 0 1 6.05286-10.472408l224.930304-129.855114a12.091994 12.091994 0 0 1 18.144854 10.541035 12.119445 12.119445 0 0 1-6.05286 10.417506zM759.415271 442.108748l-146.572536 84.616508a12.091994 12.091994 0 0 1-18.158579-10.472408 12.119445 12.119445 0 0 1 6.05286-10.486134l146.586261-84.630232a12.091994 12.091994 0 0 1 18.144854 10.486133 12.119445 12.119445 0 0 1-6.05286 10.486133zM836.647565 397.515231l-35.507365 20.505606a12.105719 12.105719 0 0 1-18.199755-10.486133 12.078269 12.078269 0 0 1 6.052859-10.472408l35.507365-20.505606a12.105719 12.105719 0 0 1 18.199755 10.499858 12.105719 12.105719 0 0 1-6.052859 10.458683z" fill="#CBCDE2" /></svg>