<?xml version="1.0" standalone="no"?><!DOCTYPE svg PUBLIC "-//W3C//DTD SVG 1.1//EN" "http://www.w3.org/Graphics/SVG/1.1/DTD/svg11.dtd"><svg class="icon" width="200px" height="200.00px" viewBox="0 0 1024 1024" version="1.1" xmlns="http://www.w3.org/2000/svg"><path d="M336.220876 919.942728a180.217611 104.057272 0 1 0 360.435221 0 180.217611 104.057272 0 1 0-360.435221 0Z" fill="#FFD008" /><path d="M704.557376 477.784897a23.760885 23.760885 0 0 1-12.008802-44.212931l55.736817-32.574947A140.483022 140.483022 0 0 0 817.68543 280.096047V65.520711l-101.504332 57.048943a23.760885 23.760885 0 0 1-23.290231-41.474582l136.917463-76.916237a23.775147 23.775147 0 0 1 35.413131 20.723029v255.194183a188.175938 188.175938 0 0 1-92.932728 161.919162l-55.751079 32.574947a23.718098 23.718098 0 0 1-11.980278 3.194741z" fill="#FFE10B" /><path d="M226.273301 165.969637v236.425082a327.432408 327.432408 0 0 0 165.869802 284.802585L460.359376 725.947798l0.185409 0.099836a34.728544 34.728544 0 0 1 17.884844 30.164628v129.130282c0 9.82668 10.682415 22.919413 36.710994 22.919413 24.802028 0 36.725257-13.092732 36.725257-22.919413v-136.161564a26.228251 26.228251 0 0 1 13.634698-22.819577l0.142622-0.071311 70.612329-39.435082a327.44667 327.44667 0 0 0 167.766679-285.91504V165.969637z" fill="#FFC50D" /><path d="M226.273301 167.224714a288.867322 167.224714 0 1 0 577.734645 0 288.867322 167.224714 0 1 0-577.734645 0Z" fill="#FFE10B" /><path d="M262.741838 162.917519a252.398785 146.102343 0 1 0 504.797571 0 252.398785 146.102343 0 1 0-504.797571 0Z" fill="#FFBF0B" /><path d="M712.04505 342.635951l21.963843 38.693445 49.104877-20.109752-35.527229 60.514666 8.386195 51.629293-43.927686-1.312125-43.913424 52.014373 8.386195-61.313351-35.541492-19.467952 49.104878-36.596897 21.963843-64.0517z" fill="#F9BB0D" /><path d="M776.111013 367.480765l-49.104878 20.109753-18.940249-33.35937-17.984679 52.456503-6.517842 4.863423-0.470654 1.397699-41.303434 30.777905 34.728544 19.025822-8.058164 58.903034 36.582635-43.342935 5.448174-6.232597 1.554584-0.028524 35.869523 1.069667-7.33079-45.125713 35.52723-60.514667z" fill="#FFDD12" /><path d="M266.678215 677.827015a107.622831 107.622831 0 0 1-55.037968-15.24633A106.966768 106.966768 0 0 1 158.77014 569.747792V402.551603a23.746622 23.746622 0 0 1 12.194211-20.751553l122.740801-68.458731a23.760885 23.760885 0 1 1 23.147608 41.517368L206.306171 416.457283v153.290509A60.400568 60.400568 0 0 0 295.687602 622.760523c0.356556-0.199671 0.713112-0.38508 1.08393-0.556228l39.064264-18.797626a23.760885 23.760885 0 1 1 20.608931 42.786707l-38.508037 18.540906a107.694142 107.694142 0 0 1-51.258475 13.092733z" fill="#FFE10B" /></svg>