<?xml version="1.0" standalone="no"?><!DOCTYPE svg PUBLIC "-//W3C//DTD SVG 1.1//EN" "http://www.w3.org/Graphics/SVG/1.1/DTD/svg11.dtd"><svg class="icon" width="200px" height="141.53px" viewBox="0 0 1447 1024" version="1.1" xmlns="http://www.w3.org/2000/svg"><path d="M598.200767 1011.094488L11.885832 672.584025c-17.568695-10.144043-15.368135-27.873754 4.91995-39.57429l764.166661-441.203241c20.288085-11.718427 50.988575-12.988668 68.55727-2.844626l586.314935 338.510463c17.568695 10.144043 15.368135 27.873754-4.91995 39.592181l-764.166662 441.18535c-20.288085 11.718427-50.988575 12.988668-68.557269 2.844626z" fill="#8F95AB" /><path d="M598.200767 952.681261L11.885832 614.170798c-17.568695-10.144043-15.368135-27.873754 4.91995-39.592181l764.166661-441.18535C801.260529 121.65695 831.943127 120.404599 849.529713 130.602314l586.314935 338.45679c17.568695 10.144043 15.368135 27.873754-4.91995 39.57429L666.758036 949.836635c-20.288085 11.718427-50.988575 12.988668-68.557269 2.844626z" fill="#ADB8D0" /><path d="M598.200767 890.833015L11.885832 552.322552C-5.682863 542.089056-3.553866 524.448798 16.805782 512.730371L780.972443 71.562912c20.288085-11.718427 50.988575-12.988668 68.55727-2.844626l586.314935 338.492572c17.568695 10.144043 15.368135 27.855863-4.91995 39.57429L666.758036 887.988389c-20.288085 11.700536-50.988575 12.988668-68.557269 2.844626z" fill="#C7CEE2" /><path d="M598.200767 828.966878L11.885832 490.456415C-5.682863 480.312372-3.553866 462.600551 16.805782 450.846343L780.972443 9.696775c20.288085-11.718427 50.988575-12.988668 68.55727-2.844626L1435.844648 345.291049c17.568695 10.144043 15.368135 27.855863-4.91995 39.57429L666.758036 826.122252c-20.288085 11.718427-50.988575 12.952887-68.557269 2.844626z" fill="#F5F8FC" /><path d="M265.987841 552.662476l-80.11468-46.247532 156.042929-90.115596 80.114679 46.265422-156.042928 90.097706zM580.632072 553.181307l-77.091146-44.512131 156.060819-90.097706 77.073256 44.512131-156.042929 90.097706zM818.149376 508.043l-77.091147-44.512131 156.06082-90.097705 77.073256 44.512131-156.042929 90.097705z" fill="#E4E9F4" /><path d="M186.284648 508.150345l-82.977196-47.91137L802.584443 56.516809l82.959305 47.91137-699.2591 403.722166z" fill="#C7CEE1" /><path d="M1277.529596 598.391176L1034.108353 457.823727c-10.734437-6.15441-20.592228-7.979265-29.090324-6.064957l-1.359695 0.429378c-0.572503 0.161017-1.145007 0.322033-1.789073 0.518831l-20.967933 6.422771c-15.779622 4.257993-26.263589 21.719344-26.263589 48.483873v260.900485c0 41.649615 25.333271 90.026143 56.552591 108.059997l243.474916 140.567449c10.466076 6.047066 20.252304 7.889811 28.625165 6.136519l0.304142-0.089453a28.625165 28.625165 0 0 0 4.061195-1.21657l20.574338-6.208082c15.511261-4.490573 25.780539-21.86247 25.780538-48.304966V706.451173c0.071563-41.649615-25.243817-90.026143-56.481028-108.059997z" fill="#4CC923" /><path d="M1011.261893 876.645667l243.474916 140.56745c31.237211 18.033854 56.552591-1.109225 56.552591-42.75884V713.446447c0-41.631724-25.31538-90.008252-56.552591-108.042105l-243.474916-140.56745c-31.21932-18.033854-56.552591 1.109225-56.552591 42.740949v260.936267c0 41.649615 25.333271 90.026143 56.552591 108.131559z" fill="#75E23B" /><path d="M1102.62984 763.934082l46.319095 26.746638 42.848293-24.742877a126.541118 126.541118 0 0 0-31.934949-27.265469l-57.250329-33.044175C1091.448136 699.080193 1082.413318 683.425806 1082.413318 670.419247v-0.429378c0-12.917106 9.08849-18.159089 20.270195-11.718426l96.60993 55.783289c13.954768 8.050828 25.243817 1.520712 25.243817-14.580943S1213.194539 663.746005 1199.239771 655.74885l-96.609931-55.78329c-39.037568-22.542317-70.77572-4.204321-70.775719 40.862423v0.447268c0 45.048853 31.738151 100.04495 70.775719 122.658831z" fill="#FFFFFF" /><path d="M1199.633367 777.924631l-37.176932 20.681681c9.947245 7.156291 17.676039 21.468873 17.676039 33.401989 0 12.899215-9.08849 18.159089-20.162851 11.754209L1062.572501 787.192028c-13.901096-8.032937-25.190145-1.574384-25.261708 14.455708s11.217486 35.674111 25.154363 43.796502l97.486577 56.731498c39.019678 22.524426 70.77572 4.204321 70.775719-40.862422-0.089454-27.820082-12.809761-58.019631-31.094085-83.388683z" fill="#FFFFFF" /></svg>