<?xml version="1.0" standalone="no"?><!DOCTYPE svg PUBLIC "-//W3C//DTD SVG 1.1//EN" "http://www.w3.org/Graphics/SVG/1.1/DTD/svg11.dtd"><svg class="icon" width="200px" height="138.38px" viewBox="0 0 1480 1024" version="1.1" xmlns="http://www.w3.org/2000/svg"><path d="M1479.985699 376.799693l-6.637089-48.927498c1.45829-12.619817-4.711398-24.024392-17.59296-29.334064L737.248703 2.935276c-19.312994-7.983203-46.590495 0.897409-60.780778 19.855179l-146.539446 195.616512-516.010298 414.247832c-10.338902 8.301035-14.95682 17.667744-13.722882 25.725731l7.104489 51.133629c1.196546 6.319257 5.982728 11.797192 14.339852 15.237261l718.619123 295.715031c19.219514 7.908419 50.04926 2.075259 68.876157-13.087217l516.010297-414.247832h-0.112176L1347.99176 574.902777a60.72469 60.72469 0 0 0 11.404576-12.058936l114.232714-159.869712a36.625514 36.625514 0 0 0 6.356649-26.174436z" fill="#B0B9CC" /><path d="M733.247753 970.005879L14.62863 674.328239c-19.219514-7.908419-19.537346-26.567052-0.710449-41.67344l516.010298-414.247832L1318.07812 542.726918 802.067822 956.956053c-18.696025 15.106388-49.619251 20.958244-68.820069 13.049826z" fill="#EEF2FB" /><path d="M1279.826052 573.481879L491.620323 249.180625l38.326852-30.773658 788.187033 324.319951-38.308156 30.754961z" fill="#C8CFE3" /><path d="M1318.620305 542.95127L529.928479 218.444359l146.539446-195.653904C690.658208 3.832685 717.935709-5.047927 737.248703 2.935276l718.506947 295.602855c19.387778 7.983203 23.594384 29.801464 9.348013 48.740538z" fill="#D6DDEB" /><path d="M520.300026 420.006208l-76.410656-31.446715c-6.786657-2.785708-6.898833-9.348013-0.261744-14.713772l61.584707-49.432291c6.655785-5.328367 17.536872-7.47841 24.304833-4.599222l76.429351 31.446715c6.767961 2.785708 6.898833 9.348013 0.243049 14.713772l-61.566011 49.43229c-6.637089 5.253583-17.536872 7.403626-24.323529 4.599223zM664.876389 479.49696l-76.429351-31.446714c-6.786657-2.785708-6.898833-9.348013-0.243049-14.713772l61.584708-49.432291c6.637089-5.347063 17.536872-7.47841 24.304832-4.599222l76.410656 31.428018c6.786657 2.804404 6.898833 9.348013 0.261744 14.713772L689.181222 474.879042c-6.637089 5.347063-17.518176 7.47841-24.304833 4.617918zM809.434056 538.987712l-76.410655-31.446714c-6.786657-2.804404-6.898833-9.348013-0.261744-14.713772l61.584707-49.450987c6.655785-5.328367 17.536872-7.47841 24.304833-4.599222l76.429351 31.446715c6.767961 2.785708 6.898833 9.348013 0.243049 14.713771L833.851065 534.369794c-6.730569 5.347063-17.630352 7.403626-24.417009 4.617918zM954.01042 598.459769l-76.429351-31.446715c-6.786657-2.785708-6.898833-9.348013-0.243049-14.713772L938.922727 502.92308c6.637089-5.328367 17.536872-7.47841 24.304833-4.599222l76.410656 31.446714c6.786657 2.785708 6.898833 9.348013 0.261744 14.713772l-61.696883 49.432291c-6.524913 5.272279-17.406 7.347538-24.192657 4.543134zM1098.568087 657.950521l-76.410655-31.446714c-6.786657-2.785708-6.898833-9.348013-0.261744-14.713772l61.584707-49.432291c6.655785-5.347063 17.536872-7.47841 24.304833-4.599222l76.429351 31.428018c6.767961 2.804404 6.898833 9.348013 0.243048 14.713772l-61.566011 49.450987c-6.637089 5.328367-17.536872 7.38493-24.323529 4.599222zM401.075472 515.729857L324.646121 484.227054c-6.786657-2.785708-6.898833-9.348013-0.261744-14.713771l61.603403-49.432291c6.637089-5.328367 17.518176-7.47841 24.304833-4.599222l76.429351 31.446714c6.786657 2.785708 6.898833 9.348013 0.243049 14.713772l-61.584708 49.432291c-6.581001 5.384455-17.536872 7.441018-24.304833 4.65531z" fill="#2C2C33" /><path d="M545.63314 575.220609L469.278573 543.773895c-6.786657-2.785708-6.898833-9.348013-0.261745-14.713772l61.584708-49.432291c6.637089-5.347063 17.536872-7.47841 24.304832-4.617918l76.410656 31.446715c6.786657 2.804404 6.898833 9.348013 0.261744 14.713771l-61.584707 49.450987c-6.693177 5.328367-17.574264 7.38493-24.360921 4.599222zM690.209503 634.692666l-76.429351-31.446715c-6.786657-2.785708-6.898833-9.348013-0.261744-14.695076l61.696883-49.450986c6.637089-5.328367 17.518176-7.47841 24.304833-4.599223L775.893387 565.947381c6.786657 2.785708 6.898833 9.348013 0.243048 14.713772L714.514336 630.056052c-6.637089 5.365759-17.536872 7.47841-24.304833 4.636614zM834.767171 694.183418l-76.410656-31.446714c-6.786657-2.785708-6.898833-9.348013-0.261744-14.713772l61.584707-49.432291c6.637089-5.328367 17.536872-7.47841 24.304833-4.599222l76.410655 31.428018c6.786657 2.804404 6.898833 9.348013 0.261745 14.713772l-61.566011 49.450987c-6.655785 5.328367-17.536872 7.38493-24.323529 4.599222z" fill="#636A7C" /><path d="M979.343534 753.674171l-76.429351-31.446715c-6.786657-2.804404-6.898833-9.348013-0.261745-14.713772L964.255842 658.100089c6.637089-5.328367 17.518176-7.47841 24.304833-4.599222l76.429351 31.446715c6.786657 2.785708 6.898833 9.348013 0.243048 14.713772l-61.584707 49.43229c-6.637089 5.309671-17.536872 7.366234-24.304833 4.580527zM288.544096 606.050355l-76.410655-31.446714c-6.786657-2.785708-6.898833-9.348013-0.261744-14.713772L273.456404 510.40149c6.655785-5.328367 17.536872-7.38493 24.304833-4.599222l76.410655 31.446714c6.786657 2.785708 6.898833 9.348013 0.261744 14.713772l-61.566011 49.488379c-6.655785 5.328367-17.462088 7.403626-24.323529 4.599222z" fill="#2C2C33" /><path d="M433.12046 665.5785l-76.429351-31.446715c-6.786657-2.785708-6.898833-9.348013-0.261745-14.713772l61.696884-49.432291c6.637089-5.347063 17.518176-7.47841 24.304832-4.599222l76.429352 31.428019c6.786657 2.804404 6.898833 9.348013 0.243048 14.713772l-61.584707 49.450986c-6.730569 5.290975-17.611656 7.347538-24.398313 4.599223zM577.715519 725.03186L501.267472 693.622537c-6.786657-2.804404-6.898833-9.348013-0.261744-14.713771l61.584707-49.450987c6.655785-5.328367 17.536872-7.47841 24.304833-4.599222L663.324619 656.230487c6.786657 2.785708 6.898833 9.348013 0.261744 14.713772L602.020352 720.413942c-6.674481 5.347063-17.555568 7.403626-24.304833 4.617918zM722.254491 784.503916l-76.429352-31.446714c-6.786657-2.785708-6.898833-9.348013-0.261744-14.713772l61.603403-49.432291c6.637089-5.328367 17.518176-7.47841 24.304833-4.599222l76.429351 31.446714c6.786657 2.785708 6.898833 9.348013 0.243049 14.713772l-61.584708 49.432291c-6.637089 5.328367-17.518176 7.403626-24.304832 4.599222z" fill="#636A7C" /><path d="M169.300847 701.774004l-76.410655-31.446714c-6.786657-2.785708-6.898833-9.348013-0.261744-14.713772l61.584707-49.432291c6.655785-5.328367 17.536872-7.47841 24.304833-4.599222l76.429351 31.446715c6.767961 2.785708 6.898833 9.348013 0.243048 14.695075l-61.566011 49.450987c-6.655785 5.328367-17.536872 7.38493-24.323529 4.599222z" fill="#EA6F1C" /><path d="M313.877211 761.264757L237.447859 729.818042c-6.786657-2.785708-6.898833-9.348013-0.243048-14.713771l61.584707-49.432291c6.637089-5.347063 17.536872-7.47841 24.304833-4.617919l76.410655 31.446715c6.786657 2.785708 6.898833 9.348013 0.261745 14.713772l-61.584708 49.432291c-6.637089 5.347063-17.518176 7.403626-24.304832 4.617918zM458.434878 820.755509l-76.410655-31.446714c-6.786657-2.785708-6.898833-9.348013-0.261745-14.713772l61.584708-49.432291c6.655785-5.328367 17.536872-7.38493 24.304832-4.599222L544.062674 751.991528c6.767961 2.785708 6.898833 9.348013 0.243048 14.713772l-61.584707 49.432291c-6.599697 5.328367-17.49948 7.403626-24.286137 4.617918zM603.011241 880.227566L526.58189 848.799547c-6.786657-2.785708-6.898833-9.348013-0.243048-14.713772l61.584707-49.43229c6.637089-5.347063 17.536872-7.47841 24.304833-4.599223L688.657733 811.407497c6.786657 2.804404 6.898833 9.348013 0.261745 14.713772l-61.584708 49.450986c-6.618393 5.384455-17.536872 7.441018-24.323529 4.655311z" fill="#636A7C" /><path d="M740.800948 936.913914L677.926215 911.057311c-10.525862-4.337478-10.694126-14.564204-0.392617-22.827847l168.899892-135.583575c10.320206-8.282339 27.202717-11.47936 37.747275-7.141881l62.856037 25.856603c10.525862 4.337478 10.712822 14.564204 0.392617 22.827846l-168.899892 135.583576c-10.30151 8.282339-27.202717 11.47936-37.728579 7.141881z" fill="#2C2C33" /><path d="M349.829667 615.566632l1.888299 13.423746 172.227785-26.267915-1.757427-12.264593-172.358657 25.108762zM494.368639 676.328714l1.776122 11.47936 172.227785-26.286612-1.738731-11.273703-172.265176 26.080955zM375.200174 772.463676l1.776122 11.47936 172.227785-26.286612-1.738731-11.292399-172.265176 26.099651zM519.664361 831.43094l1.794818 11.479359 172.227785-26.267915-1.73873-11.2924-172.283873 26.080956zM638.888914 735.70729l1.794818 11.47936 172.227785-26.267916-1.757426-11.292399-172.265177 26.080955zM751.438986 645.405488l1.794818 11.47936L925.461589 630.616932l-1.757426-11.292399-172.265177 26.080955zM606.843927 585.70908l1.794818 11.479359 172.227785-26.267915-1.757427-11.2924-172.265176 26.080956zM462.323651 526.667032l1.794819 11.479359 172.227784-26.267915-1.757426-11.292399-172.265177 26.080955z" fill="#636A7C" /><path d="M896.052741 705.139289l1.794819 11.47936 172.227785-26.267916-1.757427-11.292399-172.265177 26.080955zM1015.239903 609.209983l1.794818 11.47936 172.227785-26.267916-1.757427-11.292399-172.265176 26.080955zM870.663539 549.663143l1.794819 11.479359 172.227784-26.267915-1.757426-11.292399L870.663539 549.663143zM726.124568 490.191087l1.776122 11.479359 172.227785-26.267915-1.73873-11.2924-172.265177 26.080956zM581.5669 430.868598l1.776123 11.460664 172.227785-26.267916-1.738731-11.292399-172.265177 26.099651zM436.990537 371.041317l1.776122 11.47936 172.227785-26.286612-1.73873-11.273703-172.265177 26.080955zM317.747288 466.989319l1.776122 11.47936 172.227785-26.267916-1.73873-11.292399-172.265177 26.080955zM205.197216 557.104161l1.794818 11.479359 172.227785-26.286611-1.757426-11.273703-172.265177 26.080955zM668.26037 890.809516l1.776122 11.479359 172.227785-26.267915-1.738731-11.292399-172.265176 26.080955zM780.941314 794.97369l1.794818 11.47936 172.227785-26.267916-1.757426-11.292399-172.265177 26.080955z" fill="#2C2C33" /><path d="M85.991359 651.799529l1.794818 12.825473 39.635574 10.338902-13.068522-19.275602-21.126509-4.019645-7.235361 0.130872zM258.256535 626.073798l1.869603 12.395465-3.870077 0.766537-5.907944-2.542659s3.608333-7.945811 3.627029-8.020595 4.28139-2.598748 4.281389-2.598748z" fill="#EA6F1C" /><path d="M230.511634 710.953753l1.869602 13.423746 172.227785-26.286611-1.73873-12.245897-172.358657 25.108762z" fill="#636A7C" /><path d="M518.505207 408.339888l-76.429351-31.446715c-6.786657-2.785708-6.898833-9.348013-0.243048-14.713771l61.584707-49.432291c6.637089-5.328367 17.536872-7.47841 24.304833-4.599223l76.429351 31.446715c6.786657 2.785708 6.898833 9.348013 0.261744 14.713772L542.81004 403.834146c-6.637089 5.234887-17.443392 7.29145-24.304833 4.505742zM663.062875 467.83064l-76.410656-31.446714c-6.786657-2.785708-6.898833-9.348013-0.261744-14.713772l61.584707-49.432291c6.655785-5.347063 17.536872-7.47841 24.304833-4.617918l76.410655 31.446714c6.786657 2.785708 6.898833 9.348013 0.261745 14.713772l-61.584708 49.432291c-6.618393 5.347063-17.518176 7.403626-24.304832 4.617918zM807.67663 527.227913l-76.466743-31.371931c-6.786657-2.785708-6.898833-9.348013-0.243049-14.713772l61.584708-49.432291c6.637089-5.328367 17.536872-7.38493 24.304832-4.599222l76.429352 31.446715c6.786657 2.785708 6.898833 9.348013 0.261744 14.713772L831.981463 522.703474c-6.674481 5.328367-17.555568 7.403626-24.304833 4.524439zM952.196905 586.793449L875.78625 555.27195c-6.786657-2.785708-6.898833-9.348013-0.261744-14.713771l61.584707-49.432291c6.655785-5.347063 17.536872-7.47841 24.304833-4.599222l76.410655 31.428018c6.786657 2.804404 6.898833 9.348013 0.261744 14.713772l-61.566011 49.525771c-6.637089 5.328367-17.536872 7.38493-24.323529 4.599222zM1096.773269 646.284201l-76.429352-31.446714c-6.786657-2.804404-6.898833-9.348013-0.243048-14.713772l61.584707-49.450987c6.637089-5.328367 17.536872-7.47841 24.304833-4.599222l76.429352 31.446715c6.786657 2.785708 6.898833 9.348013 0.261744 14.713771l-61.696884 49.432291c-6.543609 5.347063-17.424696 7.403626-24.211352 4.617918zM399.261958 504.063537l-76.429351-31.446714c-6.767961-2.785708-6.898833-9.348013-0.243049-14.713772l61.584708-49.432291c6.637089-5.347063 17.536872-7.47841 24.304833-4.617918l76.410655 31.446714c6.786657 2.804404 6.898833 9.348013 0.261744 14.713772l-61.584707 49.450987c-6.637089 5.328367-17.518176 7.38493-24.304833 4.599222z" fill="#5B5C6F" /><path d="M543.819625 563.535594L467.40897 532.107575c-6.786657-2.804404-6.898833-9.348013-0.261744-14.713772l61.603403-49.450987c6.637089-5.328367 17.518176-7.38493 24.304833-4.599222l76.429351 31.446715c6.786657 2.785708 6.898833 9.348013 0.243049 14.713772L568.143154 559.011156c-6.637089 5.272279-17.536872 7.328842-24.323529 4.524438zM688.395989 623.026346l-76.429351-31.446714c-6.767961-2.785708-6.898833-9.348013-0.243049-14.713772l61.584707-49.432291c6.637089-5.328367 17.536872-7.47841 24.304833-4.599222L774.023785 554.281061c6.786657 2.785708 6.898833 9.348013 0.261744 14.713772l-61.584707 49.432291c-6.637089 5.328367-17.518176 7.38493-24.304833 4.599222zM832.972352 682.517098l-76.429351-31.446714c-6.786657-2.785708-6.898833-9.348013-0.261744-14.713772l61.603403-49.432291c6.637089-5.347063 17.518176-7.47841 24.304833-4.617918l76.429351 31.446715c6.786657 2.804404 6.898833 9.348013 0.243048 14.713771l-61.584707 49.450987c-6.599697 5.328367-17.536872 7.38493-24.304833 4.599222z" fill="#8F95AB" /><path d="M977.53002 741.989155L901.156756 710.54244c-6.767961-2.785708-6.898833-9.348013-0.243048-14.695076l61.584707-49.450986c6.637089-5.328367 17.536872-7.38493 24.304833-4.599223l76.410655 31.446715c6.786657 2.785708 6.898833 9.348013 0.261745 14.713772l-61.584707 49.432291c-6.693177 5.328367-17.574264 7.403626-24.360921 4.599222zM286.749278 594.384035l-76.429351-31.446714c-6.786657-2.785708-6.898833-9.348013-0.261745-14.713772l61.696884-49.432291c6.637089-5.328367 17.518176-7.47841 24.304833-4.599222l76.429351 31.446714c6.786657 2.785708 6.898833 9.348013 0.243048 14.695076l-61.584707 49.450987c-6.730569 5.328367-17.611656 7.38493-24.398313 4.599222z" fill="#5B5C6F" /><path d="M431.306945 653.874788l-76.410655-31.446715c-6.786657-2.804404-6.898833-9.348013-0.261744-14.713772l61.584707-49.450986c6.637089-5.328367 17.536872-7.47841 24.304833-4.599223L516.953437 585.185591c6.786657 2.785708 6.898833 9.348013 0.261744 14.713772l-61.584707 49.357507c-6.655785 5.347063-17.536872 7.403626-24.323529 4.617918zM575.845917 713.346844l-76.429352-31.446714c-6.786657-2.785708-6.898833-9.348013-0.261744-14.713772L560.889096 617.754067c6.637089-5.328367 17.518176-7.38493 24.304833-4.599222l76.429352 31.446714c6.786657 2.785708 6.898833 9.348013 0.243048 14.713772L600.15075 708.747622c-6.599697 5.328367-17.49948 7.403626-24.304833 4.599222zM720.440976 772.837597l-76.410655-31.446715c-6.786657-2.785708-6.898833-9.348013-0.261744-14.713772l61.584707-49.432291c6.637089-5.347063 17.536872-7.47841 24.304833-4.599222l76.410655 31.428019c6.786657 2.804404 6.898833 9.348013 0.261744 14.713771l-61.584707 49.450987c-6.637089 5.328367-17.462088 7.38493-24.304833 4.599223z" fill="#8F95AB" /><path d="M167.506029 690.107685L91.076678 658.66097c-6.786657-2.785708-6.898833-9.348013-0.243049-14.713772L152.418336 594.533604c6.637089-5.347063 17.536872-7.47841 24.304833-4.617919l76.429352 31.446715c6.786657 2.804404 6.898833 9.348013 0.261744 14.713772l-61.603403 49.450987c-6.711873 5.309671-17.518176 7.366234-24.304833 4.580526z" fill="#FF8736" /><path d="M312.063696 749.579741L235.578257 718.151723c-6.786657-2.804404-6.898833-9.348013-0.261745-14.713772l61.584708-49.450987c6.655785-5.328367 17.536872-7.38493 24.304833-4.599222l76.410655 31.446714c6.786657 2.785708 6.917529 9.348013 0.261744 14.713772l-61.584707 49.432291c-6.543609 5.347063-17.443392 7.403626-24.230049 4.599222zM456.64006 809.070494l-76.429352-31.446715c-6.786657-2.785708-6.898833-9.348013-0.243048-14.713772l61.584707-49.432291c6.637089-5.328367 17.536872-7.47841 24.304833-4.599222L542.286551 740.362601c6.786657 2.785708 6.898833 9.348013 0.261745 14.713772l-61.603404 49.43229c-6.637089 5.290975-17.518176 7.347538-24.304832 4.561831zM601.197727 868.561246l-76.410655-31.446715c-6.786657-2.785708-6.898833-9.348013-0.261745-14.713771l61.584708-49.432291c6.655785-5.347063 17.536872-7.47841 24.304832-4.617919l76.410656 31.446715c6.786657 2.785708 6.917529 9.348013 0.261744 14.713772l-61.566011 49.432291c-6.674481 5.421847-17.536872 7.403626-24.323529 4.617918z" fill="#8F95AB" /><path d="M738.987433 925.247595l-62.856037-25.856603c-10.525862-4.337478-10.712822-14.564204-0.392616-22.846543l168.899892-135.583576c10.30151-8.263643 27.202717-11.460663 37.728579-7.141881l62.856037 25.875299c10.544558 4.337478 10.712822 14.545508 0.411313 22.827847l-168.899893 135.583575c-10.320206 8.282339-27.221413 11.47936-37.747275 7.141882z" fill="#5B5C6F" /><path d="M1289.660161 492.733746l-694.781691-285.862226a2.953972 2.953972 0 0 1-0.878713-4.804879l115.560132-155.569626a5.365759 5.365759 0 0 1 5.92664-2.000475l694.781691 285.880923a2.953972 2.953972 0 0 1 0.89741 4.804878L1295.64289 490.751967a5.384455 5.384455 0 0 1-5.982729 1.981779z" fill="#8F96AB" /><path d="M991.477254 319.702032l29.053624-38.102499 11.217615 13.274178L1007.7241 326.395209l-13.087217 3.271805z m4.075734 13.180698l13.21809-3.047452 39.373829 16.209454 3.365285 9.852805-13.442443 3.346589-39.373829-16.190758z m27.557941-54.648482l29.053623-38.102499 13.087218-3.271805 3.066148 9.946286L1045.116151 277.224663zM1052.594561 344.848186l24.024393-31.502802h21.238684L1068.747927 351.485275l-13.087218 3.271804z m17.050775-109.035219l13.442442-3.346589 39.317741 16.190758 3.140933 10.170638-13.12461 3.047452-39.392525-16.190758z m20.434756 59.827281l23.201767-30.399738 13.087218-3.271804 3.066148 9.927589-29.053623 38.1025zM1069.159239 372.050903l18.153841-23.818736 16.209454 6.674481-18.153841 23.80004zM1109.449174 368.311698L1138.596277 330.15311l11.217615 13.274178-24.005696 31.502803-13.087218 3.271804z m4.057037 13.180698l13.21809-3.047453 39.373829 16.209454 3.383981 9.852806-13.442442 3.365284-39.392525-16.209454z m27.576638-54.648482l29.034927-38.1025 13.087218-3.271804 3.066148 9.946285-23.183072 30.399737z m29.427543 66.595242l24.005697-31.502803h21.238685L1186.70115 400.094941l-13.087217 3.271804z m17.032079-109.03522l13.442443-3.346588 39.392525 16.209454 3.140932 10.170638-13.21809 2.916579-39.355133-16.134669z m20.453452 59.827281l23.183071-30.418433 13.087218-3.271804 3.066148 9.927589-29.053623 38.1025zM1202.910604 406.713334l29.053623-38.1025 11.217616 13.274178-24.005697 31.502803-13.087217 3.271804z m4.057038 13.180698l13.21809-3.047453 39.392525 16.209454 3.365284 9.852806-13.442442 3.365284-39.392525-16.265542z m27.576637-54.648482L1263.597902 327.180442l13.087218-3.271804 3.066148 9.946285-23.201767 30.399737zM1263.971823 431.878184l24.005696-31.502803h21.238685l-29.034927 38.083804-13.087218 3.271804z m17.032079-109.03522l13.461138-3.346588 39.373829 16.209454 3.140932 10.170637-13.292874 2.991365-39.261653-16.190758z m20.453451 59.827281l23.183072-30.418433 13.087217-3.271804 3.066149 9.927589-29.053624 38.1025z" fill="#2C2C33" /><path d="M1460.336176 421.221449l-69.47443 228.091509a64.968688 64.968688 0 0 1-29.521024 37.242482L800.871277 1011.660623l558.431579-448.816782z" fill="#69707A" /></svg>