<?xml version="1.0" standalone="no"?><!DOCTYPE svg PUBLIC "-//W3C//DTD SVG 1.1//EN" "http://www.w3.org/Graphics/SVG/1.1/DTD/svg11.dtd"><svg class="icon" width="200px" height="146.08px" viewBox="0 0 1402 1024" version="1.1" xmlns="http://www.w3.org/2000/svg"><path d="M759.610698 1015.914822L14.588945 593.050995c-19.333514-10.970802-19.468125-28.991858-0.302875-40.231881l396.766107-232.978097c13.309669-7.824268 32.256176-11.526072 50.950288-9.978045l600.954263 50.00801c48.527288 4.038332 86.538087 25.91263 93.655646 53.844425l86.352997 339.388142c2.692221 10.634274-3.365277 21.419985-16.540334 29.109642l-397.102635 233.19684c-19.182076 11.25685-50.395017 11.475593-69.711704 0.504791z" fill="#F4C076" /><path d="M1377.324038 305.403981L840.646558 3.454541A26.602511 26.602511 0 0 0 800.936294 26.927345c0.471139 48.79651-3.264318 123.051338-27.645747 158.790574-45.81824 67.120441-109.27053 93.049897-134.207229 109.371489-0.97593 0.471139-1.918208 0.97593-2.843659 1.531201l-495.621107 291.096423c-14.723085 8.648761-16.220633 21.571423-3.365276 28.874073l570.767732 323.705953c12.855356 7.30265 35.217619 6.208935 49.940704-2.439826L1253.565992 646.844941s123.859004-65.622893 133.2313-150.545647c9.422774-85.54533 12.788051-108.530169 15.530751-143.983358a49.435913 49.435913 0 0 0-25.004005-46.911955z" fill="#EEF2FB" /><path d="M954.51069 175.336041L869.924464 127.347197a13.679849 13.679849 0 0 1-0.168264-23.691547 13.663023 13.663023 0 0 1 13.663023-0.100958l84.535747 47.988844a13.679849 13.679849 0 0 1 0.18509 23.691547 13.696676 13.696676 0 0 1-13.62937 0.100958zM1305.273467 490.443713L822.54137 216.442894a13.679849 13.679849 0 0 1-0.185091-23.691547 13.696676 13.696676 0 0 1 13.67985-0.100958l482.732097 274.000818a13.679849 13.679849 0 0 1 0.18509 23.691547 13.696676 13.696676 0 0 1-13.679849 0.100959zM1222.117483 598.788792L718.487018 312.975853c-9.540559-5.418095-9.893913-18.727764-0.60575-23.943943a14.403384 14.403384 0 0 1 14.117336 0.151437l503.613638 285.812939c9.557385 5.418095 9.893913 18.727764 0.622576 23.943943a14.352905 14.352905 0 0 1-14.117335-0.151437zM1157.807048 645.044518L655.270298 359.803676c-9.523733-5.401269-9.86026-18.710938-0.588924-23.927116a14.369731 14.369731 0 0 1 14.100509 0.134611l502.53675 285.240842c9.540559 5.401269 9.86026 18.710938 0.60575 23.927116a14.403384 14.403384 0 0 1-14.117335-0.134611zM887.558513 572.102148L589.916627 403.081133a13.679849 13.679849 0 0 1-0.168264-23.691547 13.696676 13.696676 0 0 1 13.679849-0.100958l297.62506 168.936883a13.679849 13.679849 0 0 1 0.18509 23.691547 13.663023 13.663023 0 0 1-13.679849 0.18509zM935.059392 677.468958L517.580007 440.519835a13.679849 13.679849 0 0 1-0.168264-23.691547 13.663023 13.663023 0 0 1 13.67985-0.100959l417.479384 236.949123a13.679849 13.679849 0 0 1 0.168264 23.691547 13.663023 13.663023 0 0 1-13.679849 0.100959zM968.37563 773.850479L441.019965 474.509128c-10.09583-5.687317-10.634274-19.148424-1.127367-24.229991a15.143745 15.143745 0 0 1 14.622126 0.437486l527.355665 299.34135c10.09583 5.670491 10.634274 19.131597 1.127367 24.229992a15.278356 15.278356 0 0 1-14.622126-0.437486zM1053.668564 426.436152l-275.077706-156.132006a13.679849 13.679849 0 0 1-0.185091-23.691547 13.612544 13.612544 0 0 1 13.67985-0.100958l275.094533 156.132006a13.679849 13.679849 0 0 1 0.168264 23.691547 13.696676 13.696676 0 0 1-13.67985 0.100958zM1270.173632 555.780557l-172.066591-97.59302c-10.314573-5.855581-11.122239-19.434472-1.463895-24.431908a15.783147 15.783147 0 0 1 14.958654 0.639402l172.083418 97.593021c10.297746 5.855581 11.122239 19.417646 1.463895 24.431908a15.867279 15.867279 0 0 1-14.975481-0.639403z" fill="#C7CFE3" /><path d="M14.588945 593.050995l745.021753 422.863827c11.997211 6.730553 28.604851 9.30499 44.000991 7.521393L410.143553 320.362635 14.28607 552.819114c-19.16525 11.240024-19.030639 29.26108 0.302875 40.231881z" fill="#FFD782" /><path d="M759.610698 1015.914822L14.588945 593.050995c-11.997211-6.814685-16.590813-16.338418-13.780807-25.239574l1224.35492 215.142131-395.857482 232.456479c-19.16525 11.25685-50.37819 11.475593-69.694878 0.504791z" fill="#FCCD7A" /></svg>