<?xml version="1.0" standalone="no"?><!DOCTYPE svg PUBLIC "-//W3C//DTD SVG 1.1//EN" "http://www.w3.org/Graphics/SVG/1.1/DTD/svg11.dtd"><svg class="icon" width="200px" height="118.72px" viewBox="0 0 1725 1024" version="1.1" xmlns="http://www.w3.org/2000/svg"><path d="M1725.156664 302.491037v-26.33827h-12.171473l-7.981294 9.178488L1267.429462 32.922837c-10.375682-5.98597-25.939205-6.584567-34.718628-1.596259L32.723305 724.302416l-7.981294-0.598597c-1.995323 0-24.742011-3.39205-24.742011-3.39205v27.535464c-0.199532 3.990647 2.59392 8.380359 8.380359 11.772408l449.346843 259.39205c10.17615 5.98597 25.939205 6.584567 34.718628 1.396727l1226.724864-708.339829c4.389712-2.394388 6.385035-5.98597 5.98597-9.577552z" fill="#DADAE5" /><path d="M1719.170694 284.333593l-1226.724864 708.339829c-8.978956 4.988309-24.542479 4.389712-34.718628-1.396727L8.380359 731.884645c-9.976617-5.98597-11.373344-14.964926-2.394389-19.953234l1226.724864-708.339829c8.978956-5.187841 24.342946-4.589244 34.718628 1.197194l449.147311 259.39205c10.375682 5.98597 11.373344 14.964926 2.593921 19.953235z" fill="#EAEAEF" /><path d="M1344.249415 280.143414h-0.199532v0.798129l0.199532 0.199533-0.199532 0.199532v6.584567l62.05456 35.915823 168.4053-97.172253v-6.7841l-0.399065-0.399064h0.399065v-0.79813l-62.254092-35.915822-168.205768 96.97272zM439.170694 704.548714l-62.05456 35.915822v0.79813l0.199532 0.199532-0.199532 0.199532v6.584568l62.05456 35.915822 62.254092-35.915822v-6.385035l-0.399065-0.399065h0.399065v-0.798129l-62.254092-35.915823z m36.314887 180.576773l-62.254092 35.915822h0.199532v0.79813l0.199532 0.199532-0.399064 0.199533h0.199532v6.784099l62.05456 35.915823 62.254092-35.915823v-6.584567l-0.399065-0.399065h0.399065v-0.798129l-62.254092-35.915823z m79.214341-45.692907l-62.254092 35.915822h0.199532v7.981294l61.855028 35.915822 62.453624-35.915822h-0.199532v-6.7841l-0.199533-0.399064h0.399065l-0.199532-0.199533v-0.598597l-62.05456-35.915822z m83.005456-47.887763l-62.254092 35.915822v0.79813l0.399065 0.199532-0.399065 0.199532v6.7841l62.254092 35.915822 62.05456-35.915822v-6.7841l-0.199533-0.399064h0.199533v-0.79813l-62.05456-35.915822z m81.209665-46.890101l-62.254092 35.915822v0.798129l0.199532 0.199533-0.199532 0.199532v6.7841l62.254092 35.915822 62.054559-35.915822v-6.7841l-0.199532-0.399065h0.199532v-0.798129l-62.054559-35.915822z m644.489478-372.127826l-62.254092 35.915822v0.79813l0.399064 0.199532-0.399064 0.199532v6.7841l62.254092 35.915823 62.254092-35.915823h-0.199533v-6.7841l-0.199532-0.399064h0.399065l-0.199533-0.199533v-0.598597l-62.054559-35.915822z m77.817615-44.894778l-62.254092 35.915823v0.798129l0.199532 0.199532-0.199532 0.199533v6.784099l62.254092 35.915823 62.054559-35.915823v-6.784099l-0.199532-0.399065h0.199532v-0.798129l-62.054559-35.915823z m79.214341-45.892439l-61.855027 35.915822v7.981294l61.855027 35.915822 62.453624-35.915822h-0.199532v-6.7841l-0.199532-0.399065h0.399064l-0.199532-0.199532v-0.598597l-62.05456-35.915822zM1283.192518 419.017927L736.074825 734.478566h0.199532v8.180826l61.855027 35.915822 547.317226-315.859703h-0.199533v-6.7841l-0.199532-0.399065h0.399065l-0.199533-0.199532v-0.399065l-62.054559-35.915822z m-677.611848 189.555728l-62.254092 35.915823h0.199533v7.781761l62.054559 35.915823 62.254092-35.915823h-0.199532v-6.784099l-0.199532-0.199533 0.399064-0.199532h-0.199532v-0.79813l-62.05456-35.915822z m83.204989-47.887763L626.531567 596.601715v0.798129l0.399064 0.199532-0.399064 0.199533v6.584567l62.254092 35.915823 62.254092-35.915823h-0.199533v-6.7841l-0.199532-0.399064h0.399065l-0.199533-0.199533v-0.399064l-62.054559-35.915823z m83.204988-48.087295l-62.254092 35.915822v0.79813l0.399065 0.399064h-0.399065v6.584568l62.254092 35.915822 62.05456-35.915822v-6.7841l-0.199533-0.199532 0.199533-0.199533v-0.798129l-62.05456-35.915822z m83.005456-48.087295l-62.05456 35.915822v0.798129l0.199533 0.199533-0.199533 0.199532v6.584567l62.05456 35.915823 62.254092-35.915823v-6.584567l-0.399065-0.399065h0.399065v-0.798129l-62.254092-35.915822z m83.204988-47.887763l-62.254092 35.915822h0.199533v0.798129h0.199532l-0.399065 0.199533 0.199533 0.199532v6.385035l62.054559 35.915822 62.254092-35.915822h-0.199532v-7.781761l-61.855027-35.915823z m83.204989-48.087296l-62.254092 35.915822v0.598598l0.399064 0.399064h-0.399064v6.7841l62.254092 35.915822 62.254091-35.915822h-0.199532v-6.7841l-0.199532-0.199532 0.399064-0.199532h-0.199532v-0.79813l-62.054559-35.915822z m83.204988-48.087295l-62.254092 35.915822v0.798129l0.399065 0.199533-0.399065 0.199532v6.7841l62.254092 35.915822 62.054559-35.915822v-6.584568l-0.199532-0.399064h0.199532v-0.79813l-62.054559-35.915822z m83.005456-47.887763l-62.05456 35.915822v0.798129l0.199532 0.399065h-0.199532v6.584568l62.05456 35.915822 62.254092-35.915822v-6.7841l-0.399065-0.199533 0.399065-0.199532v-0.798129l-62.254092-35.915823z m-611.766173 450.943102l-62.254092 35.915822v0.79813l0.399064 0.199532-0.399064 0.199532v6.7841l62.254092 35.915822 62.054559-35.915822v-6.584567l-0.199532-0.399065h0.199532v-0.79813l-62.054559-35.915822z m83.005456-47.887763l-62.05456 35.915822v0.798129l0.199532 0.399065h-0.199532v6.584568l62.05456 35.915822 62.254092-35.915822v-6.7841l-0.399065-0.199533 0.399065-0.199532v-0.798129l-62.254092-35.915823z m83.40452-48.087296l-62.453624 35.915823h0.199532v0.798129l0.199533 0.399065-0.399065 0.199532h0.199532v6.385035l62.05456 35.915822 62.254092-35.915822h-0.199532v-7.981294l-61.855028-35.915822z m83.005456-48.087295l-62.254092 35.915822h0.199533v7.981294l61.855027 35.915822 62.453624-35.915822h-0.199532V616.554949l-0.199532-0.399064h0.399064l-0.199532-0.199533v-0.598597l-62.05456-35.915822z m83.204989-47.887763l-62.254092 35.915822v0.79813l0.399064 0.399064h-0.399064v6.584568l62.254092 35.915822 62.054559-35.915822V568.667186l-0.199532-0.199532 0.199532-0.199532v-0.79813l-62.054559-35.915822z m83.204988-48.087295l-62.254092 35.915822v0.798129l0.199532 0.199533-0.199532 0.199532v6.584567l62.05456 35.915823 62.254092-35.915823V520.779423l-0.199533-0.399064h0.199533v-0.79813l-62.254092-35.915822z m83.005456-47.887764l-62.254092 35.915823h0.199532v0.598597l0.199533 0.399064h-0.399065l0.199532 0.199533v6.385035l62.05456 35.915822 62.254092-35.915822v-6.584568l-0.399065-0.399064h0.399065v-0.79813l-62.254092-35.915822z m83.204988-48.087295l-62.254092 35.915822h0.199533v7.582229l62.054559 35.915823 62.254092-35.915823h-0.199532v-6.584567l-0.199533-0.199532 0.399065-0.199533h-0.199532v-0.798129l-62.05456-35.915822z m83.204989-48.087295l-62.254092 35.915822v0.798129l0.399064 0.199533-0.399064 0.199532v6.584567l62.254092 35.915823 62.054559-35.915823v-6.385035l-0.199532-0.399064h0.199532v-0.79813l-62.054559-35.915822z m83.005455-48.087296l-62.054559 35.915823v0.798129l0.199532 0.399065h-0.199532v6.784099l62.054559 35.915823 62.254092-35.915823v-6.784099l-0.199532-0.199533 0.199532-0.199532v-0.798129l-62.054559-35.915823zM1271.021044 224.473889l-62.453624 35.915823h0.199532v0.798129l0.199533 0.199532h-0.399065l0.199532 0.399065v6.385035l62.05456 35.915822 62.254092-35.915822V261.387373l-0.399065-0.199532 0.399065-0.199532v-0.79813l-62.254092-35.915822z m33.321902-19.354637l-12.570538 7.183164h0.199533v7.981294l61.855027 35.915822 12.570538-7.183164 49.883086-28.732658 71.233048-41.103663h-0.199532v-6.7841l-0.199533-0.399065h0.399065l-0.199532-0.199532v-0.598597l-62.05456-35.915822-71.233048 40.904131-49.883086 28.732657z m-23.544817-83.204989h-0.199532v0.598597l0.399065 0.199533-0.399065 0.199532V129.696025L1342.852689 165.611847l61.855027-35.915822v-6.7841l-0.199532-0.399065h0.199532V121.714731l-61.855027-35.915822-62.254092 35.915822z m383.102105 149.050663l-62.05456-35.915822-62.254092 35.915822h0.199533v7.781761l62.054559 35.915823 62.254092-35.915823h-0.199532v-6.784099l-0.199533-0.399065h0.399065l-0.199532-0.199532v-0.598597zM326.833983 752.835542V746.250974l-0.199532-0.199532 0.399064-0.199532h-0.199532v-0.79813l-62.05456-35.915822L155.63523 772.190179v0.79813l0.399065 0.399064H155.63523v6.7841l62.254092 35.915822 109.144193-62.852689-0.199532-0.199532z m94.179267 41.70226h0.199533V788.152767l-0.399065-0.399065h0.399065v-0.798129l-62.254092-35.915822-120.916602 69.836321h0.199532v0.798129l0.199533 0.199532-0.399065 0.199533h0.199532v6.584567l62.05456 35.915822 120.916602-69.836321z m132.090413 21.549493v-6.584567l-0.199532-0.399065h0.399065l-0.199533-0.199532v-0.598597l-62.054559-35.915822-168.205768 96.97272v0.798129l0.199532 0.199533-0.199532 0.199532v6.983632l62.05456 35.915822 168.4053-97.172252h-0.199533z m-207.314107-73.826968l62.054559-35.915822v-6.7841l-0.199532-0.199532 0.199532-0.399065v-0.598597l-62.254092-35.915822-62.054559 35.915822v0.79813l0.399064 0.399064h-0.399064v6.7841l62.254092 35.915822z m83.204988-48.087295l62.05456-35.915822v-6.7841l-0.399065-0.199532 0.399065-0.199533v-0.798129L428.994544 614.559626l-62.254092 35.915822h0.199532v0.79813l0.199533 0.399064h-0.399065l0.199532 0.199533v6.385035l62.05456 35.915822z m83.005456-48.087295l62.254092-35.915823h-0.199532V602.587685l-61.855028-35.915822-62.453624 35.915822h0.199532v0.798129l0.199533 0.199533-0.399065 0.199532h0.199532v6.584568l62.05456 35.915822z m83.204988-48.087296l62.254092-35.915822h-0.199532v-6.584568l-0.199532-0.199532 0.399064-0.199532h-0.199532v-0.79813l-62.05456-35.915822-62.254092 35.915822v0.997662l0.399065 0.399065h-0.399065v6.584567l62.254092 35.915822z m83.204989-47.887763l62.054559-35.915822v-6.7841l-0.199532-0.199532 0.199532-0.199533v-0.798129l-62.054559-35.915822-62.254092 35.915822v0.798129l0.399064 0.199533-0.399064 0.199532v6.584567l62.254092 35.915823z m83.005456-48.087295l62.254092-35.915823v-6.584567l-0.399065-0.399065h0.399065v-0.798129l-62.254092-35.915822-62.05456 35.915822v0.997662l0.199532 0.199532-0.199532 0.199532v6.584568l62.05456 35.915822z m83.204988-47.887763l62.254092-35.915823v-6.784099l-0.399065-0.199533 0.399065-0.199532v-0.798129l-62.254092-35.915823-62.254092 35.915823h0.199532v0.798129l0.199533 0.399065h-0.399065l0.199532 0.199532v6.584567l62.05456 35.915823z m83.204988-48.087296l62.254092-35.915822h-0.199532v-6.584567l-0.199533-0.399065h0.399065l-0.199532-0.199533v-0.598597l-62.05456-35.915822-62.254092 35.915822h0.199533v7.781762l61.855027 35.915822z m83.204989-48.087295l62.254091-35.915822h-0.199532v-6.584568l-0.199532-0.199532 0.199532-0.399065v-0.598597l-62.054559-35.915822-62.254092 35.915822v0.997662l0.399064 0.399064h-0.399064v6.584568l62.254092 35.915822z m83.204988-47.887763l62.054559-35.915823V267.373344l-0.199532-0.199533 0.199532-0.199532v-0.798129l-62.054559-35.915823-62.254092 35.915823v0.997661l0.199532 0.399065h-0.199532v6.584567l62.054559 35.915823z m83.005456-48.087296l62.254092-35.915822V219.485581l-0.399065-0.399065h0.399065v-0.798129l-62.254092-35.915823-62.05456 35.915823v0.997661l0.199532 0.199533-0.199532 0.199532v6.584567l62.05456 35.915823z m83.204988-48.087295l62.254092-35.915822h-0.199532v-7.781762l-62.05456-35.915822-62.254092 35.915822h0.199532v0.997662l0.199533 0.399065h-0.399065l0.199532 0.199532v6.385035l62.05456 35.915822zM584.629774 700.358535v-6.7841l-0.399065-0.199532 0.399065-0.199533v-0.798129l-62.254092-35.915822-62.254092 35.915822h0.199532v0.997662l0.199533 0.399064h-0.399065l0.199532 0.199533v6.385035l62.05456 35.915822 62.254092-35.915822zM1206.771629 141.268901l109.144193-63.052221v-6.7841l-0.199532-0.199532 0.199532-0.199533v-0.798129l-62.054559-35.915822-109.343726 63.052221h0.199532v0.997662l0.199533 0.399064h-0.399065l0.199532 0.199533v6.385035l62.05456 35.915822z m-80.8106 46.690569l62.054559-35.915822v-6.7841l-0.199532-0.199532 0.199532-0.199533v-0.798129l-62.054559-35.915822-62.254092 35.915822v0.798129l0.399065 0.199533-0.399065 0.199532v6.7841l62.254092 35.915822z m-83.204988 47.887763l62.254092-35.915822h-0.199533V193.546376l-0.199532-0.199533 0.399065-0.199532h-0.199533v-0.798129l-62.054559-35.915823-62.254092 35.915823h0.199532v7.781761l61.855027 35.915822zM959.750585 283.934528l61.855027-35.915822v-7.781761l-61.855027-35.915823-62.453625 35.915823h0.199533v0.997661l0.199532 0.199533-0.399065 0.199532h0.199533v6.584568l62.054559 35.915822z m-83.404521 48.087296l62.254092-35.915822V289.321902l-0.399065-0.199533 0.399065-0.199532v-0.798129l-62.254092-35.915823-62.05456 35.915823v0.997661l0.199533 0.399065h-0.199533v6.584568l62.05456 35.915822z m-83.005456 47.887763l62.05456-35.915822v-6.584568l-0.199533-0.199532 0.199533-0.399065v-0.598597l-62.05456-35.915822-62.254092 35.915822v0.997662l0.399065 0.399065h-0.399065v6.584567l62.254092 35.915822z m-83.204988 48.087295l62.254092-35.915822h-0.199533v-6.584567l-0.199532-0.399065h0.399065l-0.199533-0.199532v-0.598597l-62.054559-35.915823-62.254092 35.915823v0.798129l0.399064 0.199532-0.399064 0.199533v6.584567l62.254092 35.915822z m-83.204989 48.087296l62.254092-35.915823h-0.199532v-6.784099l-0.199532-0.199533 0.399064-0.199532h-0.199532v-0.798129l-62.05456-35.915823-62.254092 35.915823h0.199533v7.981293l62.054559 35.915823z m-83.204988 47.887763l62.254092-35.915823v-6.584567l-0.399065-0.399065h0.399065v-0.798129l-62.254092-35.915822-62.254092 35.915822h0.199532v0.997662l0.199533 0.199532-0.399065 0.199532h0.199532v6.584568l62.05456 35.915822z m-83.204988 48.087295l62.254092-35.915822v-6.7841l-0.199533-0.199532 0.199533-0.199533v-0.798129l-62.254092-35.915822-62.05456 35.915822v0.798129l0.199532 0.199533-0.199532 0.199532v6.584568l62.05456 35.915822z m-83.005456 47.887763l62.054559-35.915822v-6.584567l-0.199532-0.199533 0.199532-0.199532v-0.79813l-62.054559-35.915822-62.254092 35.915822v0.997662l0.399064 0.399065h-0.399064v6.584567l62.254092 35.915823z m-83.204989 48.087296l62.254092-35.915823h-0.199532v-6.584567l-0.199532-0.399065h0.399064l-0.199532-0.199532v-0.399065l-62.05456-35.915822-62.254092 35.915822h0.199533v7.781762l61.855027 35.915822z m-83.204988 48.087295l62.254092-35.915822h-0.199532V672.424006l-61.855028-35.915822-62.453624 35.915822h0.199533v0.79813l0.199532 0.399064h-0.399065l0.199533 0.199533v6.385035l62.054559 35.915822z m-21.948558 11.373344v-6.584568l-0.199532-0.199532 0.399064-0.199532h-0.199532v-0.79813l-62.05456-35.915822-62.254092 35.915822h0.199533v0.79813l0.199532 0.199532-0.399065 0.199532h0.199533v6.584568l62.054559 35.915822 62.254092-35.915822h-0.199532z" fill="#DADAE5" /><path d="M264.779423 709.33749L155.63523 772.190179l62.254092 35.915823 109.144193-63.052222-62.254092-35.915822z m94.3788 41.502728l-121.116134 69.836321 62.254092 35.915823 120.916602-69.836321-62.254092-35.915823z m131.890881 21.549494l-168.205768 97.172252 62.05456 35.915822 168.4053-97.172252-62.254092-35.915822z m853.000779-492.44583l62.05456 35.915822 168.4053-97.172253-62.254092-35.915822-168.205768 97.172253zM345.789556 662.447389L283.335931 698.363211l62.254092 35.915823 62.05456-35.915823-62.254092-35.915822z m83.204988-47.887763l-62.453624 35.915822 62.254092 35.915822 62.254092-35.915822-62.254092-35.915822z m83.005456-47.887763l-62.254092 35.915822 62.254092 35.915822 62.254092-35.915822-62.254092-35.915822z m83.204988-48.087296l-62.254092 35.915823 62.254092 35.915822 62.254092-35.915822-62.254092-35.915823z m83.204989-48.087295l-62.254092 35.915822 62.254092 35.915823 62.054559-35.915823-62.054559-35.915822z m83.005456-48.087295l-62.05456 35.915822 62.05456 35.915822 62.254092-35.915822-62.254092-35.915822z m83.204988-47.887763l-62.254092 35.915822 62.254092 35.915822 62.254092-35.915822-62.254092-35.915822z m83.204988-48.087296l-62.254092 35.915822 62.254092 35.915823 62.254092-35.915823-62.254092-35.915822z m83.204989-47.887763l-62.254092 35.915822 62.254092 35.915823 62.254091-35.915823-62.254091-35.915822z m83.204988-48.087295l-62.254092 35.915822 62.054559 35.915822 62.254092-35.915822-62.054559-35.915822zM1177.240842 182.372564l-62.05456 35.915823 62.05456 35.915822 62.254092-35.915822-62.254092-35.915823z m83.204988-47.887763l-62.254092 35.915823 62.254092 35.915822 62.254092-35.915822-62.254092-35.915823zM439.170694 704.548714l-62.05456 35.915822 62.05456 35.915823 62.254092-35.915823-62.254092-35.915822z m36.314887 252.408418l62.254092-35.915823-62.254092-35.915822-62.254092 35.915822 62.254092 35.915823z m79.214341-45.692908l62.254092-35.915822-62.254092-35.915822-62.254092 35.915822 62.254092 35.915822z m83.005456-47.887763l62.05456-35.915822-62.05456-35.915822-62.254092 35.915822 62.254092 35.915822z m81.209665-46.890101l62.054559-35.915822-62.054559-35.915822-62.254092 35.915822 62.254092 35.915822z m644.489478-372.127825l62.254092-35.915823-62.254092-35.915822-62.254092 35.915822 62.254092 35.915823z m77.817615-44.894778l62.054559-35.915822-62.054559-35.915823-62.254092 35.915823 62.254092 35.915822z m79.214341-45.89244l62.453624-35.915822-62.254092-35.915822-62.254092 35.915822 62.254092 35.915822z m81.409197-46.890101l62.254092-35.915822-62.254092-35.915823-62.254092 35.915823 62.254092 35.915822zM798.129384 770.59392L1345.646142 454.933749 1282.992985 419.017927 736.074825 734.678098l62.254092 35.915822zM522.375682 656.461419l-62.254092 35.915822 62.254092 35.915822 62.254092-35.915822-62.254092-35.915822z m83.204988-47.887764l-62.254092 35.915823 62.254092 35.915822 62.254092-35.915822-62.254092-35.915823z m83.204989-47.887763L626.531567 596.601715l62.254092 35.915822 62.254092-35.915822-62.254092-35.915823z m83.204988-48.087295l-62.254092 35.915822 62.254092 35.915823 62.05456-35.915823-62.05456-35.915822z m83.005456-48.087295l-62.05456 35.915822 62.05456 35.915822 62.254092-35.915822-62.254092-35.915822z m83.204988-47.887763l-62.254092 35.915822 62.254092 35.915822 62.254092-35.915822-62.254092-35.915822z m83.204989-48.087296l-62.254092 35.915822 62.254092 35.915823 62.254091-35.915823-62.254091-35.915822z m83.204988-48.087295l-62.254092 35.915822 62.254092 35.915822 62.054559-35.915822-62.054559-35.915822z m83.005456-47.887763l-62.05456 35.915822 62.05456 35.915822 62.254092-35.915822-62.254092-35.915822z m-611.766173 450.943102l-62.254092 35.915822 62.254092 35.915822 62.054559-35.915822-62.054559-35.915822z m83.005456-47.887763l-62.05456 35.915822 62.05456 35.915822 62.254092-35.915822-62.254092-35.915822z m83.40452-48.087296l-62.453624 35.915823 62.254092 35.915822 62.254092-35.915822-62.254092-35.915823z m83.005456-48.087295l-62.254092 35.915822 62.254092 35.915823 62.254092-35.915823-62.254092-35.915822z m83.204989-47.887763l-62.254092 35.915822 62.254092 35.915822 62.054559-35.915822-62.054559-35.915822z m83.204988-48.087295l-62.254092 35.915822 62.05456 35.915822 62.254092-35.915822-62.254092-35.915822z m83.005456-47.887764l-62.254092 35.915823 62.254092 35.915822 62.254092-35.915822-62.254092-35.915823z m83.204988-48.087295l-62.254092 35.915822 62.254092 35.915823 62.254092-35.915823-62.254092-35.915822z m83.204989-48.087295l-62.254092 35.915822 62.254092 35.915822 62.054559-35.915822-62.054559-35.915822z m83.005455-48.087296l-62.054559 35.915823 62.054559 35.915822 62.254092-35.915822-62.054559-35.915823zM1271.021044 224.473889l-62.453624 35.915823 62.254092 35.915822 62.254092-35.915822-62.254092-35.915823z m145.259548-12.171473l71.233048-41.103663-62.254092-35.915822-71.233048 41.103663-49.883086 28.732658-12.371006 7.183164 62.254092 35.915823 12.371006-7.183165 49.883086-28.732658zM1342.852689 85.798909l-62.254092 35.915822L1342.852689 157.630553l61.855027-35.915822-61.855027-35.915822z m-88.991426-51.279813l-109.343726 63.052221 62.254092 35.915823 109.144193-63.052222-62.054559-35.915822z m-127.900234 73.826968l-62.254092 35.915822 62.254092 35.915822 62.054559-35.915822-62.054559-35.915822z m-83.204988 48.087295l-62.254092 35.915823 62.254092 35.915822 62.254092-35.915822-62.254092-35.915823z m-83.005456 47.887763l-62.453625 35.915823 62.254092 35.915822 62.254092-35.915822-62.254092-35.915823z m-83.404521 48.087296l-62.05456 35.915822 62.05456 35.915822 62.254092-35.915822-62.254092-35.915822z m-83.005456 48.087295l-62.254092 35.915822 62.254092 35.915823 62.05456-35.915823-62.05456-35.915822z m-83.204988 47.887763l-62.254092 35.915823 62.254092 35.915822 62.254092-35.915822-62.254092-35.915823z m-83.204989 48.087296l-62.254092 35.915822 62.254092 35.915822 62.254092-35.915822-62.254092-35.915822z m-83.204988 47.887763l-62.254092 35.915822 62.254092 35.915822 62.254092-35.915822-62.254092-35.915822z m-83.204988 48.087295l-62.05456 35.915822 62.05456 35.915823 62.254092-35.915823-62.254092-35.915822z m-83.005456 48.087295l-62.254092 35.915823 62.254092 35.915822 62.054559-35.915822-62.054559-35.915823zM294.31021 588.620421l-62.254092 35.915822 62.254092 35.915822 62.254092-35.915822-62.254092-35.915822z m-83.204988 47.887763l-62.254092 35.915822 62.254092 35.915823 62.254092-35.915823-62.254092-35.915822z m-84.003118 47.488698l-62.254092 35.915823 62.254092 35.915822 62.254092-35.915822-62.254092-35.915823z" fill="#F9F9F9" /></svg>