<?xml version="1.0" standalone="no"?><!DOCTYPE svg PUBLIC "-//W3C//DTD SVG 1.1//EN" "http://www.w3.org/Graphics/SVG/1.1/DTD/svg11.dtd"><svg class="icon" width="200px" height="200.00px" viewBox="0 0 1024 1024" version="1.1" xmlns="http://www.w3.org/2000/svg"><path d="M787.631554 3.833222c-6.844871-5.137015-16.271698-5.311835-26.693654 0.69928L92.29213 390.588629c-20.897702 12.102916-37.828337 44.377359-37.828337 72.267857v429.519044c0 15.343808 5.096672 26.02127 13.151836 30.620377l170.785593 98.060516 15.895163-193.646657 506.641515-292.473691c20.884254-12.102916 37.828337-44.377359 37.828336-72.281304v-262.498802L802.155053 201.7159l73.155404-31.30621 63.473071-34.963979L956.198279 100.858266z" fill="#3D3D44" /><path d="M931.696598 633.386573L263.050828 1019.442701c-20.884254 12.102916-37.828337-0.739623-37.828337-28.589778V561.320432c0-27.850155 16.944083-60.205284 37.828337-72.267857L931.696598 103.009896c20.897702-12.102916 37.828337 0.739623 37.828337 28.589777v429.532491c0 27.87705-16.930635 60.151493-37.828337 72.254409z" fill="#535359" /><path d="M903.698519 598.422594L291.048907 952.096697c-10.435403 6.024563-18.907444-0.376535-18.907444-14.294889V560.177379c0-13.918353 8.472041-30.095918 18.907444-36.133929l612.649612-353.674103c10.448851-6.03801 18.907444 0.363087 18.907444 14.294889v377.610982c0 13.918353-8.458594 30.095918-18.907444 36.147376z" fill="#35353A" /><path d="M901.07622 586.88448L293.684653 937.55975c-5.231149 3.012281-9.413379-0.188268-9.413379-7.154169V553.641804c0-6.965901 4.222573-15.047959 9.413379-18.073688l607.391567-350.675269c5.217702-3.012281 9.413379 0.188268 9.41338 7.154168V568.837688c0.040343 6.939005-4.195678 15.034511-9.41338 18.046792z" fill="#D5D8DB" /><path d="M866.421537 204.903001l-572.736884 330.665115c-5.231149 3.025729-9.413379 11.107787-9.413379 18.073688v376.763777c0 6.965901 4.222573 10.16645 9.413379 7.154169l573.705118-331.270261c4.989091-2.877804 8.929263-10.758148 8.808233-17.683705l-0.497564-376.454481c-0.121029-6.885214-4.276364-10.139554-9.278903-7.248302z" fill="#FFFFFF" /><path d="M323.67299 722.141291v-74.298457l11.161578-19.324322 11.161578 6.44144v59.331185z m0 80.914718v-74.298457h22.323156v61.429023l-11.161578 19.364666z m14.792453-180.844462l11.417084-19.754648L404.103591 571.137242l11.430532 6.589365-11.430532 19.176398-54.234512 31.319657z m0 189.383742l11.417084-19.176398L404.103591 761.139576l11.430532 5.997668-11.430532 19.768096-54.234512 31.319657z m69.295918-152.98086v-59.317736l11.134683-19.324323 11.161578 6.441441v74.311905z m0 95.895439V693.094293l22.309709-25.765764v74.311905L418.896044 760.964756zM441.232648 549.71508l99.055644-57.193002-22.793825 38.917599-54.032797 31.198628z m80.444049 43.140172v-59.331184l22.323156-38.998285v100.373517z m0 100.467651v-65.893654L543.95951 601.623142v104.582643zM618.500025 448.104376l75.777703-43.745318 11.417084 6.589366-11.417084 19.176398-54.234512 31.319657z m0 215.75465l21.516296-38.204871L694.277728 594.388288l11.417084 5.997667-11.417084 19.781544z m0.52446-108.173174l21.018731-26.222985 54.234512-31.319657 21.018731 1.788542-21.018731 23.990669-54.234512 31.30621z m78.884118-63.836158v-59.331184l11.161578-19.324323 11.161578 6.441441v74.311904z m0 95.895438v-61.429023l22.323156-25.765763v74.311904l-11.161578 19.324323zM751.887608 475.672129v-74.311905l11.161578-19.324322 11.161579 6.441441V447.808527z m0 111.172008l21.516295-38.204872 58.900859-34.009194 11.417084 5.997668-11.417084 19.768096z m5.190806-111.037531l21.018731-26.048165 54.234512-31.319657 21.018731 1.788542-21.018731 23.990669-54.234512 31.30621z m9.601647-100.064221l11.417084-19.781544 75.522197-43.597393-21.287685 38.056947-54.234512 31.319658z m69.282471 132.298321v-61.429023l22.323156-25.698525v74.311904l-11.161578 19.324323zM596.163421 544.483931l-21.798696 12.587033v-33.565421l21.798696-12.573585v33.551973zM596.149974 626.03069l-21.785249 12.587033v-33.551973l21.785249-12.587033v33.551973z" fill="#2C2C30" /><path d="M723.876081 181.114047v-8.06861h-9.682332v0.336192l-84.343878-48.761304c-4.101544-2.366792-10.542985-2.487822-14.375575-0.282402L311.099405 300.072265l-12.694614 1.344768v8.256878c0 1.600274 1.035472 3.25434 3.227444 4.518422l90.812213 52.44597c4.114991 2.366792 10.542985 2.501269 14.375575 0.282401l314.339626-181.543741a4.518422 4.518422 0 0 0 2.716432-4.262916z" fill="#303035" /><path d="M721.173097 177.012503L406.793128 358.489006c-3.83259 2.218868-10.260583 2.084391-14.375575-0.282401l-90.812214-52.44597c-4.114991-2.38024-4.330154-6.091801-0.497564-8.297221l314.326178-181.543741c3.83259-2.20542 10.274031-2.084391 14.375575 0.295849l90.825661 52.445969c4.141887 2.420583 4.370497 6.15904 0.537908 8.351012z" fill="#4A4A51" /><path d="M293.684653 937.55975l607.391567-350.67527a20.279108 20.279108 0 0 0 7.772762-9.951286l-33.484734-14.657976-591.133317 337.294823v30.83554c0 6.965901 4.222573 10.16645 9.453722 7.154169z" fill="#DFE3E8" /></svg>