<?xml version="1.0" standalone="no"?><!DOCTYPE svg PUBLIC "-//W3C//DTD SVG 1.1//EN" "http://www.w3.org/Graphics/SVG/1.1/DTD/svg11.dtd"><svg class="icon" width="200px" height="130.86px" viewBox="0 0 1565 1024" version="1.1" xmlns="http://www.w3.org/2000/svg"><path d="M638.09012 1014.663528L16.18742 655.590574c-23.957382-13.813265-20.953716-37.968494 6.708787-53.958067L830.666463 135.272929c27.644517-15.953602 69.480005-17.698246 93.419401-3.866995L1546.006551 490.478888c23.957382 13.831251 20.953716 37.968494-6.708787 53.958067L731.509521 1010.814519c-27.644517 15.935616-69.480005 17.68026-93.419401 3.849009z" fill="#C8CFE3" /><path d="M641.363577 958.493179L19.44289 599.420226c-23.957382-13.813265-20.953716-37.968494 6.708787-53.958067L833.93992 79.138553c27.644517-15.953602 69.480005-17.698246 93.4194-3.866995l621.920687 359.036981c23.957382 13.831251 20.953716 37.968494-6.708787 53.958068L734.782977 954.626185c-27.644517 15.953602-69.480005 17.698246-93.4194 3.866994z" fill="#D6DDEC" /><path d="M638.09012 892.592393L16.18742 533.51944c-23.957382-13.831251-20.953716-37.968494 6.708787-53.958068L830.666463 13.201794c27.644517-15.953602 69.480005-17.698246 93.419401-3.866994l621.920687 359.072953c23.957382 13.813265 20.953716 37.968494-6.708787 53.958067L731.509521 888.725398c-27.644517 15.971588-69.480005 17.77019-93.419401 3.866995z" fill="#FFFFFF" /><path d="M1484.188591 396.807683L692.605755 852.897241 75.919001 496.84594l791.564851-456.089559 616.704739 356.051302z" fill="#EEF2FB" /><path d="M764.190124 280.258257l-0.629511-120.290519-272.03859 25.755984v192.126693l273.495458 78.868708-0.827357-176.460866z" fill="#FF6CAF" /><path d="M1073.855474 472.043215v-130.560538L1015.958467 379.505129a259.502333 259.502333 0 0 0-31.223735-21.079619C924.481557 323.586585 845.343058 306.302017 766.204559 306.553822h-1.690686l1.708672 176.496838 276.247319 79.390304c24.389047-28.256041 34.892884-59.551721 31.38561-90.397749z" fill="#FFB41D" /><path d="M765.305258 423.103247v-109.013282l276.481138 104.516777v129.067697L765.305258 423.103247z" fill="#FFD91F" /><path d="M804.766591 433.966805L509.256241 408.282765l-16.727001-4.802268c-0.899301 1.043189-1.798602 2.068393-2.625959 3.129568l-29.353189-2.500057V485.622662c1.384924 44.227629 31.277693 88.22144 89.732267 121.981204 59.875469 34.569135 138.366471 51.835717 216.857473 51.835717S923.977948 642.101057 983.835431 607.513936c24.10127-13.921181 43.346314-29.587007 57.735132-46.26005v-73.940538z" fill="#654CCC" /><path d="M765.017481 87.645942l0.215833 176.496838-272.865948-78.419058c14.388818-16.691029 33.633862-32.374841 57.735132-46.26005C609.114638 105.398146 687.695571 88.131564 765.017481 87.645942z" fill="#FC95C9" /><path d="M984.051263 214.573302c95.613696 55.217089 114.894712 137.808904 57.735133 204.03344l-276.15739-79.354332-1.798602-176.514824h1.690686c79.084541-0.251804 158.241026 17.014777 218.530173 51.835716z" fill="#FFEE15" /><path d="M1041.552577 487.313348c-14.388818 16.691029-33.633862 32.374841-57.735132 46.26005-59.839497 34.551149-138.276541 51.835717-216.695599 51.853703s-156.982004-17.266582-216.857473-51.835717C454.650677 478.428253 435.405633 395.692549 492.52924 329.539958l272.865948 78.419058z" fill="#9274ED" /></svg>