<?xml version="1.0" standalone="no"?><!DOCTYPE svg PUBLIC "-//W3C//DTD SVG 1.1//EN" "http://www.w3.org/Graphics/SVG/1.1/DTD/svg11.dtd"><svg class="icon" viewBox="0 0 1024 1024" version="1.1" xmlns="http://www.w3.org/2000/svg"><path d="M512 896c-223.5 0-405.3-181.8-405.3-405.3S288.5 85.3 512 85.3s405.3 181.8 405.3 405.3S735.5 896 512 896z m0-725.3c-176.4 0-320 143.5-320 320s143.6 320 320 320 320-143.5 320-320-143.6-320-320-320z" fill="#3688FF" /><path d="M922.6 249.6c-13.7 0-27.1-6.6-35.4-18.8-15.3-22.6-32.8-43.9-52.1-63.2-19.3-19.3-40.6-36.9-63.2-52.1-19.5-13.2-24.6-39.7-11.5-59.2 13.2-19.5 39.7-24.6 59.2-11.5 27.1 18.3 52.6 39.4 75.7 62.5s44.2 48.6 62.5 75.7c13.2 19.5 8.1 46.1-11.5 59.2-7.2 5-15.5 7.4-23.7 7.4zM101.4 249.6c-8.2 0-16.5-2.4-23.8-7.3-19.5-13.2-24.7-39.7-11.5-59.2 18.3-27.1 39.4-52.6 62.5-75.7s48.6-44.1 75.7-62.5c19.5-13.2 46.1-8 59.3 11.5 13.2 19.5 8.1 46-11.5 59.2-22.6 15.3-43.9 32.8-63.2 52.1-19.3 19.3-36.8 40.5-52.1 63.2-8.2 12.1-21.7 18.7-35.4 18.7zM138.6 970.7c-8.6 0-17.3-2.6-24.8-7.9-19.2-13.7-23.6-40.4-9.9-59.5l53.3-74.7c13.7-19.2 40.3-23.6 59.5-9.9 19.2 13.7 23.6 40.4 9.9 59.5l-53.3 74.7c-8.2 11.6-21.4 17.8-34.7 17.8zM885.4 970.7c-13.3 0-26.4-6.2-34.8-17.9l-53.3-74.7c-13.7-19.2-9.3-45.8 9.9-59.5 19.2-13.7 45.8-9.2 59.5 9.9l53.3 74.7c13.7 19.2 9.3 45.8-9.9 59.5-7.5 5.4-16.2 8-24.7 8zM512 554.7c-7.2 0-14.5-1.8-21-5.5-13.4-7.6-21.6-21.8-21.6-37.1V384c0-23.6 19.1-42.7 42.7-42.7s42.7 19.1 42.7 42.7v52.6l42.1-25.2c20.2-12.1 46.4-5.6 58.5 14.6 12.1 20.2 5.6 46.4-14.6 58.5l-106.7 64c-6.9 4.1-14.5 6.2-22.1 6.2z" fill="#5F6379" /></svg>