<?xml version="1.0" standalone="no"?><!DOCTYPE svg PUBLIC "-//W3C//DTD SVG 1.1//EN" "http://www.w3.org/Graphics/SVG/1.1/DTD/svg11.dtd"><svg class="icon" viewBox="0 0 1024 1024" version="1.1" xmlns="http://www.w3.org/2000/svg"><path d="M899.9 938.7H124.1C55.7 938.7 0 883 0 814.6V273.4C0 205 55.7 149.3 124.1 149.3h68.7l85.3-106.7h467.7l85.3 106.7h68.7c68.4 0 124.1 55.7 124.1 124.1v541.1c0.1 68.5-55.6 124.2-124 124.2z m-775.8-704c-21.4 0-38.8 17.4-38.8 38.8v541.1c0 21.4 17.4 38.8 38.8 38.8h775.8c21.4 0 38.8-17.4 38.8-38.8V273.4c0-21.4-17.4-38.8-38.8-38.8H790.2L704.8 128H319.2l-85.3 106.7H124.1z" fill="#3688FF" /><path d="M512 768c-117.6 0-213.3-95.7-213.3-213.3S394.4 341.3 512 341.3 725.3 437 725.3 554.7 629.6 768 512 768z m0-341.3c-70.6 0-128 57.4-128 128s57.4 128 128 128 128-57.4 128-128-57.4-128-128-128z" fill="#5F6379" /><path d="M810.7 341.3m-42.7 0a42.7 42.7 0 1 0 85.4 0 42.7 42.7 0 1 0-85.4 0Z" fill="#5F6379" /></svg>