
<svg viewBox="0 0 256 236" version="1.1" xmlns="http://www.w3.org/2000/svg" xmlns:xlink="http://www.w3.org/1999/xlink">
    <!-- Generator: Sketch 49.3 (51167) - http://www.bohemiancoding.com/sketch -->
    <desc>Created with Sketch.</desc>
    <defs></defs>
    <g id="logo" stroke="none" stroke-width="1" fill="none" fill-rule="evenodd">
        <g id="icon/500/crud" transform="translate(-122.000000, -132.000000)" fill-rule="nonzero">
            <g id="table-(1)" transform="translate(122.000000, 132.000000)">
                <path d="M192,132.24 L192,166.906667 C192,169.115806 190.209139,170.906667 188,170.906667 L153.333333,170.906667 C151.124194,170.906667 149.333333,169.115806 149.333333,166.906667 L149.333333,132.24 C149.333333,130.030861 151.124194,128.24 153.333333,128.24 L188,128.24 C190.209139,128.24 192,130.030861 192,132.24 Z" id="Shape" fill="#409EFF"></path>
                <path d="M128,132.24 L128,166.906667 C128,169.115806 126.209139,170.906667 124,170.906667 L89.3333333,170.906667 C87.1241943,170.906667 85.3333333,169.115806 85.3333333,166.906667 L85.3333333,132.24 C85.3333333,130.030861 87.1241943,128.24 89.3333333,128.24 L124,128.24 C126.209139,128.24 128,130.030861 128,132.24 Z" id="Shape" fill="#409EFF"></path>
                <path d="M64,132.24 L64,166.906667 C64,169.115806 62.209139,170.906667 60,170.906667 L4,170.906667 C1.790861,170.906667 2.705415e-16,169.115806 0,166.906667 L0,132.24 C-2.705415e-16,130.030861 1.790861,128.24 4,128.24 L60,128.24 C62.209139,128.24 64,130.030861 64,132.24 Z" id="Shape" fill="#35495E"></path>
                <path d="M128,69.0933333 L128,103.76 C128,105.969139 126.209139,107.76 124,107.76 L89.3333333,107.76 C87.1241943,107.76 85.3333333,105.969139 85.3333333,103.76 L85.3333333,69.0933333 C85.3333333,66.8841943 87.1241943,65.0933333 89.3333333,65.0933333 L124,65.0933333 C126.209139,65.0933333 128,66.8841943 128,69.0933333 Z" id="Shape" fill="#409EFF"></path>
                <path d="M64,4.24 L64,38.9066667 C64,41.1158057 62.209139,42.9066667 60,42.9066667 L4,42.9066667 C1.790861,42.9066667 2.705415e-16,41.1158057 0,38.9066667 L0,4.24 C-2.705415e-16,2.030861 1.790861,0.24 4,0.24 L60,0.24 C62.209139,0.24 64,2.030861 64,4.24 Z" id="Shape" fill="#35495E"></path>
                <path d="M192,69.0933333 L192,103.76 C192,105.969139 190.209139,107.76 188,107.76 L153.333333,107.76 C151.124194,107.76 149.333333,105.969139 149.333333,103.76 L149.333333,69.0933333 C149.333333,66.8841943 151.124194,65.0933333 153.333333,65.0933333 L188,65.0933333 C190.209139,65.0933333 192,66.8841943 192,69.0933333 Z" id="Shape" fill="#409EFF"></path>
                <path d="M64,69.0933333 L64,103.76 C64,105.969139 62.209139,107.76 60,107.76 L4,107.76 C1.790861,107.76 2.705415e-16,105.969139 0,103.76 L0,69.0933333 C-2.705415e-16,66.8841943 1.790861,65.0933333 4,65.0933333 L60,65.0933333 C62.209139,65.0933333 64,66.8841943 64,69.0933333 Z" id="Shape" fill="#35495E"></path>
                <path d="M256,132.24 L256,166.906667 C256,169.115806 254.209139,170.906667 252,170.906667 L217.333333,170.906667 C215.124194,170.906667 213.333333,169.115806 213.333333,166.906667 L213.333333,132.24 C213.333333,130.030861 215.124194,128.24 217.333333,128.24 L252,128.24 C254.209139,128.24 256,130.030861 256,132.24 Z" id="Shape" fill="#409EFF"></path>
                <path d="M256,69.0933333 L256,103.76 C256,105.969139 254.209139,107.76 252,107.76 L217.333333,107.76 C215.124194,107.76 213.333333,105.969139 213.333333,103.76 L213.333333,69.0933333 C213.333333,66.8841943 215.124194,65.0933333 217.333333,65.0933333 L252,65.0933333 C254.209139,65.0933333 256,66.8841943 256,69.0933333 Z" id="Shape" fill="#409EFF"></path>
                <path d="M256,4.24 L256,38.9066667 C256,41.1158057 254.209139,42.9066667 252,42.9066667 L89.3333333,42.9066667 C87.1241943,42.9066667 85.3333333,41.1158057 85.3333333,38.9066667 L85.3333333,4.24 C85.3333333,2.030861 87.1241943,0.24 89.3333333,0.24 L252,0.24 C254.209139,0.24 256,2.030861 256,4.24 Z" id="Shape" fill="#35495E"></path>
                <path d="M128,197.093333 L128,231.76 C128,233.969139 126.209139,235.76 124,235.76 L89.3333333,235.76 C87.1241943,235.76 85.3333333,233.969139 85.3333333,231.76 L85.3333333,197.093333 C85.3333333,194.884194 87.1241943,193.093333 89.3333333,193.093333 L124,193.093333 C126.209139,193.093333 128,194.884194 128,197.093333 Z" id="Shape" fill="#409EFF"></path>
                <path d="M64,197.093333 L64,231.76 C64,233.969139 62.209139,235.76 60,235.76 L4,235.76 C1.790861,235.76 2.705415e-16,233.969139 0,231.76 L0,197.093333 C-2.705415e-16,194.884194 1.790861,193.093333 4,193.093333 L60,193.093333 C62.209139,193.093333 64,194.884194 64,197.093333 Z" id="Shape" fill="#35495E"></path>
                <path d="M256,197.093333 L256,231.76 C256,233.969139 254.209139,235.76 252,235.76 L217.333333,235.76 C215.124194,235.76 213.333333,233.969139 213.333333,231.76 L213.333333,197.093333 C213.333333,194.884194 215.124194,193.093333 217.333333,193.093333 L252,193.093333 C254.209139,193.093333 256,194.884194 256,197.093333 Z" id="Shape" fill="#409EFF"></path>
                <path d="M192,197.093333 L192,231.76 C192,233.969139 190.209139,235.76 188,235.76 L153.333333,235.76 C151.124194,235.76 149.333333,233.969139 149.333333,231.76 L149.333333,197.093333 C149.333333,194.884194 151.124194,193.093333 153.333333,193.093333 L188,193.093333 C190.209139,193.093333 192,194.884194 192,197.093333 Z" id="Shape" fill="#409EFF"></path>
            </g>
        </g>
    </g>
</svg>