
<svg width="240px" height="236px" viewBox="0 0 240 236" version="1.1" xmlns="http://www.w3.org/2000/svg" xmlns:xlink="http://www.w3.org/1999/xlink">
    <g stroke="none" stroke-width="1" fill="none" fill-rule="evenodd">
        <g transform="translate(-8.000000, 0.000000)">
            <g id="d2-crud" transform="translate(8.000000, 0.000000)">
                <path d="M111.666667,132.146667 L111.666667,166.813334 C111.666667,169.022473 109.875806,170.813334 107.666667,170.813334 L72.9999997,170.813334 C70.7908607,170.813334 68.9999997,169.022473 68.9999997,166.813334 L68.9999997,132.146667 C68.9999997,129.937528 70.7908607,128.146667 72.9999997,128.146667 L107.666667,128.146667 C109.875806,128.146667 111.666667,129.937528 111.666667,132.146667 Z" fill="#409EFF" fill-rule="nonzero"></path>
                <path d="M47.6666667,132.146667 L47.6666667,166.813334 C47.6666667,169.022473 45.8758057,170.813334 43.6666667,170.813334 L9,170.813334 C6.790861,170.813334 5,169.022473 5,166.813334 L5,132.146667 C5,129.937528 6.790861,128.146667 9,128.146667 L43.6666667,128.146667 C45.8758057,128.146667 47.6666667,129.937528 47.6666667,132.146667 Z" fill="#409EFF" fill-rule="nonzero"></path>
                <path d="M47.6666667,69 L47.6666667,103.666667 C47.6666667,105.875806 45.8758057,107.666667 43.6666667,107.666667 L9,107.666667 C6.790861,107.666667 5,105.875806 5,103.666667 L5,69 C5,66.790861 6.790861,65 9,65 L43.6666667,65 C45.8758057,65 47.6666667,66.790861 47.6666667,69 Z" fill="#409EFF" fill-rule="nonzero"></path>
                <path d="M111.666667,69 L111.666667,103.666667 C111.666667,105.875806 109.875806,107.666667 107.666667,107.666667 L72.9999997,107.666667 C70.7908607,107.666667 68.9999997,105.875806 68.9999997,103.666667 L68.9999997,69 C68.9999997,66.790861 70.7908607,65 72.9999997,65 L107.666667,65 C109.875806,65 111.666667,66.790861 111.666667,69 Z" fill="#409EFF" fill-rule="nonzero"></path>
                <path d="M175.666667,132.146667 L175.666667,166.813334 C175.666667,169.022473 173.875806,170.813334 171.666667,170.813334 L137,170.813334 C134.790861,170.813334 133,169.022473 133,166.813334 L133,132.146667 C133,129.937528 134.790861,128.146667 137,128.146667 L171.666667,128.146667 C173.875806,128.146667 175.666667,129.937528 175.666667,132.146667 Z" fill="#409EFF" fill-rule="nonzero"></path>
                <path d="M175.666667,69 L175.666667,103.666667 C175.666667,105.875806 173.875806,107.666667 171.666667,107.666667 L137,107.666667 C134.790861,107.666667 133,105.875806 133,103.666667 L133,69 C133,66.790861 134.790861,65 137,65 L171.666667,65 C173.875806,65 175.666667,66.790861 175.666667,69 Z" fill="#409EFF" fill-rule="nonzero"></path>
                <path d="M47.6666667,197 L47.6666667,231.666667 C47.6666667,233.875806 45.8758057,235.666667 43.6666667,235.666667 L9,235.666667 C6.790861,235.666667 5,233.875806 5,231.666667 L5,197 C5,194.790861 6.790861,193 9,193 L43.6666667,193 C45.8758057,193 47.6666667,194.790861 47.6666667,197 Z" fill="#409EFF" fill-rule="nonzero"></path>
                <path d="M175.666667,197 L175.666667,231.666667 C175.666667,233.875806 173.875806,235.666667 171.666667,235.666667 L137,235.666667 C134.790861,235.666667 133,233.875806 133,231.666667 L133,197 C133,194.790861 134.790861,193 137,193 L171.666667,193 C173.875806,193 175.666667,194.790861 175.666667,197 Z" fill="#409EFF" fill-rule="nonzero"></path>
                <path d="M111.666667,197 L111.666667,231.666667 C111.666667,233.875806 109.875806,235.666667 107.666667,235.666667 L72.9999997,235.666667 C70.7908607,235.666667 68.9999997,233.875806 68.9999997,231.666667 L68.9999997,197 C68.9999997,194.790861 70.7908607,193 72.9999997,193 L107.666667,193 C109.875806,193 111.666667,194.790861 111.666667,197 Z" fill="#409EFF" fill-rule="nonzero"></path>
                <rect fill="#35495E" x="176" y="19" width="64" height="26" rx="4"></rect>
                <rect fill="#35495E" transform="translate(208.000000, 32.000000) rotate(-270.000000) translate(-208.000000, -32.000000) " x="176" y="19" width="64" height="26" rx="4"></rect>
                <rect fill="#35495E" transform="translate(208.500000, 159.000000) rotate(-270.000000) translate(-208.500000, -159.000000) " x="132" y="146" width="153" height="26" rx="4"></rect>
                <rect fill="#35495E" transform="translate(78.000000, 32.000000) rotate(-180.000000) translate(-78.000000, -32.000000) " x="0" y="19" width="156" height="26" rx="4"></rect>
            </g>
        </g>
    </g>
</svg>