<?xml version="1.0" standalone="no"?><!DOCTYPE svg PUBLIC "-//W3C//DTD SVG 1.1//EN" "http://www.w3.org/Graphics/SVG/1.1/DTD/svg11.dtd"><svg class="icon" viewBox="0 0 1024 1024" version="1.1" xmlns="http://www.w3.org/2000/svg"><path d="M512 128c-23.6 0-42.7-19.1-42.7-42.7V42.7C469.3 19.1 488.4 0 512 0s42.7 19.1 42.7 42.7v42.7c0 23.5-19.1 42.6-42.7 42.6zM512 1024c-61.8 0-122.3-10.5-179.9-31.1-22.2-7.9-33.7-32.4-25.8-54.6 8-22.2 32.3-33.8 54.6-25.8 98.4 35.3 209.2 34.6 307.1-1.8 22.1-8.2 46.6 3 54.9 25.1 8.2 22.1-3 46.6-25.1 54.9-59.5 22.1-121.9 33.3-185.8 33.3z" fill="#5F6379" /><path d="M845 874.7H179c-75.2 0-136.4-61.2-136.4-136.4v-4.6c0-57.1 34.7-106 85.3-126.1V426.7c0-211.7 172.3-384 384-384s384 172.3 384 384v180.9c50.6 20.1 85.3 69 85.3 126.1v4.6c0.1 75.2-61 136.4-136.2 136.4zM512 128c-164.7 0-298.7 134-298.7 298.7v253.2l-38.9 3.5c-26.5 2.4-46.5 24-46.5 50.3v4.6c0 28.1 22.9 51 51 51h666c28.1 0 51-22.9 51-51v-4.6c0-26.3-20-48-46.5-50.3l-38.9-3.5V426.7C810.7 262 676.7 128 512 128z" fill="#3688FF" /></svg>