<?xml version="1.0" standalone="no"?><!DOCTYPE svg PUBLIC "-//W3C//DTD SVG 1.1//EN" "http://www.w3.org/Graphics/SVG/1.1/DTD/svg11.dtd"><svg class="icon" width="200px" height="200.00px" viewBox="0 0 1024 1024" version="1.1" xmlns="http://www.w3.org/2000/svg"><path d="M492.5 917.7c-247 0-447.9-200.9-447.9-447.9s200.9-448 447.9-448 447.9 200.9 447.9 447.9-200.9 448-447.9 448z m0-810.6c-200 0-362.6 162.7-362.6 362.6s162.7 362.6 362.6 362.6 362.6-162.7 362.6-362.6-162.6-362.6-362.6-362.6z" fill="#3688FF" /><path d="M951.1 971c-10.9 0-21.8-4.2-30.2-12.5l-96-96c-16.7-16.7-16.7-43.7 0-60.3 16.6-16.7 43.7-16.7 60.3 0l96 96c16.7 16.7 16.7 43.7 0 60.3-8.2 8.4-19.2 12.5-30.1 12.5z" fill="#5F6379" /></svg>