<?xml version="1.0" standalone="no"?><!DOCTYPE svg PUBLIC "-//W3C//DTD SVG 1.1//EN" "http://www.w3.org/Graphics/SVG/1.1/DTD/svg11.dtd"><svg class="icon" viewBox="0 0 1024 1024" version="1.1" xmlns="http://www.w3.org/2000/svg"><path d="M811.3 938.7H217.5c-71.5 0-129.8-58.2-129.8-129.8V215.1c0-71.6 58.2-129.8 129.8-129.8h296.9c23.6 0 42.7 19.1 42.7 42.7s-19.1 42.7-42.7 42.7H217.5c-24.5 0-44.4 19.9-44.4 44.4v593.8c0 24.5 19.9 44.4 44.4 44.4h593.8c24.5 0 44.4-19.9 44.4-44.4V512c0-23.6 19.1-42.7 42.7-42.7S941 488.4 941 512v296.9c0 71.6-58.2 129.8-129.7 129.8z" fill="#3688FF" /><path d="M898.4 405.3c-23.6 0-42.7-19.1-42.7-42.7V212.9c0-23.3-19-42.3-42.3-42.3H663.7c-23.6 0-42.7-19.1-42.7-42.7s19.1-42.7 42.7-42.7h149.7c70.4 0 127.6 57.2 127.6 127.6v149.7c0 23.7-19.1 42.8-42.6 42.8z" fill="#5F6379" /><path d="M373.6 712.6c-10.9 0-21.8-4.2-30.2-12.5-16.7-16.7-16.7-43.7 0-60.3L851.2 132c16.7-16.7 43.7-16.7 60.3 0 16.7 16.7 16.7 43.7 0 60.3L403.8 700.1c-8.4 8.3-19.3 12.5-30.2 12.5z" fill="#5F6379" /></svg>