<?xml version="1.0" standalone="no"?><!DOCTYPE svg PUBLIC "-//W3C//DTD SVG 1.1//EN" "http://www.w3.org/Graphics/SVG/1.1/DTD/svg11.dtd"><svg class="icon" viewBox="0 0 1024 1024" version="1.1" xmlns="http://www.w3.org/2000/svg"><path fill="#333333" d="M761.2 942.8c-8.9 0-17.9-1.8-26.5-5.4l-220.7-93-220.7 93c-22.1 9.3-46.8 6.4-66.2-7.6-19.4-14.1-29.8-36.7-27.7-60.6l20.2-238.7L62.9 449.2c-15.7-18.1-20.6-42.5-13.2-65.3 7.4-22.8 25.7-39.6 49.1-45.1L332 284.3l123.9-205c12.4-20.5 34.1-32.7 58-32.7 24 0 45.7 12.2 58.1 32.7l123.9 205 233.2 54.5c23.3 5.5 41.7 22.3 49.1 45.1 7.4 22.8 2.5 47.2-13.2 65.3L808.4 630.4l20.2 238.7c2 23.9-8.3 46.5-27.7 60.6-11.8 8.6-25.7 13-39.7 13.1zM146.4 415.3L289 580.2c11.9 13.7 17.8 32 16.3 50.1l-18.4 217.2 200.8-84.6c16.8-7 35.9-7 52.6 0l200.9 84.6-18.4-217.2c-1.5-18.1 4.4-36.4 16.3-50.1l142.5-164.9-212.2-49.6c-17.7-4.1-33.2-15.4-42.6-31L514 148.3 401.2 334.8c-9.4 15.6-24.9 26.8-42.6 31l-212.2 49.5z m553.3-124.7h0.2-0.2z"  /></svg>